SplineFontDB: 3.2
FontName: LCD
FullName: LCD
FamilyName: LCD
Weight: Medium
Copyright: Created by jhudson with FontForge 1.0 (http://fontforge.sf.net)\n\nCopyright (c) 2023 jhudson\n\nYou may use and copy this file under either (at your choice):\n\n(1) The SIL Open Font License version 1.1 (https://scripts.sil.org/OFL)\n\n(2) The MIT License:\n\nPermission is hereby granted, free of charge, to any person obtaining a copy\nof this software and associated documentation files (the "Software"), to deal\nin the Software without restriction, including without limitation the rights\nto use, copy, modify, merge, publish, distribute, sublicense, and/or sell\ncopies of the Software, and to permit persons to whom the Software is\nfurnished to do so, subject to the following conditions:\n\nThe above copyright notice and this permission notice shall be included in all\ncopies or substantial portions of the Software.\n\nTHE SOFTWARE IS PROVIDED "AS IS", WITHOUT WARRANTY OF ANY KIND, EXPRESS OR\nIMPLIED, INCLUDING BUT NOT LIMITED TO THE WARRANTIES OF MERCHANTABILITY,\nFITNESS FOR A PARTICULAR PURPOSE AND NONINFRINGEMENT. IN NO EVENT SHALL THE\nAUTHORS OR COPYRIGHT HOLDERS BE LIABLE FOR ANY CLAIM, DAMAGES OR OTHER\nLIABILITY, WHETHER IN AN ACTION OF CONTRACT, TORT OR OTHERWISE, ARISING FROM,\nOUT OF OR IN CONNECTION WITH THE SOFTWARE OR THE USE OR OTHER DEALINGS IN THE\nSOFTWARE.\n
UComments: "2007-7-11: Created."
Version: 001.000
DefaultBaseFilename: LCD
ItalicAngle: 0
UnderlinePosition: -102
UnderlineWidth: 51
Ascent: 819
Descent: 205
InvalidEm: 0
LayerCount: 2
Layer: 0 0 "Back" 1
Layer: 1 0 "Fore" 0
XUID: [1021 460 718380175 1812177]
FSType: 0
OS2Version: 0
OS2_WeightWidthSlopeOnly: 0
OS2_UseTypoMetrics: 1
CreationTime: 1184168798
ModificationTime: 1688762610
PfmFamily: 17
TTFWeight: 500
TTFWidth: 5
LineGap: 92
VLineGap: 92
OS2TypoAscent: 0
OS2TypoAOffset: 1
OS2TypoDescent: 0
OS2TypoDOffset: 1
OS2TypoLinegap: 92
OS2WinAscent: 0
OS2WinAOffset: 1
OS2WinDescent: 0

StartChar: A
Encoding: 65 65 0
Width: 512
Flags: HW
HStem: 362 58<117.5 232.5 296.5 411.5> 728 58<117.5 408.5>
VStem: 46 58<58 349 428 719> 418 58<61 353 428 719>
LayerCount: 2
UndoRedoHistory
Layer: 1
Undoes
UndoOperation
Index: 0
Type: 1
WasModified: 0
WasOrder2: 0
Layer: 2
Width: 512
VWidth: 1024
LBearingChange: 0
UnicodeEnc: 0
InstructionsLength: 0
SplineSet
68.5 750 m 5
 98.5 719 l 5
 98.5 428 l 5
 70.5 399 l 5
 41.5 428 l 5
 41.5 722 l 5
 68.5 750 l 5
68.5 379 m 5
 98.5 349 l 5
 98.5 58 l 5
 70.5 29 l 5
 41.5 58 l 5
 41.5 351 l 5
 68.5 379 l 5
82.5 390 m 5
 112.5 420 l 5
 226.5 420 l 5
 255.5 391 l 5
 226.5 362 l 5
 109.5 362 l 5
 82.5 390 l 5
440.5 750 m 5
 470.5 719 l 5
 470.5 428 l 5
 441.5 399 l 5
 412.5 428 l 5
 412.5 722 l 5
 440.5 750 l 5
440.5 383 m 5
 470.5 353 l 5
 470.5 61 l 5
 441.5 33 l 5
 412.5 61 l 5
 412.5 355 l 5
 440.5 383 l 5
261.5 390 m 5
 291.5 420 l 5
 405.5 420 l 5
 434.5 391 l 5
 405.5 362 l 5
 288.5 362 l 5
 261.5 390 l 5
82.5 756 m 5
 112.5 786 l 5
 226.5 786 l 5
 255.5 757 l 5
 226.5 728 l 5
 109.5 728 l 5
 82.5 756 l 5
261.5 756 m 5
 291.5 786 l 5
 405.5 786 l 5
 434.5 757 l 5
 405.5 728 l 5
 288.5 728 l 5
 261.5 756 l 5
EndSplineSet
EndUndoOperation
UndoOperation
Index: 1
Type: 1
WasModified: 0
WasOrder2: 0
Layer: 2
Width: 512
VWidth: 1024
LBearingChange: 0
UnicodeEnc: 0
InstructionsLength: 0
EndUndoOperation
UndoOperation
Index: 2
Type: 3
WasModified: 0
WasOrder2: 0
Layer: 2
EndUndoOperation
EndUndoes
Redoes
EndRedoes
EndUndoRedoHistory
Fore
SplineSet
68 750 m 5
 98 719 l 5
 98 428 l 5
 70 399 l 5
 42 428 l 5
 42 722 l 5
 68 750 l 5
68 379 m 5
 98 349 l 5
 98 58 l 5
 70 29 l 5
 42 58 l 5
 42 351 l 5
 68 379 l 5
82 390 m 5
 112 420 l 5
 226 420 l 5
 256 391 l 5
 226 362 l 5
 110 362 l 5
 82 390 l 5
440 750 m 5
 470 719 l 5
 470 428 l 5
 442 399 l 5
 412 428 l 5
 412 722 l 5
 440 750 l 5
440 383 m 5
 470 353 l 5
 470 61 l 5
 442 33 l 5
 412 61 l 5
 412 355 l 5
 440 383 l 5
262 390 m 5
 292 420 l 5
 406 420 l 5
 434 391 l 5
 406 362 l 5
 288 362 l 5
 262 390 l 5
82 756 m 5
 112 786 l 5
 226 786 l 5
 256 757 l 5
 226 728 l 5
 110 728 l 5
 82 756 l 5
262 756 m 5
 292 786 l 5
 406 786 l 5
 434 757 l 5
 406 728 l 5
 288 728 l 5
 262 756 l 5
EndSplineSet
Validated: 1
EndChar

StartChar: b
Encoding: 98 98 1
Width: 512
Flags: HW
HStem: -1 58<148 440> 362 58<148 263 327 442> 728 58<53 76 148 440>
VStem: 77 58<58 349 428 719> 449 58<61 353 428 719>
LayerCount: 2
UndoRedoHistory
Layer: 1
Undoes
UndoOperation
Index: 0
Type: 1
WasModified: 0
WasOrder2: 0
Layer: 2
Width: 512
VWidth: 1024
LBearingChange: 0
UnicodeEnc: 0
InstructionsLength: 0
SplineSet
96 752.180664062 m 5
 126 721.180664062 l 5
 126 430.180664062 l 5
 98 401.180664062 l 5
 69 430.180664062 l 5
 69 724.180664062 l 5
 96 752.180664062 l 5
96 381.180664062 m 5
 126 351.180664062 l 5
 126 60.1806640625 l 5
 98 31.1806640625 l 5
 69 60.1806640625 l 5
 69 353.180664062 l 5
 96 381.180664062 l 5
110 392.180664062 m 5
 140 422.180664062 l 5
 254 422.180664062 l 5
 283 393.180664062 l 5
 254 364.180664062 l 5
 137 364.180664062 l 5
 110 392.180664062 l 5
468 752.180664062 m 5
 498 721.180664062 l 5
 498 430.180664062 l 5
 469 401.180664062 l 5
 440 430.180664062 l 5
 440 724.180664062 l 5
 468 752.180664062 l 5
468 385.180664062 m 5
 498 355.180664062 l 5
 498 63.1806640625 l 5
 469 35.1806640625 l 5
 440 63.1806640625 l 5
 440 357.180664062 l 5
 468 385.180664062 l 5
14 758.180664062 m 5
 44 788.180664062 l 5
 68 788.180664062 l 5
 96 759.180664062 l 5
 68 730.180664062 l 5
 42 730.180664062 l 5
 14 758.180664062 l 5
14 24.1806640625 m 5
 44 54.1806640625 l 5
 68 54.1806640625 l 5
 96 25.1806640625 l 5
 68 -2.8193359375 l 5
 42 -2.8193359375 l 5
 14 24.1806640625 l 5
289 392.180664062 m 5
 319 422.180664062 l 5
 433 422.180664062 l 5
 462 393.180664062 l 5
 433 364.180664062 l 5
 316 364.180664062 l 5
 289 392.180664062 l 5
110 758.180664062 m 5
 140 788.180664062 l 5
 254 788.180664062 l 5
 283 759.180664062 l 5
 254 730.180664062 l 5
 137 730.180664062 l 5
 110 758.180664062 l 5
289 758.180664062 m 5
 319 788.180664062 l 5
 433 788.180664062 l 5
 462 759.180664062 l 5
 433 730.180664062 l 5
 316 730.180664062 l 5
 289 758.180664062 l 5
110 28 m 5
 140 58 l 5
 254 58 l 5
 283 29 l 5
 254 0 l 5
 137 0 l 5
 110 28 l 5
289 28 m 5
 319 58 l 5
 433 58 l 5
 462 29 l 5
 433 0 l 5
 316 0 l 5
 289 28 l 5
EndSplineSet
EndUndoOperation
UndoOperation
Index: 1
Type: 1
WasModified: 0
WasOrder2: 0
Layer: 2
Width: 512
VWidth: 1024
LBearingChange: 0
UnicodeEnc: 0
InstructionsLength: 0
EndUndoOperation
UndoOperation
Index: 2
Type: 3
WasModified: 0
WasOrder2: 0
Layer: 2
EndUndoOperation
EndUndoes
Redoes
EndRedoes
EndUndoRedoHistory
Fore
SplineSet
96 752 m 5
 126 721 l 5
 126 430 l 5
 98 401 l 5
 69 430 l 5
 69 724 l 5
 96 752 l 5
96 381 m 5
 126 351 l 5
 126 60 l 5
 98 31 l 5
 69 60 l 5
 69 353 l 5
 96 381 l 5
110 392 m 5
 140 422 l 5
 254 422 l 5
 283 393 l 5
 254 364 l 5
 137 364 l 5
 110 392 l 5
468 752 m 5
 498 721 l 5
 498 430 l 5
 469 401 l 5
 440 430 l 5
 440 724 l 5
 468 752 l 5
468 385 m 5
 498 355 l 5
 498 63 l 5
 469 35 l 5
 440 63 l 5
 440 357 l 5
 468 385 l 5
14 758 m 5
 44 788 l 5
 68 788 l 5
 96 759 l 5
 68 730 l 5
 42 730 l 5
 14 758 l 5
14 24 m 5
 44 54 l 5
 68 54 l 5
 96 25 l 5
 68 -3 l 5
 42 -3 l 5
 14 24 l 5
289 392 m 5
 319 422 l 5
 433 422 l 5
 462 393 l 5
 433 364 l 5
 316 364 l 5
 289 392 l 5
110 758 m 5
 140 788 l 5
 254 788 l 5
 283 759 l 5
 254 730 l 5
 137 730 l 5
 110 758 l 5
289 758 m 5
 319 788 l 5
 433 788 l 5
 462 759 l 5
 433 730 l 5
 316 730 l 5
 289 758 l 5
110 28 m 5
 140 58 l 5
 254 58 l 5
 283 29 l 5
 254 0 l 5
 137 0 l 5
 110 28 l 5
289 28 m 5
 319 58 l 5
 433 58 l 5
 462 29 l 5
 433 0 l 5
 316 0 l 5
 289 28 l 5
EndSplineSet
Validated: 1
EndChar

StartChar: uni0001
Encoding: 1 1 2
Width: 512
Flags: HW
HStem: -18 61<132.5 442.5> 369 61<132.5 254.5 322.5 444.5> 758 61<30.5 55.5 132.5 442.5>
VStem: 56 61<45 355 439 749> 258 61<81 349 439 708> 452 61<49 358 439 749>
LayerCount: 2
UndoRedoHistory
Layer: 1
Undoes
UndoOperation
Index: 0
Type: 1
WasModified: 0
WasOrder2: 0
Layer: 2
Width: 512
VWidth: 1024
LBearingChange: 0
UnicodeEnc: 0
InstructionsLength: 0
SplineSet
286.5 381 m 29
 318.5 349 l 29
 318.5 81 l 29
 287.5 50 l 29
 257.5 81 l 29
 257.5 352 l 29
 286.5 381 l 29
286.5 740 m 29
 318.5 708 l 29
 318.5 439 l 29
 287.5 409 l 29
 257.5 439 l 29
 257.5 710 l 29
 286.5 740 l 29
290.5 398 m 29
 322.5 430 l 29
 444.5 430 l 29
 475.5 399 l 29
 444.5 369 l 29
 320.5 369 l 29
 290.5 398 l 29
-1.5 7 m 29
 30.5 39 l 29
 55.5 39 l 29
 86.5 8 l 29
 55.5 -23 l 29
 28.5 -23 l 29
 -1.5 7 l 29
-1.5 787 m 29
 30.5 819 l 29
 55.5 819 l 29
 86.5 788 l 29
 55.5 758 l 29
 28.5 758 l 29
 -1.5 787 l 29
124.5 56 m 29
 124.5 102 l 29
 206.5 358 l 29
 249.5 358 l 29
 249.5 315 l 29
 165.5 56 l 29
 124.5 56 l 29
323.5 358 m 29
 323.5 313 l 29
 402.5 56 l 29
 446.5 56 l 29
 446.5 100 l 29
 365.5 358 l 29
 323.5 358 l 29
124.5 748 m 29
 124.5 702 l 29
 206.5 445 l 29
 249.5 445 l 29
 249.5 489 l 29
 165.5 748 l 29
 124.5 748 l 29
324.5 445 m 29
 324.5 491 l 29
 402.5 748 l 29
 446.5 748 l 29
 446.5 704 l 29
 365.5 445 l 29
 324.5 445 l 29
481.5 390 m 29
 513.5 358 l 29
 513.5 49 l 29
 483.5 18 l 29
 452.5 49 l 29
 452.5 361 l 29
 481.5 390 l 29
481.5 781 m 29
 513.5 749 l 29
 513.5 439 l 29
 483.5 408 l 29
 452.5 439 l 29
 452.5 751 l 29
 481.5 781 l 29
100.5 12 m 29
 132.5 44 l 29
 442.5 44 l 29
 472.5 13 l 29
 442.5 -18 l 29
 129.5 -18 l 29
 100.5 12 l 29
100.5 398 m 29
 132.5 430 l 29
 254.5 430 l 29
 284.5 399 l 29
 254.5 369 l 29
 129.5 369 l 29
 100.5 398 l 29
86.5 387 m 29
 118.5 355 l 29
 118.5 45 l 29
 87.5 14 l 29
 56.5 45 l 29
 56.5 357 l 29
 86.5 387 l 29
86.5 781 m 29
 118.5 749 l 29
 118.5 439 l 29
 87.5 408 l 29
 56.5 439 l 29
 56.5 751 l 29
 86.5 781 l 29
100.5 787 m 29
 132.5 819 l 29
 442.5 819 l 29
 472.5 788 l 29
 442.5 758 l 29
 129.5 758 l 29
 100.5 787 l 29
EndSplineSet
EndUndoOperation
UndoOperation
Index: 1
Type: 1
WasModified: 1
WasOrder2: 0
Layer: 2
Width: 512
VWidth: 1024
LBearingChange: 0
UnicodeEnc: 0
InstructionsLength: 0
EndUndoOperation
UndoOperation
Index: 2
Type: 3
WasModified: 1
WasOrder2: 0
Layer: 2
EndUndoOperation
EndUndoes
Redoes
EndRedoes
EndUndoRedoHistory
Fore
SplineSet
286 381 m 29
 319 349 l 29
 319 81 l 29
 288 50 l 29
 258 81 l 29
 258 352 l 29
 286 381 l 29
286 740 m 29
 319 708 l 29
 319 439 l 29
 288 409 l 29
 258 439 l 29
 258 710 l 29
 286 740 l 29
290 398 m 29
 322 430 l 29
 444 430 l 29
 476 399 l 29
 444 369 l 29
 320 369 l 29
 290 398 l 29
-2 7 m 29
 30 39 l 29
 56 39 l 29
 86 8 l 29
 56 -23 l 29
 28 -23 l 29
 -2 7 l 29
-2 787 m 29
 30 819 l 29
 56 819 l 29
 86 788 l 29
 56 758 l 29
 28 758 l 29
 -2 787 l 29
124 56 m 29
 124 102 l 29
 206 358 l 29
 250 358 l 29
 250 315 l 29
 166 56 l 29
 124 56 l 29
324 358 m 29
 324 313 l 29
 402 56 l 29
 446 56 l 29
 446 100 l 29
 366 358 l 29
 324 358 l 29
124 748 m 29
 124 702 l 29
 206 445 l 29
 250 445 l 29
 250 489 l 29
 166 748 l 29
 124 748 l 29
324 445 m 29
 324 491 l 29
 402 748 l 29
 446 748 l 29
 446 704 l 29
 366 445 l 29
 324 445 l 29
482 390 m 29
 513 358 l 29
 513 49 l 29
 484 18 l 29
 452 49 l 29
 452 361 l 29
 482 390 l 29
482 781 m 29
 513 749 l 29
 513 439 l 29
 484 408 l 29
 452 439 l 29
 452 751 l 29
 482 781 l 29
100 12 m 29
 132 44 l 29
 442 44 l 29
 472 13 l 29
 442 -18 l 29
 130 -18 l 29
 100 12 l 29
100 398 m 29
 132 430 l 29
 254 430 l 29
 284 399 l 29
 254 369 l 29
 130 369 l 29
 100 398 l 29
86 387 m 29
 118 355 l 29
 118 45 l 29
 88 14 l 29
 56 45 l 29
 56 357 l 29
 86 387 l 29
86 781 m 29
 118 749 l 29
 118 439 l 29
 88 408 l 29
 56 439 l 29
 56 751 l 29
 86 781 l 29
100 787 m 29
 132 819 l 29
 442 819 l 29
 472 788 l 29
 442 758 l 29
 130 758 l 29
 100 787 l 29
EndSplineSet
Validated: 9
EndChar

StartChar: uni0002
Encoding: 2 2 3
Width: 512
Flags: HW
HStem: -1 58<140 431> 362 58<140 254 319 433> 728 58<44 68 140 431>
VStem: 69 58<58 349 428 719> 257 58<92 344 429 681> 440 58<61 353 428 719>
LayerCount: 2
UndoRedoHistory
Layer: 1
Undoes
UndoOperation
Index: 0
Type: 1
WasModified: 0
WasOrder2: 0
Layer: 2
Width: 512
VWidth: 1024
LBearingChange: 0
UnicodeEnc: 0
InstructionsLength: 0
SplineSet
285 374 m 29
 315 344 l 29
 315 92 l 29
 286 63 l 29
 257 92 l 29
 257 346 l 29
 285 374 l 29
285 711 m 29
 315 681 l 29
 315 429 l 29
 286 400 l 29
 257 429 l 29
 257 683 l 29
 285 711 l 29
289 390 m 29
 319 420 l 29
 433 420 l 29
 462 391 l 29
 433 362 l 29
 316 362 l 29
 289 390 l 29
14 22 m 29
 44 52 l 29
 68 52 l 29
 96 23 l 29
 68 -5 l 29
 42 -5 l 29
 14 22 l 29
14 756 m 29
 44 786 l 29
 68 786 l 29
 96 757 l 29
 68 728 l 29
 42 728 l 29
 14 756 l 29
132 69 m 29
 132 111 l 29
 209 353 l 29
 250 353 l 29
 250 312 l 29
 171 69 l 29
 132 69 l 29
320 353 m 29
 320 310 l 29
 394 69 l 29
 435 69 l 29
 435 109 l 29
 359 353 l 29
 320 353 l 29
132 718 m 29
 132 676 l 29
 209 434 l 29
 250 434 l 29
 250 475 l 29
 171 718 l 29
 132 718 l 29
320 434 m 29
 320 477 l 29
 394 718 l 29
 435 718 l 29
 435 677 l 29
 359 434 l 29
 320 434 l 29
468 383 m 29
 498 353 l 29
 498 61 l 29
 469 33 l 29
 440 61 l 29
 440 355 l 29
 468 383 l 29
468 750 m 29
 498 719 l 29
 498 428 l 29
 469 399 l 29
 440 428 l 29
 440 722 l 29
 468 750 l 29
110 27 m 29
 140 57 l 29
 431 57 l 29
 460 28 l 29
 431 -1 l 29
 137 -1 l 29
 110 27 l 29
110 390 m 29
 140 420 l 29
 254 420 l 29
 283 391 l 29
 254 362 l 29
 137 362 l 29
 110 390 l 29
96 379 m 29
 126 349 l 29
 126 58 l 29
 98 29 l 29
 69 58 l 29
 69 351 l 29
 96 379 l 29
96 750 m 29
 126 719 l 29
 126 428 l 29
 98 399 l 29
 69 428 l 29
 69 722 l 29
 96 750 l 29
110 756 m 29
 140 786 l 29
 431 786 l 29
 460 757 l 29
 431 728 l 29
 137 728 l 29
 110 756 l 29
EndSplineSet
EndUndoOperation
UndoOperation
Index: 1
Type: 1
WasModified: 1
WasOrder2: 0
Layer: 2
Width: 512
VWidth: 1024
LBearingChange: 0
UnicodeEnc: 0
InstructionsLength: 0
EndUndoOperation
UndoOperation
Index: 2
Type: 3
WasModified: 1
WasOrder2: 0
Layer: 2
EndUndoOperation
EndUndoes
Redoes
EndRedoes
EndUndoRedoHistory
Fore
SplineSet
285 374 m 29
 315 344 l 29
 315 92 l 29
 286 63 l 29
 257 92 l 29
 257 346 l 29
 285 374 l 29
285 711 m 29
 315 681 l 29
 315 429 l 29
 286 400 l 29
 257 429 l 29
 257 683 l 29
 285 711 l 29
289 390 m 29
 319 420 l 29
 433 420 l 29
 462 391 l 29
 433 362 l 29
 316 362 l 29
 289 390 l 29
14 22 m 29
 44 52 l 29
 68 52 l 29
 96 23 l 29
 68 -5 l 29
 42 -5 l 29
 14 22 l 29
14 756 m 29
 44 786 l 29
 68 786 l 29
 96 757 l 29
 68 728 l 29
 42 728 l 29
 14 756 l 29
132 69 m 29
 132 111 l 29
 209 353 l 29
 250 353 l 29
 250 312 l 29
 171 69 l 29
 132 69 l 29
320 353 m 29
 320 310 l 29
 394 69 l 29
 435 69 l 29
 435 109 l 29
 359 353 l 29
 320 353 l 29
132 718 m 29
 132 676 l 29
 209 434 l 29
 250 434 l 29
 250 475 l 29
 171 718 l 29
 132 718 l 29
320 434 m 29
 320 477 l 29
 394 718 l 29
 435 718 l 29
 435 677 l 29
 359 434 l 29
 320 434 l 29
468 383 m 29
 498 353 l 29
 498 61 l 29
 469 33 l 29
 440 61 l 29
 440 355 l 29
 468 383 l 29
468 750 m 29
 498 719 l 29
 498 428 l 29
 469 399 l 29
 440 428 l 29
 440 722 l 29
 468 750 l 29
110 27 m 29
 140 57 l 29
 431 57 l 29
 460 28 l 29
 431 -1 l 29
 137 -1 l 29
 110 27 l 29
110 390 m 29
 140 420 l 29
 254 420 l 29
 283 391 l 29
 254 362 l 29
 137 362 l 29
 110 390 l 29
96 379 m 29
 126 349 l 29
 126 58 l 29
 98 29 l 29
 69 58 l 29
 69 351 l 29
 96 379 l 29
96 750 m 29
 126 719 l 29
 126 428 l 29
 98 399 l 29
 69 428 l 29
 69 722 l 29
 96 750 l 29
110 756 m 29
 140 786 l 29
 431 786 l 29
 460 757 l 29
 431 728 l 29
 137 728 l 29
 110 756 l 29
EndSplineSet
Validated: 9
EndChar

StartChar: B
Encoding: 66 66 4
Width: 512
Flags: HW
HStem: -1 58<148 440> 362 58<148 263 327 442> 728 58<53 76 148 440>
VStem: 77 58<58 349 428 719> 449 58<61 353 428 719>
LayerCount: 2
UndoRedoHistory
Layer: 1
Undoes
UndoOperation
Index: 0
Type: 1
WasModified: 0
WasOrder2: 0
Layer: 2
Width: 512
VWidth: 1024
LBearingChange: 0
UnicodeEnc: 0
InstructionsLength: 0
SplineSet
96 752.180664062 m 5
 126 721.180664062 l 5
 126 430.180664062 l 5
 98 401.180664062 l 5
 69 430.180664062 l 5
 69 724.180664062 l 5
 96 752.180664062 l 5
96 381.180664062 m 5
 126 351.180664062 l 5
 126 60.1806640625 l 5
 98 31.1806640625 l 5
 69 60.1806640625 l 5
 69 353.180664062 l 5
 96 381.180664062 l 5
110 392.180664062 m 5
 140 422.180664062 l 5
 254 422.180664062 l 5
 283 393.180664062 l 5
 254 364.180664062 l 5
 137 364.180664062 l 5
 110 392.180664062 l 5
468 752.180664062 m 5
 498 721.180664062 l 5
 498 430.180664062 l 5
 469 401.180664062 l 5
 440 430.180664062 l 5
 440 724.180664062 l 5
 468 752.180664062 l 5
468 385.180664062 m 5
 498 355.180664062 l 5
 498 63.1806640625 l 5
 469 35.1806640625 l 5
 440 63.1806640625 l 5
 440 357.180664062 l 5
 468 385.180664062 l 5
14 758.180664062 m 5
 44 788.180664062 l 5
 68 788.180664062 l 5
 96 759.180664062 l 5
 68 730.180664062 l 5
 42 730.180664062 l 5
 14 758.180664062 l 5
14 24.1806640625 m 5
 44 54.1806640625 l 5
 68 54.1806640625 l 5
 96 25.1806640625 l 5
 68 -2.8193359375 l 5
 42 -2.8193359375 l 5
 14 24.1806640625 l 5
289 392.180664062 m 5
 319 422.180664062 l 5
 433 422.180664062 l 5
 462 393.180664062 l 5
 433 364.180664062 l 5
 316 364.180664062 l 5
 289 392.180664062 l 5
110 758.180664062 m 5
 140 788.180664062 l 5
 254 788.180664062 l 5
 283 759.180664062 l 5
 254 730.180664062 l 5
 137 730.180664062 l 5
 110 758.180664062 l 5
289 758.180664062 m 5
 319 788.180664062 l 5
 433 788.180664062 l 5
 462 759.180664062 l 5
 433 730.180664062 l 5
 316 730.180664062 l 5
 289 758.180664062 l 5
110 28 m 5
 140 58 l 5
 254 58 l 5
 283 29 l 5
 254 0 l 5
 137 0 l 5
 110 28 l 5
289 28 m 5
 319 58 l 5
 433 58 l 5
 462 29 l 5
 433 0 l 5
 316 0 l 5
 289 28 l 5
EndSplineSet
EndUndoOperation
UndoOperation
Index: 1
Type: 1
WasModified: 0
WasOrder2: 0
Layer: 2
Width: 512
VWidth: 1024
LBearingChange: 0
UnicodeEnc: 0
InstructionsLength: 0
EndUndoOperation
UndoOperation
Index: 2
Type: 3
WasModified: 0
WasOrder2: 0
Layer: 2
EndUndoOperation
EndUndoes
Redoes
EndRedoes
EndUndoRedoHistory
Fore
SplineSet
96 752 m 5
 126 721 l 5
 126 430 l 5
 98 401 l 5
 69 430 l 5
 69 724 l 5
 96 752 l 5
96 381 m 5
 126 351 l 5
 126 60 l 5
 98 31 l 5
 69 60 l 5
 69 353 l 5
 96 381 l 5
110 392 m 5
 140 422 l 5
 254 422 l 5
 283 393 l 5
 254 364 l 5
 137 364 l 5
 110 392 l 5
468 752 m 5
 498 721 l 5
 498 430 l 5
 469 401 l 5
 440 430 l 5
 440 724 l 5
 468 752 l 5
468 385 m 5
 498 355 l 5
 498 63 l 5
 469 35 l 5
 440 63 l 5
 440 357 l 5
 468 385 l 5
14 758 m 5
 44 788 l 5
 68 788 l 5
 96 759 l 5
 68 730 l 5
 42 730 l 5
 14 758 l 5
14 24 m 5
 44 54 l 5
 68 54 l 5
 96 25 l 5
 68 -3 l 5
 42 -3 l 5
 14 24 l 5
289 392 m 5
 319 422 l 5
 433 422 l 5
 462 393 l 5
 433 364 l 5
 316 364 l 5
 289 392 l 5
110 758 m 5
 140 788 l 5
 254 788 l 5
 283 759 l 5
 254 730 l 5
 137 730 l 5
 110 758 l 5
289 758 m 5
 319 788 l 5
 433 788 l 5
 462 759 l 5
 433 730 l 5
 316 730 l 5
 289 758 l 5
110 28 m 5
 140 58 l 5
 254 58 l 5
 283 29 l 5
 254 0 l 5
 137 0 l 5
 110 28 l 5
289 28 m 5
 319 58 l 5
 433 58 l 5
 462 29 l 5
 433 0 l 5
 316 0 l 5
 289 28 l 5
EndSplineSet
Validated: 1
EndChar

StartChar: C
Encoding: 67 67 5
Width: 512
Flags: HW
HStem: -1 58<127 418> 728 58<127 418>
VStem: 56 58<58 349 428 719>
LayerCount: 2
UndoRedoHistory
Layer: 1
Undoes
UndoOperation
Index: 0
Type: 1
WasModified: 0
WasOrder2: 0
Layer: 2
Width: 512
VWidth: 1024
LBearingChange: 0
UnicodeEnc: 0
InstructionsLength: 0
SplineSet
86.5 752.180664062 m 5
 116.5 721.180664062 l 5
 116.5 430.180664062 l 5
 88.5 401.180664062 l 5
 59.5 430.180664062 l 5
 59.5 724.180664062 l 5
 86.5 752.180664062 l 5
86.5 381.180664062 m 5
 116.5 351.180664062 l 5
 116.5 60.1806640625 l 5
 88.5 31.1806640625 l 5
 59.5 60.1806640625 l 5
 59.5 353.180664062 l 5
 86.5 381.180664062 l 5
100.5 758.180664062 m 5
 130.5 788.180664062 l 5
 244.5 788.180664062 l 5
 273.5 759.180664062 l 5
 244.5 730.180664062 l 5
 127.5 730.180664062 l 5
 100.5 758.180664062 l 5
279.5 758.180664062 m 5
 309.5 788.180664062 l 5
 423.5 788.180664062 l 5
 452.5 759.180664062 l 5
 423.5 730.180664062 l 5
 306.5 730.180664062 l 5
 279.5 758.180664062 l 5
100.5 28 m 5
 130.5 58 l 5
 244.5 58 l 5
 273.5 29 l 5
 244.5 0 l 5
 127.5 0 l 5
 100.5 28 l 5
279.5 28 m 5
 309.5 58 l 5
 423.5 58 l 5
 452.5 29 l 5
 423.5 0 l 5
 306.5 0 l 5
 279.5 28 l 5
EndSplineSet
EndUndoOperation
UndoOperation
Index: 1
Type: 1
WasModified: 0
WasOrder2: 0
Layer: 2
Width: 512
VWidth: 1024
LBearingChange: 0
UnicodeEnc: 0
InstructionsLength: 0
EndUndoOperation
UndoOperation
Index: 2
Type: 3
WasModified: 0
WasOrder2: 0
Layer: 2
EndUndoOperation
EndUndoes
Redoes
EndRedoes
EndUndoRedoHistory
Fore
SplineSet
86 752 m 5
 116 721 l 5
 116 430 l 5
 88 401 l 5
 60 430 l 5
 60 724 l 5
 86 752 l 5
86 381 m 5
 116 351 l 5
 116 60 l 5
 88 31 l 5
 60 60 l 5
 60 353 l 5
 86 381 l 5
100 758 m 5
 130 788 l 5
 244 788 l 5
 274 759 l 5
 244 730 l 5
 128 730 l 5
 100 758 l 5
280 758 m 5
 310 788 l 5
 424 788 l 5
 452 759 l 5
 424 730 l 5
 306 730 l 5
 280 758 l 5
100 28 m 5
 130 58 l 5
 244 58 l 5
 274 29 l 5
 244 0 l 5
 128 0 l 5
 100 28 l 5
280 28 m 5
 310 58 l 5
 424 58 l 5
 452 29 l 5
 424 0 l 5
 306 0 l 5
 280 28 l 5
EndSplineSet
Validated: 1
EndChar

StartChar: D
Encoding: 68 68 6
Width: 512
Flags: HW
HStem: -1 58<150 442> 728 58<55 78 150 442>
VStem: 79 58<58 349 428 719> 451 58<61 353 428 719>
LayerCount: 2
UndoRedoHistory
Layer: 1
Undoes
UndoOperation
Index: 0
Type: 1
WasModified: 0
WasOrder2: 0
Layer: 2
Width: 512
VWidth: 1024
LBearingChange: 0
UnicodeEnc: 0
InstructionsLength: 0
SplineSet
96 752.180664062 m 5
 126 721.180664062 l 5
 126 430.180664062 l 5
 98 401.180664062 l 5
 69 430.180664062 l 5
 69 724.180664062 l 5
 96 752.180664062 l 5
96 381.180664062 m 5
 126 351.180664062 l 5
 126 60.1806640625 l 5
 98 31.1806640625 l 5
 69 60.1806640625 l 5
 69 353.180664062 l 5
 96 381.180664062 l 5
468 752.180664062 m 5
 498 721.180664062 l 5
 498 430.180664062 l 5
 469 401.180664062 l 5
 440 430.180664062 l 5
 440 724.180664062 l 5
 468 752.180664062 l 5
468 385.180664062 m 5
 498 355.180664062 l 5
 498 63.1806640625 l 5
 469 35.1806640625 l 5
 440 63.1806640625 l 5
 440 357.180664062 l 5
 468 385.180664062 l 5
14 758.180664062 m 5
 44 788.180664062 l 5
 68 788.180664062 l 5
 96 759.180664062 l 5
 68 730.180664062 l 5
 42 730.180664062 l 5
 14 758.180664062 l 5
14 24.1806640625 m 5
 44 54.1806640625 l 5
 68 54.1806640625 l 5
 96 25.1806640625 l 5
 68 -2.8193359375 l 5
 42 -2.8193359375 l 5
 14 24.1806640625 l 5
110 758.180664062 m 5
 140 788.180664062 l 5
 254 788.180664062 l 5
 283 759.180664062 l 5
 254 730.180664062 l 5
 137 730.180664062 l 5
 110 758.180664062 l 5
289 758.180664062 m 5
 319 788.180664062 l 5
 433 788.180664062 l 5
 462 759.180664062 l 5
 433 730.180664062 l 5
 316 730.180664062 l 5
 289 758.180664062 l 5
110 28 m 5
 140 58 l 5
 254 58 l 5
 283 29 l 5
 254 0 l 5
 137 0 l 5
 110 28 l 5
289 28 m 5
 319 58 l 5
 433 58 l 5
 462 29 l 5
 433 0 l 5
 316 0 l 5
 289 28 l 5
EndSplineSet
EndUndoOperation
UndoOperation
Index: 1
Type: 1
WasModified: 0
WasOrder2: 0
Layer: 2
Width: 512
VWidth: 1024
LBearingChange: 0
UnicodeEnc: 0
InstructionsLength: 0
EndUndoOperation
UndoOperation
Index: 2
Type: 3
WasModified: 0
WasOrder2: 0
Layer: 2
EndUndoOperation
EndUndoes
Redoes
EndRedoes
EndUndoRedoHistory
Fore
SplineSet
96 752 m 5
 126 721 l 5
 126 430 l 5
 98 401 l 5
 69 430 l 5
 69 724 l 5
 96 752 l 5
96 381 m 5
 126 351 l 5
 126 60 l 5
 98 31 l 5
 69 60 l 5
 69 353 l 5
 96 381 l 5
468 752 m 5
 498 721 l 5
 498 430 l 5
 469 401 l 5
 440 430 l 5
 440 724 l 5
 468 752 l 5
468 385 m 5
 498 355 l 5
 498 63 l 5
 469 35 l 5
 440 63 l 5
 440 357 l 5
 468 385 l 5
14 758 m 5
 44 788 l 5
 68 788 l 5
 96 759 l 5
 68 730 l 5
 42 730 l 5
 14 758 l 5
14 24 m 5
 44 54 l 5
 68 54 l 5
 96 25 l 5
 68 -3 l 5
 42 -3 l 5
 14 24 l 5
110 758 m 5
 140 788 l 5
 254 788 l 5
 283 759 l 5
 254 730 l 5
 137 730 l 5
 110 758 l 5
289 758 m 5
 319 788 l 5
 433 788 l 5
 462 759 l 5
 433 730 l 5
 316 730 l 5
 289 758 l 5
110 28 m 5
 140 58 l 5
 254 58 l 5
 283 29 l 5
 254 0 l 5
 137 0 l 5
 110 28 l 5
289 28 m 5
 319 58 l 5
 433 58 l 5
 462 29 l 5
 433 0 l 5
 316 0 l 5
 289 28 l 5
EndSplineSet
Validated: 1
EndChar

StartChar: E
Encoding: 69 69 7
Width: 512
Flags: HW
HStem: -1 58<139.5 430.5> 362 58<139.5 254.5 318.5 433.5> 728 58<139.5 430.5>
VStem: 68 58<58 349 428 719>
LayerCount: 2
UndoRedoHistory
Layer: 1
Undoes
UndoOperation
Index: 0
Type: 1
WasModified: 0
WasOrder2: 0
Layer: 2
Width: 512
VWidth: 1024
LBearingChange: 0
UnicodeEnc: 0
InstructionsLength: 0
SplineSet
86.5 752.180664062 m 5
 116.5 721.180664062 l 5
 116.5 430.180664062 l 5
 88.5 401.180664062 l 5
 59.5 430.180664062 l 5
 59.5 724.180664062 l 5
 86.5 752.180664062 l 5
86.5 381.180664062 m 5
 116.5 351.180664062 l 5
 116.5 60.1806640625 l 5
 88.5 31.1806640625 l 5
 59.5 60.1806640625 l 5
 59.5 353.180664062 l 5
 86.5 381.180664062 l 5
100.5 392.180664062 m 5
 130.5 422.180664062 l 5
 244.5 422.180664062 l 5
 273.5 393.180664062 l 5
 244.5 364.180664062 l 5
 127.5 364.180664062 l 5
 100.5 392.180664062 l 5
279.5 392.180664062 m 5
 309.5 422.180664062 l 5
 423.5 422.180664062 l 5
 452.5 393.180664062 l 5
 423.5 364.180664062 l 5
 306.5 364.180664062 l 5
 279.5 392.180664062 l 5
100.5 758.180664062 m 5
 130.5 788.180664062 l 5
 244.5 788.180664062 l 5
 273.5 759.180664062 l 5
 244.5 730.180664062 l 5
 127.5 730.180664062 l 5
 100.5 758.180664062 l 5
279.5 758.180664062 m 5
 309.5 788.180664062 l 5
 423.5 788.180664062 l 5
 452.5 759.180664062 l 5
 423.5 730.180664062 l 5
 306.5 730.180664062 l 5
 279.5 758.180664062 l 5
100.5 28 m 5
 130.5 58 l 5
 244.5 58 l 5
 273.5 29 l 5
 244.5 0 l 5
 127.5 0 l 5
 100.5 28 l 5
279.5 28 m 5
 309.5 58 l 5
 423.5 58 l 5
 452.5 29 l 5
 423.5 0 l 5
 306.5 0 l 5
 279.5 28 l 5
EndSplineSet
EndUndoOperation
UndoOperation
Index: 1
Type: 1
WasModified: 0
WasOrder2: 0
Layer: 2
Width: 512
VWidth: 1024
LBearingChange: 0
UnicodeEnc: 0
InstructionsLength: 0
EndUndoOperation
UndoOperation
Index: 2
Type: 3
WasModified: 0
WasOrder2: 0
Layer: 2
EndUndoOperation
EndUndoes
Redoes
EndRedoes
EndUndoRedoHistory
Fore
SplineSet
86 752 m 5
 116 721 l 5
 116 430 l 5
 88 401 l 5
 60 430 l 5
 60 724 l 5
 86 752 l 5
86 381 m 5
 116 351 l 5
 116 60 l 5
 88 31 l 5
 60 60 l 5
 60 353 l 5
 86 381 l 5
100 392 m 5
 130 422 l 5
 244 422 l 5
 274 393 l 5
 244 364 l 5
 128 364 l 5
 100 392 l 5
280 392 m 5
 310 422 l 5
 424 422 l 5
 452 393 l 5
 424 364 l 5
 306 364 l 5
 280 392 l 5
100 758 m 5
 130 788 l 5
 244 788 l 5
 274 759 l 5
 244 730 l 5
 128 730 l 5
 100 758 l 5
280 758 m 5
 310 788 l 5
 424 788 l 5
 452 759 l 5
 424 730 l 5
 306 730 l 5
 280 758 l 5
100 28 m 5
 130 58 l 5
 244 58 l 5
 274 29 l 5
 244 0 l 5
 128 0 l 5
 100 28 l 5
280 28 m 5
 310 58 l 5
 424 58 l 5
 452 29 l 5
 424 0 l 5
 306 0 l 5
 280 28 l 5
EndSplineSet
Validated: 1
EndChar

StartChar: F
Encoding: 70 70 8
Width: 512
Flags: HW
HStem: 362 58<116.5 231.5 295.5 410.5> 728 58<116.5 407.5>
VStem: 46 58<58 349 428 719>
LayerCount: 2
UndoRedoHistory
Layer: 1
Undoes
UndoOperation
Index: 0
Type: 1
WasModified: 0
WasOrder2: 0
Layer: 2
Width: 512
VWidth: 1024
LBearingChange: 0
UnicodeEnc: 0
InstructionsLength: 0
SplineSet
86.5 721 m 5
 116.5 690 l 5
 116.5 399 l 5
 88.5 370 l 5
 59.5 399 l 5
 59.5 693 l 5
 86.5 721 l 5
86.5 350 m 5
 116.5 320 l 5
 116.5 29 l 5
 88.5 0 l 5
 59.5 29 l 5
 59.5 322 l 5
 86.5 350 l 5
100.5 361 m 5
 130.5 391 l 5
 244.5 391 l 5
 273.5 362 l 5
 244.5 333 l 5
 127.5 333 l 5
 100.5 361 l 5
279.5 361 m 5
 309.5 391 l 5
 423.5 391 l 5
 452.5 362 l 5
 423.5 333 l 5
 306.5 333 l 5
 279.5 361 l 5
100.5 727 m 5
 130.5 757 l 5
 244.5 757 l 5
 273.5 728 l 5
 244.5 699 l 5
 127.5 699 l 5
 100.5 727 l 5
279.5 727 m 5
 309.5 757 l 5
 423.5 757 l 5
 452.5 728 l 5
 423.5 699 l 5
 306.5 699 l 5
 279.5 727 l 5
EndSplineSet
EndUndoOperation
UndoOperation
Index: 1
Type: 1
WasModified: 0
WasOrder2: 0
Layer: 2
Width: 512
VWidth: 1024
LBearingChange: 0
UnicodeEnc: 0
InstructionsLength: 0
EndUndoOperation
UndoOperation
Index: 2
Type: 3
WasModified: 0
WasOrder2: 0
Layer: 2
EndUndoOperation
EndUndoes
Redoes
EndRedoes
EndUndoRedoHistory
Fore
SplineSet
86 721 m 5
 116 690 l 5
 116 399 l 5
 88 370 l 5
 60 399 l 5
 60 693 l 5
 86 721 l 5
86 350 m 5
 116 320 l 5
 116 29 l 5
 88 0 l 5
 60 29 l 5
 60 322 l 5
 86 350 l 5
100 361 m 5
 130 391 l 5
 244 391 l 5
 274 362 l 5
 244 333 l 5
 128 333 l 5
 100 361 l 5
280 361 m 5
 310 391 l 5
 424 391 l 5
 452 362 l 5
 424 333 l 5
 306 333 l 5
 280 361 l 5
100 727 m 5
 130 757 l 5
 244 757 l 5
 274 728 l 5
 244 699 l 5
 128 699 l 5
 100 727 l 5
280 727 m 5
 310 757 l 5
 424 757 l 5
 452 728 l 5
 424 699 l 5
 306 699 l 5
 280 727 l 5
EndSplineSet
Validated: 1
EndChar

StartChar: G
Encoding: 71 71 9
Width: 512
Flags: HW
HStem: -1 58<123.5 414.5> 362 58<302.5 417.5> 728 58<123.5 414.5>
VStem: 52 58<58 349 428 719> 424 58<61 353>
LayerCount: 2
UndoRedoHistory
Layer: 1
Undoes
UndoOperation
Index: 0
Type: 1
WasModified: 0
WasOrder2: 0
Layer: 2
Width: 512
VWidth: 1024
LBearingChange: 0
UnicodeEnc: 0
InstructionsLength: 0
SplineSet
68.5 752.180664062 m 5
 98.5 721.180664062 l 5
 98.5 430.180664062 l 5
 70.5 401.180664062 l 5
 41.5 430.180664062 l 5
 41.5 724.180664062 l 5
 68.5 752.180664062 l 5
68.5 381.180664062 m 5
 98.5 351.180664062 l 5
 98.5 60.1806640625 l 5
 70.5 31.1806640625 l 5
 41.5 60.1806640625 l 5
 41.5 353.180664062 l 5
 68.5 381.180664062 l 5
440.5 385.180664062 m 5
 470.5 355.180664062 l 5
 470.5 63.1806640625 l 5
 441.5 35.1806640625 l 5
 412.5 63.1806640625 l 5
 412.5 357.180664062 l 5
 440.5 385.180664062 l 5
261.5 392.180664062 m 5
 291.5 422.180664062 l 5
 405.5 422.180664062 l 5
 434.5 393.180664062 l 5
 405.5 364.180664062 l 5
 288.5 364.180664062 l 5
 261.5 392.180664062 l 5
82.5 758.180664062 m 5
 112.5 788.180664062 l 5
 226.5 788.180664062 l 5
 255.5 759.180664062 l 5
 226.5 730.180664062 l 5
 109.5 730.180664062 l 5
 82.5 758.180664062 l 5
261.5 758.180664062 m 5
 291.5 788.180664062 l 5
 405.5 788.180664062 l 5
 434.5 759.180664062 l 5
 405.5 730.180664062 l 5
 288.5 730.180664062 l 5
 261.5 758.180664062 l 5
82.5 28 m 5
 112.5 58 l 5
 226.5 58 l 5
 255.5 29 l 5
 226.5 0 l 5
 109.5 0 l 5
 82.5 28 l 5
261.5 28 m 5
 291.5 58 l 5
 405.5 58 l 5
 434.5 29 l 5
 405.5 0 l 5
 288.5 0 l 5
 261.5 28 l 5
EndSplineSet
EndUndoOperation
UndoOperation
Index: 1
Type: 1
WasModified: 0
WasOrder2: 0
Layer: 2
Width: 512
VWidth: 1024
LBearingChange: 0
UnicodeEnc: 0
InstructionsLength: 0
EndUndoOperation
UndoOperation
Index: 2
Type: 3
WasModified: 0
WasOrder2: 0
Layer: 2
EndUndoOperation
EndUndoes
Redoes
EndRedoes
EndUndoRedoHistory
Fore
SplineSet
68 752 m 5
 98 721 l 5
 98 430 l 5
 70 401 l 5
 42 430 l 5
 42 724 l 5
 68 752 l 5
68 381 m 5
 98 351 l 5
 98 60 l 5
 70 31 l 5
 42 60 l 5
 42 353 l 5
 68 381 l 5
440 385 m 5
 470 355 l 5
 470 63 l 5
 442 35 l 5
 412 63 l 5
 412 357 l 5
 440 385 l 5
262 392 m 5
 292 422 l 5
 406 422 l 5
 434 393 l 5
 406 364 l 5
 288 364 l 5
 262 392 l 5
82 758 m 5
 112 788 l 5
 226 788 l 5
 256 759 l 5
 226 730 l 5
 110 730 l 5
 82 758 l 5
262 758 m 5
 292 788 l 5
 406 788 l 5
 434 759 l 5
 406 730 l 5
 288 730 l 5
 262 758 l 5
82 28 m 5
 112 58 l 5
 226 58 l 5
 256 29 l 5
 226 0 l 5
 110 0 l 5
 82 28 l 5
262 28 m 5
 292 58 l 5
 406 58 l 5
 434 29 l 5
 406 0 l 5
 288 0 l 5
 262 28 l 5
EndSplineSet
Validated: 1
EndChar

StartChar: a
Encoding: 97 97 10
Width: 512
Flags: HW
HStem: 362 58<117.5 232.5 296.5 411.5> 728 58<117.5 408.5>
VStem: 46 58<58 349 428 719> 418 58<61 353 428 719>
LayerCount: 2
UndoRedoHistory
Layer: 1
Undoes
UndoOperation
Index: 0
Type: 1
WasModified: 0
WasOrder2: 0
Layer: 2
Width: 512
VWidth: 1024
LBearingChange: 0
UnicodeEnc: 0
InstructionsLength: 0
SplineSet
68.5 750 m 5
 98.5 719 l 5
 98.5 428 l 5
 70.5 399 l 5
 41.5 428 l 5
 41.5 722 l 5
 68.5 750 l 5
68.5 379 m 5
 98.5 349 l 5
 98.5 58 l 5
 70.5 29 l 5
 41.5 58 l 5
 41.5 351 l 5
 68.5 379 l 5
82.5 390 m 5
 112.5 420 l 5
 226.5 420 l 5
 255.5 391 l 5
 226.5 362 l 5
 109.5 362 l 5
 82.5 390 l 5
440.5 750 m 5
 470.5 719 l 5
 470.5 428 l 5
 441.5 399 l 5
 412.5 428 l 5
 412.5 722 l 5
 440.5 750 l 5
440.5 383 m 5
 470.5 353 l 5
 470.5 61 l 5
 441.5 33 l 5
 412.5 61 l 5
 412.5 355 l 5
 440.5 383 l 5
261.5 390 m 5
 291.5 420 l 5
 405.5 420 l 5
 434.5 391 l 5
 405.5 362 l 5
 288.5 362 l 5
 261.5 390 l 5
82.5 756 m 5
 112.5 786 l 5
 226.5 786 l 5
 255.5 757 l 5
 226.5 728 l 5
 109.5 728 l 5
 82.5 756 l 5
261.5 756 m 5
 291.5 786 l 5
 405.5 786 l 5
 434.5 757 l 5
 405.5 728 l 5
 288.5 728 l 5
 261.5 756 l 5
EndSplineSet
EndUndoOperation
UndoOperation
Index: 1
Type: 1
WasModified: 0
WasOrder2: 0
Layer: 2
Width: 512
VWidth: 1024
LBearingChange: 0
UnicodeEnc: 0
InstructionsLength: 0
EndUndoOperation
UndoOperation
Index: 2
Type: 3
WasModified: 0
WasOrder2: 0
Layer: 2
EndUndoOperation
EndUndoes
Redoes
EndRedoes
EndUndoRedoHistory
Fore
SplineSet
68 750 m 5
 98 719 l 5
 98 428 l 5
 70 399 l 5
 42 428 l 5
 42 722 l 5
 68 750 l 5
68 379 m 5
 98 349 l 5
 98 58 l 5
 70 29 l 5
 42 58 l 5
 42 351 l 5
 68 379 l 5
82 390 m 5
 112 420 l 5
 226 420 l 5
 256 391 l 5
 226 362 l 5
 110 362 l 5
 82 390 l 5
440 750 m 5
 470 719 l 5
 470 428 l 5
 442 399 l 5
 412 428 l 5
 412 722 l 5
 440 750 l 5
440 383 m 5
 470 353 l 5
 470 61 l 5
 442 33 l 5
 412 61 l 5
 412 355 l 5
 440 383 l 5
262 390 m 5
 292 420 l 5
 406 420 l 5
 434 391 l 5
 406 362 l 5
 288 362 l 5
 262 390 l 5
82 756 m 5
 112 786 l 5
 226 786 l 5
 256 757 l 5
 226 728 l 5
 110 728 l 5
 82 756 l 5
262 756 m 5
 292 786 l 5
 406 786 l 5
 434 757 l 5
 406 728 l 5
 288 728 l 5
 262 756 l 5
EndSplineSet
Validated: 1
EndChar

StartChar: c
Encoding: 99 99 11
Width: 512
Flags: HW
HStem: -1 58<127 418> 728 58<127 418>
VStem: 56 58<58 349 428 719>
LayerCount: 2
UndoRedoHistory
Layer: 1
Undoes
UndoOperation
Index: 0
Type: 1
WasModified: 0
WasOrder2: 0
Layer: 2
Width: 512
VWidth: 1024
LBearingChange: 0
UnicodeEnc: 0
InstructionsLength: 0
SplineSet
86.5 752.180664062 m 5
 116.5 721.180664062 l 5
 116.5 430.180664062 l 5
 88.5 401.180664062 l 5
 59.5 430.180664062 l 5
 59.5 724.180664062 l 5
 86.5 752.180664062 l 5
86.5 381.180664062 m 5
 116.5 351.180664062 l 5
 116.5 60.1806640625 l 5
 88.5 31.1806640625 l 5
 59.5 60.1806640625 l 5
 59.5 353.180664062 l 5
 86.5 381.180664062 l 5
100.5 758.180664062 m 5
 130.5 788.180664062 l 5
 244.5 788.180664062 l 5
 273.5 759.180664062 l 5
 244.5 730.180664062 l 5
 127.5 730.180664062 l 5
 100.5 758.180664062 l 5
279.5 758.180664062 m 5
 309.5 788.180664062 l 5
 423.5 788.180664062 l 5
 452.5 759.180664062 l 5
 423.5 730.180664062 l 5
 306.5 730.180664062 l 5
 279.5 758.180664062 l 5
100.5 28 m 5
 130.5 58 l 5
 244.5 58 l 5
 273.5 29 l 5
 244.5 0 l 5
 127.5 0 l 5
 100.5 28 l 5
279.5 28 m 5
 309.5 58 l 5
 423.5 58 l 5
 452.5 29 l 5
 423.5 0 l 5
 306.5 0 l 5
 279.5 28 l 5
EndSplineSet
EndUndoOperation
UndoOperation
Index: 1
Type: 1
WasModified: 0
WasOrder2: 0
Layer: 2
Width: 512
VWidth: 1024
LBearingChange: 0
UnicodeEnc: 0
InstructionsLength: 0
EndUndoOperation
UndoOperation
Index: 2
Type: 3
WasModified: 0
WasOrder2: 0
Layer: 2
EndUndoOperation
EndUndoes
Redoes
EndRedoes
EndUndoRedoHistory
Fore
SplineSet
86 752 m 5
 116 721 l 5
 116 430 l 5
 88 401 l 5
 60 430 l 5
 60 724 l 5
 86 752 l 5
86 381 m 5
 116 351 l 5
 116 60 l 5
 88 31 l 5
 60 60 l 5
 60 353 l 5
 86 381 l 5
100 758 m 5
 130 788 l 5
 244 788 l 5
 274 759 l 5
 244 730 l 5
 128 730 l 5
 100 758 l 5
280 758 m 5
 310 788 l 5
 424 788 l 5
 452 759 l 5
 424 730 l 5
 306 730 l 5
 280 758 l 5
100 28 m 5
 130 58 l 5
 244 58 l 5
 274 29 l 5
 244 0 l 5
 128 0 l 5
 100 28 l 5
280 28 m 5
 310 58 l 5
 424 58 l 5
 452 29 l 5
 424 0 l 5
 306 0 l 5
 280 28 l 5
EndSplineSet
Validated: 1
EndChar

StartChar: d
Encoding: 100 100 12
Width: 512
Flags: HW
HStem: -1 58<150 442> 728 58<55 78 150 442>
VStem: 79 58<58 349 428 719> 451 58<61 353 428 719>
LayerCount: 2
UndoRedoHistory
Layer: 1
Undoes
UndoOperation
Index: 0
Type: 1
WasModified: 0
WasOrder2: 0
Layer: 2
Width: 512
VWidth: 1024
LBearingChange: 0
UnicodeEnc: 0
InstructionsLength: 0
SplineSet
96 752.180664062 m 5
 126 721.180664062 l 5
 126 430.180664062 l 5
 98 401.180664062 l 5
 69 430.180664062 l 5
 69 724.180664062 l 5
 96 752.180664062 l 5
96 381.180664062 m 5
 126 351.180664062 l 5
 126 60.1806640625 l 5
 98 31.1806640625 l 5
 69 60.1806640625 l 5
 69 353.180664062 l 5
 96 381.180664062 l 5
468 752.180664062 m 5
 498 721.180664062 l 5
 498 430.180664062 l 5
 469 401.180664062 l 5
 440 430.180664062 l 5
 440 724.180664062 l 5
 468 752.180664062 l 5
468 385.180664062 m 5
 498 355.180664062 l 5
 498 63.1806640625 l 5
 469 35.1806640625 l 5
 440 63.1806640625 l 5
 440 357.180664062 l 5
 468 385.180664062 l 5
14 758.180664062 m 5
 44 788.180664062 l 5
 68 788.180664062 l 5
 96 759.180664062 l 5
 68 730.180664062 l 5
 42 730.180664062 l 5
 14 758.180664062 l 5
14 24.1806640625 m 5
 44 54.1806640625 l 5
 68 54.1806640625 l 5
 96 25.1806640625 l 5
 68 -2.8193359375 l 5
 42 -2.8193359375 l 5
 14 24.1806640625 l 5
110 758.180664062 m 5
 140 788.180664062 l 5
 254 788.180664062 l 5
 283 759.180664062 l 5
 254 730.180664062 l 5
 137 730.180664062 l 5
 110 758.180664062 l 5
289 758.180664062 m 5
 319 788.180664062 l 5
 433 788.180664062 l 5
 462 759.180664062 l 5
 433 730.180664062 l 5
 316 730.180664062 l 5
 289 758.180664062 l 5
110 28 m 5
 140 58 l 5
 254 58 l 5
 283 29 l 5
 254 0 l 5
 137 0 l 5
 110 28 l 5
289 28 m 5
 319 58 l 5
 433 58 l 5
 462 29 l 5
 433 0 l 5
 316 0 l 5
 289 28 l 5
EndSplineSet
EndUndoOperation
UndoOperation
Index: 1
Type: 1
WasModified: 0
WasOrder2: 0
Layer: 2
Width: 512
VWidth: 1024
LBearingChange: 0
UnicodeEnc: 0
InstructionsLength: 0
EndUndoOperation
UndoOperation
Index: 2
Type: 3
WasModified: 0
WasOrder2: 0
Layer: 2
EndUndoOperation
EndUndoes
Redoes
EndRedoes
EndUndoRedoHistory
Fore
SplineSet
96 752 m 5
 126 721 l 5
 126 430 l 5
 98 401 l 5
 69 430 l 5
 69 724 l 5
 96 752 l 5
96 381 m 5
 126 351 l 5
 126 60 l 5
 98 31 l 5
 69 60 l 5
 69 353 l 5
 96 381 l 5
468 752 m 5
 498 721 l 5
 498 430 l 5
 469 401 l 5
 440 430 l 5
 440 724 l 5
 468 752 l 5
468 385 m 5
 498 355 l 5
 498 63 l 5
 469 35 l 5
 440 63 l 5
 440 357 l 5
 468 385 l 5
14 758 m 5
 44 788 l 5
 68 788 l 5
 96 759 l 5
 68 730 l 5
 42 730 l 5
 14 758 l 5
14 24 m 5
 44 54 l 5
 68 54 l 5
 96 25 l 5
 68 -3 l 5
 42 -3 l 5
 14 24 l 5
110 758 m 5
 140 788 l 5
 254 788 l 5
 283 759 l 5
 254 730 l 5
 137 730 l 5
 110 758 l 5
289 758 m 5
 319 788 l 5
 433 788 l 5
 462 759 l 5
 433 730 l 5
 316 730 l 5
 289 758 l 5
110 28 m 5
 140 58 l 5
 254 58 l 5
 283 29 l 5
 254 0 l 5
 137 0 l 5
 110 28 l 5
289 28 m 5
 319 58 l 5
 433 58 l 5
 462 29 l 5
 433 0 l 5
 316 0 l 5
 289 28 l 5
EndSplineSet
Validated: 1
EndChar

StartChar: e
Encoding: 101 101 13
Width: 512
Flags: HW
HStem: -1 58<139.5 430.5> 362 58<139.5 254.5 318.5 433.5> 728 58<139.5 430.5>
VStem: 68 58<58 349 428 719>
LayerCount: 2
UndoRedoHistory
Layer: 1
Undoes
UndoOperation
Index: 0
Type: 1
WasModified: 0
WasOrder2: 0
Layer: 2
Width: 512
VWidth: 1024
LBearingChange: 0
UnicodeEnc: 0
InstructionsLength: 0
SplineSet
86.5 752.180664062 m 5
 116.5 721.180664062 l 5
 116.5 430.180664062 l 5
 88.5 401.180664062 l 5
 59.5 430.180664062 l 5
 59.5 724.180664062 l 5
 86.5 752.180664062 l 5
86.5 381.180664062 m 5
 116.5 351.180664062 l 5
 116.5 60.1806640625 l 5
 88.5 31.1806640625 l 5
 59.5 60.1806640625 l 5
 59.5 353.180664062 l 5
 86.5 381.180664062 l 5
100.5 392.180664062 m 5
 130.5 422.180664062 l 5
 244.5 422.180664062 l 5
 273.5 393.180664062 l 5
 244.5 364.180664062 l 5
 127.5 364.180664062 l 5
 100.5 392.180664062 l 5
279.5 392.180664062 m 5
 309.5 422.180664062 l 5
 423.5 422.180664062 l 5
 452.5 393.180664062 l 5
 423.5 364.180664062 l 5
 306.5 364.180664062 l 5
 279.5 392.180664062 l 5
100.5 758.180664062 m 5
 130.5 788.180664062 l 5
 244.5 788.180664062 l 5
 273.5 759.180664062 l 5
 244.5 730.180664062 l 5
 127.5 730.180664062 l 5
 100.5 758.180664062 l 5
279.5 758.180664062 m 5
 309.5 788.180664062 l 5
 423.5 788.180664062 l 5
 452.5 759.180664062 l 5
 423.5 730.180664062 l 5
 306.5 730.180664062 l 5
 279.5 758.180664062 l 5
100.5 28 m 5
 130.5 58 l 5
 244.5 58 l 5
 273.5 29 l 5
 244.5 0 l 5
 127.5 0 l 5
 100.5 28 l 5
279.5 28 m 5
 309.5 58 l 5
 423.5 58 l 5
 452.5 29 l 5
 423.5 0 l 5
 306.5 0 l 5
 279.5 28 l 5
EndSplineSet
EndUndoOperation
UndoOperation
Index: 1
Type: 1
WasModified: 0
WasOrder2: 0
Layer: 2
Width: 512
VWidth: 1024
LBearingChange: 0
UnicodeEnc: 0
InstructionsLength: 0
EndUndoOperation
UndoOperation
Index: 2
Type: 3
WasModified: 0
WasOrder2: 0
Layer: 2
EndUndoOperation
EndUndoes
Redoes
EndRedoes
EndUndoRedoHistory
Fore
SplineSet
86 752 m 5
 116 721 l 5
 116 430 l 5
 88 401 l 5
 60 430 l 5
 60 724 l 5
 86 752 l 5
86 381 m 5
 116 351 l 5
 116 60 l 5
 88 31 l 5
 60 60 l 5
 60 353 l 5
 86 381 l 5
100 392 m 5
 130 422 l 5
 244 422 l 5
 274 393 l 5
 244 364 l 5
 128 364 l 5
 100 392 l 5
280 392 m 5
 310 422 l 5
 424 422 l 5
 452 393 l 5
 424 364 l 5
 306 364 l 5
 280 392 l 5
100 758 m 5
 130 788 l 5
 244 788 l 5
 274 759 l 5
 244 730 l 5
 128 730 l 5
 100 758 l 5
280 758 m 5
 310 788 l 5
 424 788 l 5
 452 759 l 5
 424 730 l 5
 306 730 l 5
 280 758 l 5
100 28 m 5
 130 58 l 5
 244 58 l 5
 274 29 l 5
 244 0 l 5
 128 0 l 5
 100 28 l 5
280 28 m 5
 310 58 l 5
 424 58 l 5
 452 29 l 5
 424 0 l 5
 306 0 l 5
 280 28 l 5
EndSplineSet
Validated: 1
EndChar

StartChar: f
Encoding: 102 102 14
Width: 512
Flags: HW
HStem: 362 58<116.5 231.5 295.5 410.5> 728 58<116.5 407.5>
VStem: 46 58<58 349 428 719>
LayerCount: 2
UndoRedoHistory
Layer: 1
Undoes
UndoOperation
Index: 0
Type: 1
WasModified: 0
WasOrder2: 0
Layer: 2
Width: 512
VWidth: 1024
LBearingChange: 0
UnicodeEnc: 0
InstructionsLength: 0
SplineSet
86.5 721 m 5
 116.5 690 l 5
 116.5 399 l 5
 88.5 370 l 5
 59.5 399 l 5
 59.5 693 l 5
 86.5 721 l 5
86.5 350 m 5
 116.5 320 l 5
 116.5 29 l 5
 88.5 0 l 5
 59.5 29 l 5
 59.5 322 l 5
 86.5 350 l 5
100.5 361 m 5
 130.5 391 l 5
 244.5 391 l 5
 273.5 362 l 5
 244.5 333 l 5
 127.5 333 l 5
 100.5 361 l 5
279.5 361 m 5
 309.5 391 l 5
 423.5 391 l 5
 452.5 362 l 5
 423.5 333 l 5
 306.5 333 l 5
 279.5 361 l 5
100.5 727 m 5
 130.5 757 l 5
 244.5 757 l 5
 273.5 728 l 5
 244.5 699 l 5
 127.5 699 l 5
 100.5 727 l 5
279.5 727 m 5
 309.5 757 l 5
 423.5 757 l 5
 452.5 728 l 5
 423.5 699 l 5
 306.5 699 l 5
 279.5 727 l 5
EndSplineSet
EndUndoOperation
UndoOperation
Index: 1
Type: 1
WasModified: 0
WasOrder2: 0
Layer: 2
Width: 512
VWidth: 1024
LBearingChange: 0
UnicodeEnc: 0
InstructionsLength: 0
EndUndoOperation
UndoOperation
Index: 2
Type: 3
WasModified: 0
WasOrder2: 0
Layer: 2
EndUndoOperation
EndUndoes
Redoes
EndRedoes
EndUndoRedoHistory
Fore
SplineSet
86 721 m 5
 116 690 l 5
 116 399 l 5
 88 370 l 5
 60 399 l 5
 60 693 l 5
 86 721 l 5
86 350 m 5
 116 320 l 5
 116 29 l 5
 88 0 l 5
 60 29 l 5
 60 322 l 5
 86 350 l 5
100 361 m 5
 130 391 l 5
 244 391 l 5
 274 362 l 5
 244 333 l 5
 128 333 l 5
 100 361 l 5
280 361 m 5
 310 391 l 5
 424 391 l 5
 452 362 l 5
 424 333 l 5
 306 333 l 5
 280 361 l 5
100 727 m 5
 130 757 l 5
 244 757 l 5
 274 728 l 5
 244 699 l 5
 128 699 l 5
 100 727 l 5
280 727 m 5
 310 757 l 5
 424 757 l 5
 452 728 l 5
 424 699 l 5
 306 699 l 5
 280 727 l 5
EndSplineSet
Validated: 1
EndChar

StartChar: g
Encoding: 103 103 15
Width: 512
Flags: HW
HStem: -1 58<123.5 414.5> 362 58<302.5 417.5> 728 58<123.5 414.5>
VStem: 52 58<58 349 428 719> 424 58<61 353>
LayerCount: 2
UndoRedoHistory
Layer: 1
Undoes
UndoOperation
Index: 0
Type: 1
WasModified: 0
WasOrder2: 0
Layer: 2
Width: 512
VWidth: 1024
LBearingChange: 0
UnicodeEnc: 0
InstructionsLength: 0
SplineSet
68.5 752.180664062 m 5
 98.5 721.180664062 l 5
 98.5 430.180664062 l 5
 70.5 401.180664062 l 5
 41.5 430.180664062 l 5
 41.5 724.180664062 l 5
 68.5 752.180664062 l 5
68.5 381.180664062 m 5
 98.5 351.180664062 l 5
 98.5 60.1806640625 l 5
 70.5 31.1806640625 l 5
 41.5 60.1806640625 l 5
 41.5 353.180664062 l 5
 68.5 381.180664062 l 5
440.5 385.180664062 m 5
 470.5 355.180664062 l 5
 470.5 63.1806640625 l 5
 441.5 35.1806640625 l 5
 412.5 63.1806640625 l 5
 412.5 357.180664062 l 5
 440.5 385.180664062 l 5
261.5 392.180664062 m 5
 291.5 422.180664062 l 5
 405.5 422.180664062 l 5
 434.5 393.180664062 l 5
 405.5 364.180664062 l 5
 288.5 364.180664062 l 5
 261.5 392.180664062 l 5
82.5 758.180664062 m 5
 112.5 788.180664062 l 5
 226.5 788.180664062 l 5
 255.5 759.180664062 l 5
 226.5 730.180664062 l 5
 109.5 730.180664062 l 5
 82.5 758.180664062 l 5
261.5 758.180664062 m 5
 291.5 788.180664062 l 5
 405.5 788.180664062 l 5
 434.5 759.180664062 l 5
 405.5 730.180664062 l 5
 288.5 730.180664062 l 5
 261.5 758.180664062 l 5
82.5 28 m 5
 112.5 58 l 5
 226.5 58 l 5
 255.5 29 l 5
 226.5 0 l 5
 109.5 0 l 5
 82.5 28 l 5
261.5 28 m 5
 291.5 58 l 5
 405.5 58 l 5
 434.5 29 l 5
 405.5 0 l 5
 288.5 0 l 5
 261.5 28 l 5
EndSplineSet
EndUndoOperation
UndoOperation
Index: 1
Type: 1
WasModified: 0
WasOrder2: 0
Layer: 2
Width: 512
VWidth: 1024
LBearingChange: 0
UnicodeEnc: 0
InstructionsLength: 0
EndUndoOperation
UndoOperation
Index: 2
Type: 3
WasModified: 0
WasOrder2: 0
Layer: 2
EndUndoOperation
EndUndoes
Redoes
EndRedoes
EndUndoRedoHistory
Fore
SplineSet
68 752 m 5
 98 721 l 5
 98 430 l 5
 70 401 l 5
 42 430 l 5
 42 724 l 5
 68 752 l 5
68 381 m 5
 98 351 l 5
 98 60 l 5
 70 31 l 5
 42 60 l 5
 42 353 l 5
 68 381 l 5
440 385 m 5
 470 355 l 5
 470 63 l 5
 442 35 l 5
 412 63 l 5
 412 357 l 5
 440 385 l 5
262 392 m 5
 292 422 l 5
 406 422 l 5
 434 393 l 5
 406 364 l 5
 288 364 l 5
 262 392 l 5
82 758 m 5
 112 788 l 5
 226 788 l 5
 256 759 l 5
 226 730 l 5
 110 730 l 5
 82 758 l 5
262 758 m 5
 292 788 l 5
 406 788 l 5
 434 759 l 5
 406 730 l 5
 288 730 l 5
 262 758 l 5
82 28 m 5
 112 58 l 5
 226 58 l 5
 256 29 l 5
 226 0 l 5
 110 0 l 5
 82 28 l 5
262 28 m 5
 292 58 l 5
 406 58 l 5
 434 29 l 5
 406 0 l 5
 288 0 l 5
 262 28 l 5
EndSplineSet
Validated: 1
EndChar

StartChar: H
Encoding: 72 72 16
Width: 512
Flags: HW
LayerCount: 2
UndoRedoHistory
Layer: 1
Undoes
UndoOperation
Index: 0
Type: 1
WasModified: 0
WasOrder2: 0
Layer: 2
Width: 512
VWidth: 1024
LBearingChange: 0
UnicodeEnc: 0
InstructionsLength: 0
SplineSet
68.5 750 m 5
 98.5 719 l 5
 98.5 428 l 5
 70.5 399 l 5
 41.5 428 l 5
 41.5 722 l 5
 68.5 750 l 5
68.5 379 m 5
 98.5 349 l 5
 98.5 58 l 5
 70.5 29 l 5
 41.5 58 l 5
 41.5 351 l 5
 68.5 379 l 5
82.5 390 m 5
 112.5 420 l 5
 226.5 420 l 5
 255.5 391 l 5
 226.5 362 l 5
 109.5 362 l 5
 82.5 390 l 5
440.5 750 m 5
 470.5 719 l 5
 470.5 428 l 5
 441.5 399 l 5
 412.5 428 l 5
 412.5 722 l 5
 440.5 750 l 5
440.5 383 m 5
 470.5 353 l 5
 470.5 61 l 5
 441.5 33 l 5
 412.5 61 l 5
 412.5 355 l 5
 440.5 383 l 5
261.5 390 m 5
 291.5 420 l 5
 405.5 420 l 5
 434.5 391 l 5
 405.5 362 l 5
 288.5 362 l 5
 261.5 390 l 5
EndSplineSet
EndUndoOperation
UndoOperation
Index: 1
Type: 1
WasModified: 1
WasOrder2: 0
Layer: 2
Width: 512
VWidth: 1024
LBearingChange: 0
UnicodeEnc: 0
InstructionsLength: 0
EndUndoOperation
UndoOperation
Index: 2
Type: 1
WasModified: 1
WasOrder2: 0
Layer: 2
Width: 512
VWidth: 1024
LBearingChange: 0
UnicodeEnc: 0
InstructionsLength: 0
SplineSet
68.5 751 m 5
 98.5 720 l 5
 98.5 429 l 5
 70.5 400 l 5
 41.5 429 l 5
 41.5 723 l 5
 68.5 751 l 5
68.5 380 m 5
 98.5 350 l 5
 98.5 59 l 5
 70.5 30 l 5
 41.5 59 l 5
 41.5 352 l 5
 68.5 380 l 5
82.5 391 m 5
 112.5 421 l 5
 226.5 421 l 5
 255.5 392 l 5
 226.5 363 l 5
 109.5 363 l 5
 82.5 391 l 5
440.5 751 m 5
 470.5 720 l 5
 470.5 429 l 5
 441.5 400 l 5
 412.5 429 l 5
 412.5 723 l 5
 440.5 751 l 5
440.5 384 m 5
 470.5 354 l 5
 470.5 62 l 5
 441.5 34 l 5
 412.5 62 l 5
 412.5 356 l 5
 440.5 384 l 5
261.5 391 m 5
 291.5 421 l 5
 405.5 421 l 5
 434.5 392 l 5
 405.5 363 l 5
 288.5 363 l 5
 261.5 391 l 5
EndSplineSet
EndUndoOperation
EndUndoes
Redoes
EndRedoes
EndUndoRedoHistory
Fore
SplineSet
68 750 m 5
 98 719 l 5
 98 428 l 5
 70 399 l 5
 42 428 l 5
 42 722 l 5
 68 750 l 5
68 379 m 5
 98 349 l 5
 98 58 l 5
 70 29 l 5
 42 58 l 5
 42 351 l 5
 68 379 l 5
82 390 m 5
 112 420 l 5
 226 420 l 5
 256 391 l 5
 226 362 l 5
 110 362 l 5
 82 390 l 5
440 750 m 5
 470 719 l 5
 470 428 l 5
 442 399 l 5
 412 428 l 5
 412 722 l 5
 440 750 l 5
440 383 m 5
 470 353 l 5
 470 61 l 5
 442 33 l 5
 412 61 l 5
 412 355 l 5
 440 383 l 5
262 390 m 5
 292 420 l 5
 406 420 l 5
 434 391 l 5
 406 362 l 5
 288 362 l 5
 262 390 l 5
EndSplineSet
Validated: 1
EndChar

StartChar: uni0003
Encoding: 3 3 18
Width: 512
Flags: HW
LayerCount: 2
UndoRedoHistory
Layer: 1
Undoes
UndoOperation
Index: 0
Type: 1
WasModified: 0
WasOrder2: 0
Layer: 2
Width: 512
VWidth: 1024
LBearingChange: 0
UnicodeEnc: 0
InstructionsLength: 0
SplineSet
96 752.180664062 m 1
 126 721.180664062 l 1
 126 430.180664062 l 1
 98 401.180664062 l 1
 69 430.180664062 l 1
 69 724.180664062 l 1
 96 752.180664062 l 1
96 381.180664062 m 1
 126 351.180664062 l 1
 126 60.1806640625 l 1
 98 31.1806640625 l 1
 69 60.1806640625 l 1
 69 353.180664062 l 1
 96 381.180664062 l 1
110 392.180664062 m 1
 140 422.180664062 l 1
 254 422.180664062 l 1
 283 393.180664062 l 1
 254 364.180664062 l 1
 137 364.180664062 l 1
 110 392.180664062 l 1
468 752.180664062 m 1
 498 721.180664062 l 1
 498 430.180664062 l 1
 469 401.180664062 l 1
 440 430.180664062 l 1
 440 724.180664062 l 1
 468 752.180664062 l 1
468 385.180664062 m 1
 498 355.180664062 l 1
 498 63.1806640625 l 1
 469 35.1806640625 l 1
 440 63.1806640625 l 1
 440 357.180664062 l 1
 468 385.180664062 l 1
320 436.180664062 m 1
 320 479.180664062 l 1
 394 720.180664062 l 1
 435 720.180664062 l 1
 435 679.180664062 l 1
 359 436.180664062 l 1
 320 436.180664062 l 1
132 720.180664062 m 1
 171 720.180664062 l 1
 250 477.180664062 l 1
 250 436.180664062 l 1
 209 436.180664062 l 1
 132 678.180664062 l 1
 132 720.180664062 l 1
320 355.180664062 m 1
 359 355.180664062 l 1
 435 111.180664062 l 1
 435 71.1806640625 l 1
 394 71.1806640625 l 1
 320 312.180664062 l 1
 320 355.180664062 l 1
132 71.1806640625 m 1
 132 113.180664062 l 1
 209 355.180664062 l 1
 250 355.180664062 l 1
 250 314.180664062 l 1
 171 71.1806640625 l 1
 132 71.1806640625 l 1
14 758.180664062 m 1
 44 788.180664062 l 1
 68 788.180664062 l 1
 96 759.180664062 l 1
 68 730.180664062 l 1
 42 730.180664062 l 1
 14 758.180664062 l 1
14 24.1806640625 m 1
 44 54.1806640625 l 1
 68 54.1806640625 l 1
 96 25.1806640625 l 1
 68 -2.8193359375 l 1
 42 -2.8193359375 l 1
 14 24.1806640625 l 1
289 392.180664062 m 1
 319 422.180664062 l 1
 433 422.180664062 l 1
 462 393.180664062 l 1
 433 364.180664062 l 1
 316 364.180664062 l 1
 289 392.180664062 l 1
285 713.180664062 m 1
 315 683.180664062 l 1
 315 431.180664062 l 1
 286 402.180664062 l 1
 257 431.180664062 l 1
 257 685.180664062 l 1
 285 713.180664062 l 1
285 376.180664062 m 1
 315 346.180664062 l 1
 315 94.1806640625 l 1
 286 65.1806640625 l 1
 257 94.1806640625 l 1
 257 348.180664062 l 1
 285 376.180664062 l 1
110 758.180664062 m 1
 140 788.180664062 l 1
 254 788.180664062 l 1
 283 759.180664062 l 1
 254 730.180664062 l 1
 137 730.180664062 l 1
 110 758.180664062 l 1
289 758.180664062 m 1
 319 788.180664062 l 1
 433 788.180664062 l 1
 462 759.180664062 l 1
 433 730.180664062 l 1
 316 730.180664062 l 1
 289 758.180664062 l 1
110 28 m 1
 140 58 l 1
 254 58 l 1
 283 29 l 1
 254 0 l 1
 137 0 l 1
 110 28 l 1
289 28 m 1
 319 58 l 1
 433 58 l 1
 462 29 l 1
 433 0 l 1
 316 0 l 1
 289 28 l 1
EndSplineSet
EndUndoOperation
UndoOperation
Index: 1
Type: 1
WasModified: 0
WasOrder2: 0
Layer: 2
Width: 512
VWidth: 1024
LBearingChange: 0
UnicodeEnc: 0
InstructionsLength: 0
EndUndoOperation
UndoOperation
Index: 2
Type: 3
WasModified: 0
WasOrder2: 0
Layer: 2
EndUndoOperation
EndUndoes
Redoes
EndRedoes
EndUndoRedoHistory
Fore
SplineSet
96 752 m 1
 126 721 l 1
 126 430 l 1
 98 401 l 1
 69 430 l 1
 69 724 l 1
 96 752 l 1
96 381 m 1
 126 351 l 1
 126 60 l 1
 98 31 l 1
 69 60 l 1
 69 353 l 1
 96 381 l 1
110 392 m 1
 140 422 l 1
 254 422 l 1
 283 393 l 1
 254 364 l 1
 137 364 l 1
 110 392 l 1
468 752 m 1
 498 721 l 1
 498 430 l 1
 469 401 l 1
 440 430 l 1
 440 724 l 1
 468 752 l 1
468 385 m 1
 498 355 l 1
 498 63 l 1
 469 35 l 1
 440 63 l 1
 440 357 l 1
 468 385 l 1
320 436 m 1
 320 479 l 1
 394 720 l 1
 435 720 l 1
 435 679 l 1
 359 436 l 1
 320 436 l 1
132 720 m 1
 171 720 l 1
 250 477 l 1
 250 436 l 1
 209 436 l 1
 132 678 l 1
 132 720 l 1
320 355 m 1
 359 355 l 1
 435 111 l 1
 435 71 l 1
 394 71 l 1
 320 312 l 1
 320 355 l 1
132 71 m 1
 132 113 l 1
 209 355 l 1
 250 355 l 1
 250 314 l 1
 171 71 l 1
 132 71 l 1
14 758 m 1
 44 788 l 1
 68 788 l 1
 96 759 l 1
 68 730 l 1
 42 730 l 1
 14 758 l 1
14 24 m 1
 44 54 l 1
 68 54 l 1
 96 25 l 1
 68 -3 l 1
 42 -3 l 1
 14 24 l 1
289 392 m 1
 319 422 l 1
 433 422 l 1
 462 393 l 1
 433 364 l 1
 316 364 l 1
 289 392 l 1
285 713 m 1
 315 683 l 1
 315 431 l 1
 286 402 l 1
 257 431 l 1
 257 685 l 1
 285 713 l 1
285 376 m 1
 315 346 l 1
 315 94 l 1
 286 65 l 1
 257 94 l 1
 257 348 l 1
 285 376 l 1
110 758 m 1
 140 788 l 1
 254 788 l 1
 283 759 l 1
 254 730 l 1
 137 730 l 1
 110 758 l 1
289 758 m 1
 319 788 l 1
 433 788 l 1
 462 759 l 1
 433 730 l 1
 316 730 l 1
 289 758 l 1
110 28 m 1
 140 58 l 1
 254 58 l 1
 283 29 l 1
 254 0 l 1
 137 0 l 1
 110 28 l 1
289 28 m 1
 319 58 l 1
 433 58 l 1
 462 29 l 1
 433 0 l 1
 316 0 l 1
 289 28 l 1
EndSplineSet
Validated: 1
EndChar

StartChar: exclam
Encoding: 33 33 48
Width: 512
Flags: HW
LayerCount: 2
UndoRedoHistory
Layer: 1
Undoes
UndoOperation
Index: 0
Type: 1
WasModified: 0
WasOrder2: 0
Layer: 2
Width: 512
VWidth: 1024
LBearingChange: 0
UnicodeEnc: 0
InstructionsLength: 0
SplineSet
215 27 m 5
 245 57 l 5
 269 57 l 5
 297 28 l 5
 269 0 l 5
 243 0 l 5
 215 27 l 5
257.166015625 716 m 5
 287.166015625 686 l 5
 287.166015625 229 l 5
 258.166015625 200 l 5
 229.166015625 229 l 5
 229.166015625 688 l 5
 257.166015625 716 l 5
EndSplineSet
EndUndoOperation
UndoOperation
Index: 1
Type: 1
WasModified: 0
WasOrder2: 0
Layer: 2
Width: 512
VWidth: 1024
LBearingChange: 0
UnicodeEnc: 0
InstructionsLength: 0
EndUndoOperation
UndoOperation
Index: 2
Type: 3
WasModified: 0
WasOrder2: 0
Layer: 2
EndUndoOperation
EndUndoes
Redoes
EndRedoes
EndUndoRedoHistory
Fore
SplineSet
215 27 m 5
 245 57 l 5
 269 57 l 5
 297 28 l 5
 269 0 l 5
 243 0 l 5
 215 27 l 5
257 716 m 5
 287 686 l 5
 287 229 l 5
 258 200 l 5
 229 229 l 5
 229 688 l 5
 257 716 l 5
EndSplineSet
Validated: 1
EndChar

StartChar: quotedbl
Encoding: 34 34 49
Width: 512
Flags: HW
LayerCount: 2
UndoRedoHistory
Layer: 1
Undoes
UndoOperation
Index: 0
Type: 1
WasModified: 0
WasOrder2: 0
Layer: 2
Width: 512
VWidth: 1024
LBearingChange: 0
UnicodeEnc: 0
InstructionsLength: 0
SplineSet
116.5 819 m 5
 146.5 788 l 5
 146.5 497 l 5
 118.5 468 l 5
 89.5 497 l 5
 89.5 791 l 5
 116.5 819 l 5
392.5 818 m 1
 422.5 787 l 1
 422.5 496 l 1
 393.5 467 l 1
 364.5 496 l 1
 364.5 790 l 1
 392.5 818 l 1
EndSplineSet
EndUndoOperation
UndoOperation
Index: 1
Type: 1
WasModified: 0
WasOrder2: 0
Layer: 2
Width: 512
VWidth: 1024
LBearingChange: 0
UnicodeEnc: 0
InstructionsLength: 0
EndUndoOperation
UndoOperation
Index: 2
Type: 3
WasModified: 0
WasOrder2: 0
Layer: 2
EndUndoOperation
EndUndoes
Redoes
EndRedoes
EndUndoRedoHistory
Fore
SplineSet
116 819 m 5
 146 788 l 5
 146 497 l 5
 118 468 l 5
 90 497 l 5
 90 791 l 5
 116 819 l 5
392 818 m 1
 422 787 l 1
 422 496 l 1
 394 467 l 1
 364 496 l 1
 364 790 l 1
 392 818 l 1
EndSplineSet
Validated: 1
EndChar

StartChar: numbersign
Encoding: 35 35 50
Width: 512
Flags: HWO
LayerCount: 2
UndoRedoHistory
Layer: 1
Undoes
UndoOperation
Index: 0
Type: 1
WasModified: 1
WasOrder2: 0
Layer: 2
Width: 512
VWidth: 1024
LBearingChange: 0
UnicodeEnc: 0
InstructionsLength: 0
SplineSet
151 420 m 1
 151 463 l 1
 225 704 l 1
 266 704 l 1
 266 663 l 1
 190 420 l 1
 151 420 l 1
54 55 m 1
 54 97 l 1
 131 339 l 1
 172 339 l 1
 172 298 l 1
 93 55 l 1
 54 55 l 1
332 420 m 1
 332 463 l 1
 406 704 l 1
 447 704 l 1
 447 663 l 1
 371 420 l 1
 332 420 l 1
224 55 m 1
 224 97 l 1
 301 339 l 1
 342 339 l 1
 342 298 l 1
 263 55 l 1
 224 55 l 1
19 559 m 1
 49 589 l 1
 146 589 l 1
 175 560 l 1
 146 531 l 1
 46 531 l 1
 19 559 l 1
13 272 m 1
 43 302 l 1
 75 302 l 1
 104 273 l 1
 75 244 l 1
 40 244 l 1
 13 272 l 1
340 273 m 1
 370 303 l 1
 470 303 l 1
 499 274 l 1
 470 245 l 1
 367 245 l 1
 340 273 l 1
416 560 m 5
 446 590 l 5
 478 590 l 5
 507 561 l 5
 478 532 l 5
 443 532 l 5
 416 560 l 5
238 559 m 1
 268 589 l 1
 329 589 l 1
 358 560 l 1
 329 531 l 1
 265 531 l 1
 238 559 l 1
168 273 m 1
 198 303 l 1
 243 303 l 1
 272 274 l 1
 243 245 l 1
 195 245 l 1
 168 273 l 1
EndSplineSet
EndUndoOperation
UndoOperation
Index: 1
Type: 1
WasModified: 1
WasOrder2: 0
Layer: 2
Width: 512
VWidth: 1024
LBearingChange: 0
UnicodeEnc: 0
InstructionsLength: 0
SplineSet
151 420 m 1
 151 463 l 1
 225 704 l 1
 266 704 l 1
 266 663 l 1
 190 420 l 1
 151 420 l 1
54 55 m 1
 54 97 l 1
 131 339 l 1
 172 339 l 1
 172 298 l 1
 93 55 l 1
 54 55 l 1
332 420 m 1
 332 463 l 1
 406 704 l 1
 447 704 l 1
 447 663 l 1
 371 420 l 1
 332 420 l 1
224 55 m 1
 224 97 l 1
 301 339 l 1
 342 339 l 1
 342 298 l 1
 263 55 l 1
 224 55 l 1
19 559 m 1
 49 589 l 1
 146 589 l 1
 175 560 l 1
 146 531 l 1
 46 531 l 1
 19 559 l 1
13 272 m 1
 43 302 l 1
 75 302 l 1
 104 273 l 1
 75 244 l 1
 40 244 l 1
 13 272 l 1
340 273 m 1
 370 303 l 1
 470 303 l 1
 499 274 l 1
 470 245 l 1
 367 245 l 1
 340 273 l 1
415 560 m 5
 445 590 l 5
 477 590 l 5
 506 561 l 5
 477 532 l 5
 442 532 l 5
 415 560 l 5
238 559 m 1
 268 589 l 1
 329 589 l 1
 358 560 l 1
 329 531 l 1
 265 531 l 1
 238 559 l 1
168 273 m 1
 198 303 l 1
 243 303 l 1
 272 274 l 1
 243 245 l 1
 195 245 l 1
 168 273 l 1
EndSplineSet
EndUndoOperation
UndoOperation
Index: 2
Type: 1
WasModified: 1
WasOrder2: 0
Layer: 2
Width: 512
VWidth: 1024
LBearingChange: 0
UnicodeEnc: 0
InstructionsLength: 0
SplineSet
151 420 m 1
 151 463 l 1
 225 704 l 1
 266 704 l 1
 266 663 l 1
 190 420 l 1
 151 420 l 1
54 55 m 1
 54 97 l 1
 131 339 l 1
 172 339 l 1
 172 298 l 1
 93 55 l 1
 54 55 l 1
332 420 m 1
 332 463 l 1
 406 704 l 1
 447 704 l 1
 447 663 l 1
 371 420 l 1
 332 420 l 1
224 55 m 1
 224 97 l 1
 301 339 l 1
 342 339 l 1
 342 298 l 1
 263 55 l 1
 224 55 l 1
19 559 m 1
 49 589 l 1
 146 589 l 1
 175 560 l 1
 146 531 l 1
 46 531 l 1
 19 559 l 1
13 272 m 1
 43 302 l 1
 75 302 l 1
 104 273 l 1
 75 244 l 1
 40 244 l 1
 13 272 l 1
340 273 m 1
 370 303 l 1
 470 303 l 1
 499 274 l 1
 470 245 l 1
 367 245 l 1
 340 273 l 1
414 560 m 5
 444 590 l 5
 476 590 l 5
 505 561 l 5
 476 532 l 5
 441 532 l 5
 414 560 l 5
238 559 m 1
 268 589 l 1
 329 589 l 1
 358 560 l 1
 329 531 l 1
 265 531 l 1
 238 559 l 1
168 273 m 1
 198 303 l 1
 243 303 l 1
 272 274 l 1
 243 245 l 1
 195 245 l 1
 168 273 l 1
EndSplineSet
EndUndoOperation
UndoOperation
Index: 3
Type: 1
WasModified: 1
WasOrder2: 0
Layer: 2
Width: 512
VWidth: 1024
LBearingChange: 0
UnicodeEnc: 0
InstructionsLength: 0
SplineSet
151 420 m 1
 151 463 l 1
 225 704 l 1
 266 704 l 1
 266 663 l 1
 190 420 l 1
 151 420 l 1
54 55 m 1
 54 97 l 1
 131 339 l 1
 172 339 l 1
 172 298 l 1
 93 55 l 1
 54 55 l 1
332 420 m 1
 332 463 l 1
 406 704 l 1
 447 704 l 1
 447 663 l 1
 371 420 l 1
 332 420 l 1
224 55 m 1
 224 97 l 1
 301 339 l 1
 342 339 l 1
 342 298 l 1
 263 55 l 1
 224 55 l 1
19 559 m 1
 49 589 l 1
 146 589 l 1
 175 560 l 1
 146 531 l 1
 46 531 l 1
 19 559 l 1
13 272 m 1
 43 302 l 1
 75 302 l 1
 104 273 l 1
 75 244 l 1
 40 244 l 1
 13 272 l 1
340 273 m 1
 370 303 l 1
 470 303 l 1
 499 274 l 1
 470 245 l 1
 367 245 l 1
 340 273 l 1
413 560 m 5
 443 590 l 5
 475 590 l 5
 504 561 l 5
 475 532 l 5
 440 532 l 5
 413 560 l 5
238 559 m 1
 268 589 l 1
 329 589 l 1
 358 560 l 1
 329 531 l 1
 265 531 l 1
 238 559 l 1
168 273 m 1
 198 303 l 1
 243 303 l 1
 272 274 l 1
 243 245 l 1
 195 245 l 1
 168 273 l 1
EndSplineSet
EndUndoOperation
UndoOperation
Index: 4
Type: 1
WasModified: 1
WasOrder2: 0
Layer: 2
Width: 512
VWidth: 1024
LBearingChange: 0
UnicodeEnc: 0
InstructionsLength: 0
SplineSet
151 420 m 1
 151 463 l 1
 225 704 l 1
 266 704 l 1
 266 663 l 1
 190 420 l 1
 151 420 l 1
54 55 m 1
 54 97 l 1
 131 339 l 1
 172 339 l 1
 172 298 l 1
 93 55 l 1
 54 55 l 1
332 420 m 1
 332 463 l 1
 406 704 l 1
 447 704 l 1
 447 663 l 1
 371 420 l 1
 332 420 l 1
224 55 m 1
 224 97 l 1
 301 339 l 1
 342 339 l 1
 342 298 l 1
 263 55 l 1
 224 55 l 1
19 559 m 1
 49 589 l 1
 146 589 l 1
 175 560 l 1
 146 531 l 1
 46 531 l 1
 19 559 l 1
13 272 m 1
 43 302 l 1
 75 302 l 1
 104 273 l 1
 75 244 l 1
 40 244 l 1
 13 272 l 1
340 273 m 1
 370 303 l 1
 470 303 l 1
 499 274 l 1
 470 245 l 1
 367 245 l 1
 340 273 l 1
412 560 m 5
 442 590 l 5
 474 590 l 5
 503 561 l 5
 474 532 l 5
 439 532 l 5
 412 560 l 5
238 559 m 1
 268 589 l 1
 329 589 l 1
 358 560 l 1
 329 531 l 1
 265 531 l 1
 238 559 l 1
168 273 m 1
 198 303 l 1
 243 303 l 1
 272 274 l 1
 243 245 l 1
 195 245 l 1
 168 273 l 1
EndSplineSet
EndUndoOperation
UndoOperation
Index: 5
Type: 1
WasModified: 1
WasOrder2: 0
Layer: 2
Width: 512
VWidth: 1024
LBearingChange: 0
UnicodeEnc: 0
InstructionsLength: 0
SplineSet
151 420 m 1
 151 463 l 1
 225 704 l 1
 266 704 l 1
 266 663 l 1
 190 420 l 1
 151 420 l 1
54 55 m 1
 54 97 l 1
 131 339 l 1
 172 339 l 1
 172 298 l 1
 93 55 l 1
 54 55 l 1
332 420 m 1
 332 463 l 1
 406 704 l 1
 447 704 l 1
 447 663 l 1
 371 420 l 1
 332 420 l 1
224 55 m 1
 224 97 l 1
 301 339 l 1
 342 339 l 1
 342 298 l 1
 263 55 l 1
 224 55 l 1
19 559 m 1
 49 589 l 1
 146 589 l 1
 175 560 l 1
 146 531 l 1
 46 531 l 1
 19 559 l 1
13 272 m 1
 43 302 l 1
 75 302 l 1
 104 273 l 1
 75 244 l 1
 40 244 l 1
 13 272 l 1
340 273 m 1
 370 303 l 1
 470 303 l 1
 499 274 l 1
 470 245 l 1
 367 245 l 1
 340 273 l 1
411 560 m 5
 441 590 l 5
 473 590 l 5
 502 561 l 5
 473 532 l 5
 438 532 l 5
 411 560 l 5
238 559 m 1
 268 589 l 1
 329 589 l 1
 358 560 l 1
 329 531 l 1
 265 531 l 1
 238 559 l 1
168 273 m 1
 198 303 l 1
 243 303 l 1
 272 274 l 1
 243 245 l 1
 195 245 l 1
 168 273 l 1
EndSplineSet
EndUndoOperation
UndoOperation
Index: 6
Type: 1
WasModified: 1
WasOrder2: 0
Layer: 2
Width: 512
VWidth: 1024
LBearingChange: 0
UnicodeEnc: 0
InstructionsLength: 0
SplineSet
151 420 m 1
 151 463 l 1
 225 704 l 1
 266 704 l 1
 266 663 l 1
 190 420 l 1
 151 420 l 1
54 55 m 1
 54 97 l 1
 131 339 l 1
 172 339 l 1
 172 298 l 1
 93 55 l 1
 54 55 l 1
332 420 m 1
 332 463 l 1
 406 704 l 1
 447 704 l 1
 447 663 l 1
 371 420 l 1
 332 420 l 1
224 55 m 1
 224 97 l 1
 301 339 l 1
 342 339 l 1
 342 298 l 1
 263 55 l 1
 224 55 l 1
19 559 m 1
 49 589 l 1
 146 589 l 1
 175 560 l 1
 146 531 l 1
 46 531 l 1
 19 559 l 1
13 272 m 1
 43 302 l 1
 75 302 l 1
 104 273 l 1
 75 244 l 1
 40 244 l 1
 13 272 l 1
340 273 m 1
 370 303 l 1
 470 303 l 1
 499 274 l 1
 470 245 l 1
 367 245 l 1
 340 273 l 1
410 560 m 5
 440 590 l 5
 472 590 l 5
 501 561 l 5
 472 532 l 5
 437 532 l 5
 410 560 l 5
238 559 m 1
 268 589 l 1
 329 589 l 1
 358 560 l 1
 329 531 l 1
 265 531 l 1
 238 559 l 1
168 273 m 1
 198 303 l 1
 243 303 l 1
 272 274 l 1
 243 245 l 1
 195 245 l 1
 168 273 l 1
EndSplineSet
EndUndoOperation
UndoOperation
Index: 7
Type: 1
WasModified: 1
WasOrder2: 0
Layer: 2
Width: 512
VWidth: 1024
LBearingChange: 0
UnicodeEnc: 0
InstructionsLength: 0
SplineSet
151 420 m 1
 151 463 l 1
 225 704 l 1
 266 704 l 1
 266 663 l 1
 190 420 l 1
 151 420 l 1
54 55 m 1
 54 97 l 1
 131 339 l 1
 172 339 l 1
 172 298 l 1
 93 55 l 1
 54 55 l 1
332 420 m 1
 332 463 l 1
 406 704 l 1
 447 704 l 1
 447 663 l 1
 371 420 l 1
 332 420 l 1
224 55 m 1
 224 97 l 1
 301 339 l 1
 342 339 l 1
 342 298 l 1
 263 55 l 1
 224 55 l 1
19 559 m 1
 49 589 l 1
 146 589 l 1
 175 560 l 1
 146 531 l 1
 46 531 l 1
 19 559 l 1
13 272 m 1
 43 302 l 1
 75 302 l 1
 104 273 l 1
 75 244 l 1
 40 244 l 1
 13 272 l 1
340 273 m 1
 370 303 l 1
 470 303 l 1
 499 274 l 1
 470 245 l 1
 367 245 l 1
 340 273 l 1
409 560 m 5
 439 590 l 5
 471 590 l 5
 500 561 l 5
 471 532 l 5
 436 532 l 5
 409 560 l 5
238 559 m 1
 268 589 l 1
 329 589 l 1
 358 560 l 1
 329 531 l 1
 265 531 l 1
 238 559 l 1
168 273 m 1
 198 303 l 1
 243 303 l 1
 272 274 l 1
 243 245 l 1
 195 245 l 1
 168 273 l 1
EndSplineSet
EndUndoOperation
UndoOperation
Index: 8
Type: 1
WasModified: 1
WasOrder2: 0
Layer: 2
Width: 512
VWidth: 1024
LBearingChange: 0
UnicodeEnc: 0
InstructionsLength: 0
SplineSet
151 420 m 1
 151 463 l 1
 225 704 l 1
 266 704 l 1
 266 663 l 1
 190 420 l 1
 151 420 l 1
54 55 m 1
 54 97 l 1
 131 339 l 1
 172 339 l 1
 172 298 l 1
 93 55 l 1
 54 55 l 1
332 420 m 1
 332 463 l 1
 406 704 l 1
 447 704 l 1
 447 663 l 1
 371 420 l 1
 332 420 l 1
224 55 m 1
 224 97 l 1
 301 339 l 1
 342 339 l 1
 342 298 l 1
 263 55 l 1
 224 55 l 1
19 559 m 1
 49 589 l 1
 146 589 l 1
 175 560 l 1
 146 531 l 1
 46 531 l 1
 19 559 l 1
13 272 m 1
 43 302 l 1
 75 302 l 1
 104 273 l 1
 75 244 l 1
 40 244 l 1
 13 272 l 1
340 273 m 1
 370 303 l 1
 470 303 l 1
 499 274 l 1
 470 245 l 1
 367 245 l 1
 340 273 l 1
408 560 m 5
 438 590 l 5
 470 590 l 5
 499 561 l 5
 470 532 l 5
 435 532 l 5
 408 560 l 5
238 559 m 1
 268 589 l 1
 329 589 l 1
 358 560 l 1
 329 531 l 1
 265 531 l 1
 238 559 l 1
168 273 m 1
 198 303 l 1
 243 303 l 1
 272 274 l 1
 243 245 l 1
 195 245 l 1
 168 273 l 1
EndSplineSet
EndUndoOperation
UndoOperation
Index: 9
Type: 1
WasModified: 1
WasOrder2: 0
Layer: 2
Width: 512
VWidth: 1024
LBearingChange: 0
UnicodeEnc: 0
InstructionsLength: 0
SplineSet
151 420 m 1
 151 463 l 1
 225 704 l 1
 266 704 l 1
 266 663 l 1
 190 420 l 1
 151 420 l 1
54 55 m 1
 54 97 l 1
 131 339 l 1
 172 339 l 1
 172 298 l 1
 93 55 l 1
 54 55 l 1
332 420 m 1
 332 463 l 1
 406 704 l 1
 447 704 l 1
 447 663 l 1
 371 420 l 1
 332 420 l 1
224 55 m 1
 224 97 l 1
 301 339 l 1
 342 339 l 1
 342 298 l 1
 263 55 l 1
 224 55 l 1
19 559 m 1
 49 589 l 1
 146 589 l 1
 175 560 l 1
 146 531 l 1
 46 531 l 1
 19 559 l 1
13 272 m 1
 43 302 l 1
 75 302 l 1
 104 273 l 1
 75 244 l 1
 40 244 l 1
 13 272 l 1
340 273 m 1
 370 303 l 1
 470 303 l 1
 499 274 l 1
 470 245 l 1
 367 245 l 1
 340 273 l 1
407 560 m 5
 437 590 l 5
 469 590 l 5
 498 561 l 5
 469 532 l 5
 434 532 l 5
 407 560 l 5
238 559 m 1
 268 589 l 1
 329 589 l 1
 358 560 l 1
 329 531 l 1
 265 531 l 1
 238 559 l 1
168 273 m 1
 198 303 l 1
 243 303 l 1
 272 274 l 1
 243 245 l 1
 195 245 l 1
 168 273 l 1
EndSplineSet
EndUndoOperation
UndoOperation
Index: 10
Type: 1
WasModified: 1
WasOrder2: 0
Layer: 2
Width: 512
VWidth: 1024
LBearingChange: 0
UnicodeEnc: 0
InstructionsLength: 0
SplineSet
151 420 m 1
 151 463 l 1
 225 704 l 1
 266 704 l 1
 266 663 l 1
 190 420 l 1
 151 420 l 1
54 55 m 1
 54 97 l 1
 131 339 l 1
 172 339 l 1
 172 298 l 1
 93 55 l 1
 54 55 l 1
332 420 m 1
 332 463 l 1
 406 704 l 1
 447 704 l 1
 447 663 l 1
 371 420 l 1
 332 420 l 1
224 55 m 1
 224 97 l 1
 301 339 l 1
 342 339 l 1
 342 298 l 1
 263 55 l 1
 224 55 l 1
19 559 m 1
 49 589 l 1
 146 589 l 1
 175 560 l 1
 146 531 l 1
 46 531 l 1
 19 559 l 1
13 272 m 1
 43 302 l 1
 75 302 l 1
 104 273 l 1
 75 244 l 1
 40 244 l 1
 13 272 l 1
340 273 m 1
 370 303 l 1
 470 303 l 1
 499 274 l 1
 470 245 l 1
 367 245 l 1
 340 273 l 1
406 560 m 5
 436 590 l 5
 468 590 l 5
 497 561 l 5
 468 532 l 5
 433 532 l 5
 406 560 l 5
238 559 m 1
 268 589 l 1
 329 589 l 1
 358 560 l 1
 329 531 l 1
 265 531 l 1
 238 559 l 1
168 273 m 1
 198 303 l 1
 243 303 l 1
 272 274 l 1
 243 245 l 1
 195 245 l 1
 168 273 l 1
EndSplineSet
EndUndoOperation
UndoOperation
Index: 11
Type: 1
WasModified: 0
WasOrder2: 0
Layer: 2
Width: 512
VWidth: 1024
LBearingChange: 0
UnicodeEnc: 0
InstructionsLength: 0
SplineSet
151.05859375 420 m 5
 151.05859375 463 l 5
 225.05859375 704 l 5
 266.05859375 704 l 5
 266.05859375 663 l 5
 190.05859375 420 l 5
 151.05859375 420 l 5
53.701171875 55 m 5
 53.701171875 97 l 5
 130.701171875 339 l 5
 171.701171875 339 l 5
 171.701171875 298 l 5
 92.701171875 55 l 5
 53.701171875 55 l 5
332.19921875 420 m 5
 332.19921875 463 l 5
 406.19921875 704 l 5
 447.19921875 704 l 5
 447.19921875 663 l 5
 371.19921875 420 l 5
 332.19921875 420 l 5
223.939453125 55 m 5
 223.939453125 97 l 5
 300.939453125 339 l 5
 341.939453125 339 l 5
 341.939453125 298 l 5
 262.939453125 55 l 5
 223.939453125 55 l 5
18.931640625 559.091796875 m 5
 48.931640625 589.091796875 l 5
 145.578125 589.091796875 l 5
 174.578125 560.091796875 l 5
 145.578125 531.091796875 l 5
 45.931640625 531.091796875 l 5
 18.931640625 559.091796875 l 5
13.236328125 272.471679688 m 5
 43.236328125 302.471679688 l 5
 74.697265625 302.471679688 l 5
 103.697265625 273.471679688 l 5
 74.697265625 244.471679688 l 5
 40.236328125 244.471679688 l 5
 13.236328125 272.471679688 l 5
340.36328125 272.719726562 m 5
 370.36328125 302.719726562 l 5
 469.763671875 302.719726562 l 5
 498.763671875 273.719726562 l 5
 469.763671875 244.719726562 l 5
 367.36328125 244.719726562 l 5
 340.36328125 272.719726562 l 5
406.373046875 559.555664062 m 5
 436.373046875 589.555664062 l 5
 467.833984375 589.555664062 l 5
 496.833984375 560.555664062 l 5
 467.833984375 531.555664062 l 5
 433.373046875 531.555664062 l 5
 406.373046875 559.555664062 l 5
238.326171875 559.091796875 m 5
 268.326171875 589.091796875 l 5
 328.984375 589.091796875 l 5
 357.984375 560.091796875 l 5
 328.984375 531.091796875 l 5
 265.326171875 531.091796875 l 5
 238.326171875 559.091796875 l 5
168.462890625 272.719726562 m 5
 198.462890625 302.719726562 l 5
 243.197265625 302.719726562 l 5
 272.197265625 273.719726562 l 5
 243.197265625 244.719726562 l 5
 195.462890625 244.719726562 l 5
 168.462890625 272.719726562 l 5
EndSplineSet
EndUndoOperation
UndoOperation
Index: 12
Type: 1
WasModified: 0
WasOrder2: 0
Layer: 2
Width: 512
VWidth: 1024
LBearingChange: 0
UnicodeEnc: 0
InstructionsLength: 0
EndUndoOperation
UndoOperation
Index: 13
Type: 3
WasModified: 0
WasOrder2: 0
Layer: 2
EndUndoOperation
EndUndoes
Redoes
EndRedoes
EndUndoRedoHistory
Fore
SplineSet
151 420 m 1
 151 463 l 1
 225 704 l 1
 266 704 l 1
 266 663 l 1
 190 420 l 1
 151 420 l 1
54 55 m 1
 54 97 l 1
 131 339 l 1
 172 339 l 1
 172 298 l 1
 93 55 l 1
 54 55 l 1
332 420 m 1
 332 463 l 1
 406 704 l 1
 447 704 l 1
 447 663 l 1
 371 420 l 1
 332 420 l 1
224 55 m 1
 224 97 l 1
 301 339 l 1
 342 339 l 1
 342 298 l 1
 263 55 l 1
 224 55 l 1
19 559 m 1
 49 589 l 1
 146 589 l 1
 175 560 l 1
 146 531 l 1
 46 531 l 1
 19 559 l 1
13 272 m 1
 43 302 l 1
 75 302 l 1
 104 273 l 1
 75 244 l 1
 40 244 l 1
 13 272 l 1
340 273 m 1
 370 303 l 1
 470 303 l 1
 499 274 l 1
 470 245 l 1
 367 245 l 1
 340 273 l 1
417 560 m 1
 447 590 l 1
 479 590 l 1
 508 561 l 1
 479 532 l 1
 444 532 l 1
 417 560 l 1
238 559 m 1
 268 589 l 1
 329 589 l 1
 358 560 l 1
 329 531 l 1
 265 531 l 1
 238 559 l 1
168 273 m 1
 198 303 l 1
 243 303 l 1
 272 274 l 1
 243 245 l 1
 195 245 l 1
 168 273 l 1
EndSplineSet
EndChar

StartChar: dollar
Encoding: 36 36 51
Width: 512
Flags: HW
LayerCount: 2
UndoRedoHistory
Layer: 1
Undoes
UndoOperation
Index: 0
Type: 1
WasModified: 0
WasOrder2: 0
Layer: 2
Width: 512
VWidth: 1024
LBearingChange: 0
UnicodeEnc: 0
InstructionsLength: 0
SplineSet
68.5 752.180664062 m 5
 98.5 721.180664062 l 5
 98.5 430.180664062 l 5
 70.5 401.180664062 l 5
 41.5 430.180664062 l 5
 41.5 724.180664062 l 5
 68.5 752.180664062 l 5
82.5 392.180664062 m 5
 112.5 422.180664062 l 5
 226.5 422.180664062 l 5
 255.5 393.180664062 l 5
 226.5 364.180664062 l 5
 109.5 364.180664062 l 5
 82.5 392.180664062 l 5
440.5 385.180664062 m 5
 470.5 355.180664062 l 5
 470.5 63.1806640625 l 5
 441.5 35.1806640625 l 5
 412.5 63.1806640625 l 5
 412.5 357.180664062 l 5
 440.5 385.180664062 l 5
261.5 392.180664062 m 5
 291.5 422.180664062 l 5
 405.5 422.180664062 l 5
 434.5 393.180664062 l 5
 405.5 364.180664062 l 5
 288.5 364.180664062 l 5
 261.5 392.180664062 l 5
257.5 713.180664062 m 5
 287.5 683.180664062 l 5
 287.5 431.180664062 l 5
 258.5 402.180664062 l 5
 229.5 431.180664062 l 5
 229.5 685.180664062 l 5
 257.5 713.180664062 l 5
257.5 376.180664062 m 5
 287.5 346.180664062 l 5
 287.5 94.1806640625 l 5
 258.5 65.1806640625 l 5
 229.5 94.1806640625 l 5
 229.5 348.180664062 l 5
 257.5 376.180664062 l 5
82.5 758.180664062 m 5
 112.5 788.180664062 l 5
 226.5 788.180664062 l 5
 255.5 759.180664062 l 5
 226.5 730.180664062 l 5
 109.5 730.180664062 l 5
 82.5 758.180664062 l 5
261.5 758.180664062 m 5
 291.5 788.180664062 l 5
 405.5 788.180664062 l 5
 434.5 759.180664062 l 5
 405.5 730.180664062 l 5
 288.5 730.180664062 l 5
 261.5 758.180664062 l 5
82.5 28 m 5
 112.5 58 l 5
 226.5 58 l 5
 255.5 29 l 5
 226.5 0 l 5
 109.5 0 l 5
 82.5 28 l 5
261.5 28 m 5
 291.5 58 l 5
 405.5 58 l 5
 434.5 29 l 5
 405.5 0 l 5
 288.5 0 l 5
 261.5 28 l 5
EndSplineSet
EndUndoOperation
UndoOperation
Index: 1
Type: 1
WasModified: 0
WasOrder2: 0
Layer: 2
Width: 512
VWidth: 1024
LBearingChange: 0
UnicodeEnc: 0
InstructionsLength: 0
EndUndoOperation
UndoOperation
Index: 2
Type: 3
WasModified: 0
WasOrder2: 0
Layer: 2
EndUndoOperation
EndUndoes
Redoes
EndRedoes
EndUndoRedoHistory
Fore
SplineSet
68 752 m 5
 98 721 l 5
 98 430 l 5
 70 401 l 5
 42 430 l 5
 42 724 l 5
 68 752 l 5
82 392 m 5
 112 422 l 5
 226 422 l 5
 256 393 l 5
 226 364 l 5
 110 364 l 5
 82 392 l 5
440 385 m 5
 470 355 l 5
 470 63 l 5
 442 35 l 5
 412 63 l 5
 412 357 l 5
 440 385 l 5
262 392 m 5
 292 422 l 5
 406 422 l 5
 434 393 l 5
 406 364 l 5
 288 364 l 5
 262 392 l 5
258 713 m 5
 288 683 l 5
 288 431 l 5
 258 402 l 5
 230 431 l 5
 230 685 l 5
 258 713 l 5
258 376 m 5
 288 346 l 5
 288 94 l 5
 258 65 l 5
 230 94 l 5
 230 348 l 5
 258 376 l 5
82 758 m 5
 112 788 l 5
 226 788 l 5
 256 759 l 5
 226 730 l 5
 110 730 l 5
 82 758 l 5
262 758 m 5
 292 788 l 5
 406 788 l 5
 434 759 l 5
 406 730 l 5
 288 730 l 5
 262 758 l 5
82 28 m 5
 112 58 l 5
 226 58 l 5
 256 29 l 5
 226 0 l 5
 110 0 l 5
 82 28 l 5
262 28 m 5
 292 58 l 5
 406 58 l 5
 434 29 l 5
 406 0 l 5
 288 0 l 5
 262 28 l 5
EndSplineSet
Validated: 1
EndChar

StartChar: percent
Encoding: 37 37 52
Width: 512
Flags: HW
LayerCount: 2
UndoRedoHistory
Layer: 1
Undoes
UndoOperation
Index: 0
Type: 1
WasModified: 0
WasOrder2: 0
Layer: 2
Width: 512
VWidth: 1024
LBearingChange: 0
UnicodeEnc: 0
InstructionsLength: 0
SplineSet
293 431 m 5
 293 474 l 5
 367 715 l 5
 408 715 l 5
 408 674 l 5
 332 431 l 5
 293 431 l 5
105 66 m 5
 105 108 l 5
 182 350 l 5
 223 350 l 5
 223 309 l 5
 144 66 l 5
 105 66 l 5
90 570 m 5
 120 600 l 5
 144 600 l 5
 172 571 l 5
 144 542 l 5
 118 542 l 5
 90 570 l 5
340 170 m 5
 370 200 l 5
 394 200 l 5
 422 171 l 5
 394 142 l 5
 368 142 l 5
 340 170 l 5
EndSplineSet
EndUndoOperation
UndoOperation
Index: 1
Type: 1
WasModified: 0
WasOrder2: 0
Layer: 2
Width: 512
VWidth: 1024
LBearingChange: 0
UnicodeEnc: 0
InstructionsLength: 0
EndUndoOperation
UndoOperation
Index: 2
Type: 3
WasModified: 0
WasOrder2: 0
Layer: 2
EndUndoOperation
EndUndoes
Redoes
EndRedoes
EndUndoRedoHistory
Fore
SplineSet
293 431 m 5
 293 474 l 5
 367 715 l 5
 408 715 l 5
 408 674 l 5
 332 431 l 5
 293 431 l 5
105 66 m 5
 105 108 l 5
 182 350 l 5
 223 350 l 5
 223 309 l 5
 144 66 l 5
 105 66 l 5
90 570 m 5
 120 600 l 5
 144 600 l 5
 172 571 l 5
 144 542 l 5
 118 542 l 5
 90 570 l 5
340 170 m 5
 370 200 l 5
 394 200 l 5
 422 171 l 5
 394 142 l 5
 368 142 l 5
 340 170 l 5
EndSplineSet
Validated: 1
EndChar

StartChar: ampersand
Encoding: 38 38 53
Width: 512
Flags: HW
LayerCount: 2
UndoRedoHistory
Layer: 1
Undoes
UndoOperation
Index: 0
Type: 1
WasModified: 0
WasOrder2: 0
Layer: 2
Width: 512
VWidth: 1024
LBearingChange: 0
UnicodeEnc: 0
InstructionsLength: 0
SplineSet
42.5 381.180664062 m 5
 72.5 351.180664062 l 5
 72.5 60.1806640625 l 5
 44.5 31.1806640625 l 5
 15.5 60.1806640625 l 5
 15.5 353.180664062 l 5
 42.5 381.180664062 l 5
56.5 392.180664062 m 5
 86.5 422.180664062 l 5
 200.5 422.180664062 l 5
 229.5 393.180664062 l 5
 200.5 364.180664062 l 5
 83.5 364.180664062 l 5
 56.5 392.180664062 l 5
266.5 436.180664062 m 5
 266.5 479.180664062 l 5
 340.5 720.180664062 l 5
 381.5 720.180664062 l 5
 381.5 679.180664062 l 5
 305.5 436.180664062 l 5
 266.5 436.180664062 l 5
78.5 720.180664062 m 5
 117.5 720.180664062 l 5
 196.5 477.180664062 l 5
 196.5 436.180664062 l 5
 155.5 436.180664062 l 5
 78.5 678.180664062 l 5
 78.5 720.180664062 l 5
266.5 355.180664062 m 5
 305.5 355.180664062 l 5
 381.5 111.180664062 l 5
 381.5 71.1806640625 l 5
 340.5 71.1806640625 l 5
 266.5 312.180664062 l 5
 266.5 355.180664062 l 5
56.5 758.180664062 m 5
 86.5 788.180664062 l 5
 200.5 788.180664062 l 5
 229.5 759.180664062 l 5
 200.5 730.180664062 l 5
 83.5 730.180664062 l 5
 56.5 758.180664062 l 5
235.5 758.180664062 m 5
 265.5 788.180664062 l 5
 379.5 788.180664062 l 5
 408.5 759.180664062 l 5
 379.5 730.180664062 l 5
 262.5 730.180664062 l 5
 235.5 758.180664062 l 5
56.5 28 m 5
 86.5 58 l 5
 200.5 58 l 5
 229.5 29 l 5
 200.5 0 l 5
 83.5 0 l 5
 56.5 28 l 5
235.5 28 m 5
 265.5 58 l 5
 379.5 58 l 5
 408.5 29 l 5
 379.5 0 l 5
 262.5 0 l 5
 235.5 28 l 5
414.5 24.1806640625 m 5
 444.5 54.1806640625 l 5
 468.5 54.1806640625 l 5
 496.5 25.1806640625 l 5
 468.5 -2.8193359375 l 5
 442.5 -2.8193359375 l 5
 414.5 24.1806640625 l 5
EndSplineSet
EndUndoOperation
UndoOperation
Index: 1
Type: 1
WasModified: 0
WasOrder2: 0
Layer: 2
Width: 512
VWidth: 1024
LBearingChange: 0
UnicodeEnc: 0
InstructionsLength: 0
EndUndoOperation
UndoOperation
Index: 2
Type: 3
WasModified: 0
WasOrder2: 0
Layer: 2
EndUndoOperation
EndUndoes
Redoes
EndRedoes
EndUndoRedoHistory
Fore
SplineSet
42 381 m 5
 72 351 l 5
 72 60 l 5
 44 31 l 5
 16 60 l 5
 16 353 l 5
 42 381 l 5
56 392 m 5
 86 422 l 5
 200 422 l 5
 230 393 l 5
 200 364 l 5
 84 364 l 5
 56 392 l 5
266 436 m 5
 266 479 l 5
 340 720 l 5
 382 720 l 5
 382 679 l 5
 306 436 l 5
 266 436 l 5
78 720 m 5
 118 720 l 5
 196 477 l 5
 196 436 l 5
 156 436 l 5
 78 678 l 5
 78 720 l 5
266 355 m 5
 306 355 l 5
 382 111 l 5
 382 71 l 5
 340 71 l 5
 266 312 l 5
 266 355 l 5
56 758 m 5
 86 788 l 5
 200 788 l 5
 230 759 l 5
 200 730 l 5
 84 730 l 5
 56 758 l 5
236 758 m 5
 266 788 l 5
 380 788 l 5
 408 759 l 5
 380 730 l 5
 262 730 l 5
 236 758 l 5
56 28 m 5
 86 58 l 5
 200 58 l 5
 230 29 l 5
 200 0 l 5
 84 0 l 5
 56 28 l 5
236 28 m 5
 266 58 l 5
 380 58 l 5
 408 29 l 5
 380 0 l 5
 262 0 l 5
 236 28 l 5
414 24 m 5
 444 54 l 5
 468 54 l 5
 496 25 l 5
 468 -3 l 5
 442 -3 l 5
 414 24 l 5
EndSplineSet
Validated: 1
EndChar

StartChar: quotesingle
Encoding: 39 39 54
Width: 512
Flags: HW
LayerCount: 2
UndoRedoHistory
Layer: 1
Undoes
UndoOperation
Index: 0
Type: 1
WasModified: 0
WasOrder2: 0
Layer: 2
Width: 512
VWidth: 1024
LBearingChange: 0
UnicodeEnc: 0
InstructionsLength: 0
SplineSet
255 824 m 5
 285 793 l 5
 285 502 l 5
 256 473 l 5
 227 502 l 5
 227 796 l 5
 255 824 l 5
EndSplineSet
EndUndoOperation
UndoOperation
Index: 1
Type: 1
WasModified: 0
WasOrder2: 0
Layer: 2
Width: 512
VWidth: 1024
LBearingChange: 0
UnicodeEnc: 0
InstructionsLength: 0
EndUndoOperation
UndoOperation
Index: 2
Type: 3
WasModified: 0
WasOrder2: 0
Layer: 2
EndUndoOperation
EndUndoes
Redoes
EndRedoes
EndUndoRedoHistory
Fore
SplineSet
255 824 m 5
 285 793 l 5
 285 502 l 5
 256 473 l 5
 227 502 l 5
 227 796 l 5
 255 824 l 5
EndSplineSet
Validated: 1
EndChar

StartChar: parenleft
Encoding: 40 40 55
Width: 512
Flags: HW
LayerCount: 2
UndoRedoHistory
Layer: 1
Undoes
UndoOperation
Index: 0
Type: 1
WasModified: 0
WasOrder2: 0
Layer: 2
Width: 512
VWidth: 1024
LBearingChange: 0
UnicodeEnc: 0
InstructionsLength: 0
SplineSet
176 752.180664062 m 5
 206 721.180664062 l 5
 206 430.180664062 l 5
 178 401.180664062 l 5
 149 430.180664062 l 5
 149 724.180664062 l 5
 176 752.180664062 l 5
176 381.180664062 m 5
 206 351.180664062 l 5
 206 60.1806640625 l 5
 178 31.1806640625 l 5
 149 60.1806640625 l 5
 149 353.180664062 l 5
 176 381.180664062 l 5
190 758.180664062 m 5
 220 788.180664062 l 5
 334 788.180664062 l 5
 363 759.180664062 l 5
 334 730.180664062 l 5
 217 730.180664062 l 5
 190 758.180664062 l 5
190 28 m 5
 220 58 l 5
 334 58 l 5
 363 29 l 5
 334 0 l 5
 217 0 l 5
 190 28 l 5
EndSplineSet
EndUndoOperation
UndoOperation
Index: 1
Type: 1
WasModified: 0
WasOrder2: 0
Layer: 2
Width: 512
VWidth: 1024
LBearingChange: 0
UnicodeEnc: 0
InstructionsLength: 0
EndUndoOperation
UndoOperation
Index: 2
Type: 3
WasModified: 0
WasOrder2: 0
Layer: 2
EndUndoOperation
EndUndoes
Redoes
EndRedoes
EndUndoRedoHistory
Fore
SplineSet
176 752 m 5
 206 721 l 5
 206 430 l 5
 178 401 l 5
 149 430 l 5
 149 724 l 5
 176 752 l 5
176 381 m 5
 206 351 l 5
 206 60 l 5
 178 31 l 5
 149 60 l 5
 149 353 l 5
 176 381 l 5
190 758 m 5
 220 788 l 5
 334 788 l 5
 363 759 l 5
 334 730 l 5
 217 730 l 5
 190 758 l 5
190 28 m 5
 220 58 l 5
 334 58 l 5
 363 29 l 5
 334 0 l 5
 217 0 l 5
 190 28 l 5
EndSplineSet
Validated: 1
EndChar

StartChar: parenright
Encoding: 41 41 56
Width: 512
Flags: HW
LayerCount: 2
UndoRedoHistory
Layer: 1
Undoes
UndoOperation
Index: 0
Type: 1
WasModified: 0
WasOrder2: 0
Layer: 2
Width: 512
VWidth: 1024
LBearingChange: 0
UnicodeEnc: 0
InstructionsLength: 0
SplineSet
330.5 752.180664062 m 5
 360.5 721.180664062 l 5
 360.5 430.180664062 l 5
 331.5 401.180664062 l 5
 302.5 430.180664062 l 5
 302.5 724.180664062 l 5
 330.5 752.180664062 l 5
330.5 385.180664062 m 5
 360.5 355.180664062 l 5
 360.5 63.1806640625 l 5
 331.5 35.1806640625 l 5
 302.5 63.1806640625 l 5
 302.5 357.180664062 l 5
 330.5 385.180664062 l 5
151.5 758.180664062 m 5
 181.5 788.180664062 l 5
 295.5 788.180664062 l 5
 324.5 759.180664062 l 5
 295.5 730.180664062 l 5
 178.5 730.180664062 l 5
 151.5 758.180664062 l 5
151.5 28 m 5
 181.5 58 l 5
 295.5 58 l 5
 324.5 29 l 5
 295.5 0 l 5
 178.5 0 l 5
 151.5 28 l 5
EndSplineSet
EndUndoOperation
UndoOperation
Index: 1
Type: 1
WasModified: 0
WasOrder2: 0
Layer: 2
Width: 512
VWidth: 1024
LBearingChange: 0
UnicodeEnc: 0
InstructionsLength: 0
EndUndoOperation
UndoOperation
Index: 2
Type: 3
WasModified: 0
WasOrder2: 0
Layer: 2
EndUndoOperation
EndUndoes
Redoes
EndRedoes
EndUndoRedoHistory
Fore
SplineSet
330 752 m 5
 360 721 l 5
 360 430 l 5
 332 401 l 5
 302 430 l 5
 302 724 l 5
 330 752 l 5
330 385 m 5
 360 355 l 5
 360 63 l 5
 332 35 l 5
 302 63 l 5
 302 357 l 5
 330 385 l 5
152 758 m 5
 182 788 l 5
 296 788 l 5
 324 759 l 5
 296 730 l 5
 178 730 l 5
 152 758 l 5
152 28 m 5
 182 58 l 5
 296 58 l 5
 324 29 l 5
 296 0 l 5
 178 0 l 5
 152 28 l 5
EndSplineSet
Validated: 1
EndChar

StartChar: asterisk
Encoding: 42 42 57
Width: 512
Flags: HW
LayerCount: 2
UndoRedoHistory
Layer: 1
Undoes
UndoOperation
Index: 0
Type: 1
WasModified: 0
WasOrder2: 0
Layer: 2
Width: 512
VWidth: 1024
LBearingChange: 0
UnicodeEnc: 0
InstructionsLength: 0
SplineSet
80 387.299804688 m 5
 110 417.299804688 l 5
 224 417.299804688 l 5
 253 388.299804688 l 5
 224 359.299804688 l 5
 107 359.299804688 l 5
 80 387.299804688 l 5
290 431.299804688 m 5
 290 474.299804688 l 5
 364 715.299804688 l 5
 405 715.299804688 l 5
 405 674.299804688 l 5
 329 431.299804688 l 5
 290 431.299804688 l 5
102 715.299804688 m 5
 141 715.299804688 l 5
 220 472.299804688 l 5
 220 431.299804688 l 5
 179 431.299804688 l 5
 102 673.299804688 l 5
 102 715.299804688 l 5
290 350.299804688 m 5
 329 350.299804688 l 5
 405 106.299804688 l 5
 405 66.2998046875 l 5
 364 66.2998046875 l 5
 290 307.299804688 l 5
 290 350.299804688 l 5
102 66.2998046875 m 5
 102 108.299804688 l 5
 179 350.299804688 l 5
 220 350.299804688 l 5
 220 309.299804688 l 5
 141 66.2998046875 l 5
 102 66.2998046875 l 5
259 387.299804688 m 5
 289 417.299804688 l 5
 403 417.299804688 l 5
 432 388.299804688 l 5
 403 359.299804688 l 5
 286 359.299804688 l 5
 259 387.299804688 l 5
255 708.299804688 m 5
 285 678.299804688 l 5
 285 426.299804688 l 5
 256 397.299804688 l 5
 227 426.299804688 l 5
 227 680.299804688 l 5
 255 708.299804688 l 5
255 371.299804688 m 5
 285 341.299804688 l 5
 285 89.2998046875 l 5
 256 60.2998046875 l 5
 227 89.2998046875 l 5
 227 343.299804688 l 5
 255 371.299804688 l 5
EndSplineSet
EndUndoOperation
UndoOperation
Index: 1
Type: 1
WasModified: 0
WasOrder2: 0
Layer: 2
Width: 512
VWidth: 1024
LBearingChange: 0
UnicodeEnc: 0
InstructionsLength: 0
EndUndoOperation
UndoOperation
Index: 2
Type: 3
WasModified: 0
WasOrder2: 0
Layer: 2
EndUndoOperation
EndUndoes
Redoes
EndRedoes
EndUndoRedoHistory
Fore
SplineSet
80 387 m 5
 110 417 l 5
 224 417 l 5
 253 388 l 5
 224 359 l 5
 107 359 l 5
 80 387 l 5
290 431 m 5
 290 474 l 5
 364 715 l 5
 405 715 l 5
 405 674 l 5
 329 431 l 5
 290 431 l 5
102 715 m 5
 141 715 l 5
 220 472 l 5
 220 431 l 5
 179 431 l 5
 102 673 l 5
 102 715 l 5
290 350 m 5
 329 350 l 5
 405 106 l 5
 405 66 l 5
 364 66 l 5
 290 307 l 5
 290 350 l 5
102 66 m 5
 102 108 l 5
 179 350 l 5
 220 350 l 5
 220 309 l 5
 141 66 l 5
 102 66 l 5
259 387 m 5
 289 417 l 5
 403 417 l 5
 432 388 l 5
 403 359 l 5
 286 359 l 5
 259 387 l 5
255 708 m 5
 285 678 l 5
 285 426 l 5
 256 397 l 5
 227 426 l 5
 227 680 l 5
 255 708 l 5
255 371 m 5
 285 341 l 5
 285 89 l 5
 256 60 l 5
 227 89 l 5
 227 343 l 5
 255 371 l 5
EndSplineSet
Validated: 1
EndChar

StartChar: plus
Encoding: 43 43 58
Width: 512
Flags: HW
LayerCount: 2
UndoRedoHistory
Layer: 1
Undoes
UndoOperation
Index: 0
Type: 1
WasModified: 0
WasOrder2: 0
Layer: 2
Width: 512
VWidth: 1024
LBearingChange: 0
UnicodeEnc: 0
InstructionsLength: 0
SplineSet
80 388.299804688 m 5
 110 418.299804688 l 5
 224 418.299804688 l 5
 253 389.299804688 l 5
 224 360.299804688 l 5
 107 360.299804688 l 5
 80 388.299804688 l 5
259 388.299804688 m 5
 289 418.299804688 l 5
 403 418.299804688 l 5
 432 389.299804688 l 5
 403 360.299804688 l 5
 286 360.299804688 l 5
 259 388.299804688 l 5
255 709.299804688 m 5
 285 679.299804688 l 5
 285 427.299804688 l 5
 256 398.299804688 l 5
 227 427.299804688 l 5
 227 681.299804688 l 5
 255 709.299804688 l 5
255 372.299804688 m 5
 285 342.299804688 l 5
 285 90.2998046875 l 5
 256 61.2998046875 l 5
 227 90.2998046875 l 5
 227 344.299804688 l 5
 255 372.299804688 l 5
EndSplineSet
EndUndoOperation
UndoOperation
Index: 1
Type: 1
WasModified: 0
WasOrder2: 0
Layer: 2
Width: 512
VWidth: 1024
LBearingChange: 0
UnicodeEnc: 0
InstructionsLength: 0
EndUndoOperation
UndoOperation
Index: 2
Type: 3
WasModified: 0
WasOrder2: 0
Layer: 2
EndUndoOperation
EndUndoes
Redoes
EndRedoes
EndUndoRedoHistory
Fore
SplineSet
80 388 m 5
 110 418 l 5
 224 418 l 5
 253 389 l 5
 224 360 l 5
 107 360 l 5
 80 388 l 5
259 388 m 5
 289 418 l 5
 403 418 l 5
 432 389 l 5
 403 360 l 5
 286 360 l 5
 259 388 l 5
255 709 m 5
 285 679 l 5
 285 427 l 5
 256 398 l 5
 227 427 l 5
 227 681 l 5
 255 709 l 5
255 372 m 5
 285 342 l 5
 285 90 l 5
 256 61 l 5
 227 90 l 5
 227 344 l 5
 255 372 l 5
EndSplineSet
Validated: 1
EndChar

StartChar: comma
Encoding: 44 44 59
Width: 512
Flags: HW
LayerCount: 2
UndoRedoHistory
Layer: 1
Undoes
UndoOperation
Index: 0
Type: 1
WasModified: 0
WasOrder2: 0
Layer: 2
Width: 512
VWidth: 1024
LBearingChange: 0
UnicodeEnc: 0
InstructionsLength: 0
SplineSet
191.580078125 40.7822265625 m 5
 236.892578125 86.095703125 l 5
 273.14453125 86.095703125 l 5
 315.435546875 42.29296875 l 5
 273.14453125 0 l 5
 233.87109375 0 l 5
 191.580078125 40.7822265625 l 5
228.66015625 -64.6240234375 m 5
 278.126953125 -6.6767578125 l 5
 320.419921875 35.6162109375 l 5
 320.419921875 35.6162109375 318.41796875 0.4404296875 305.033203125 -24.587890625 c 4
 293.5 -46.1552734375 273.90234375 -59.9326171875 228.66015625 -64.6240234375 c 5
EndSplineSet
EndUndoOperation
UndoOperation
Index: 1
Type: 1
WasModified: 0
WasOrder2: 0
Layer: 2
Width: 512
VWidth: 1024
LBearingChange: 0
UnicodeEnc: 0
InstructionsLength: 0
EndUndoOperation
UndoOperation
Index: 2
Type: 3
WasModified: 0
WasOrder2: 0
Layer: 2
EndUndoOperation
EndUndoes
Redoes
EndRedoes
EndUndoRedoHistory
Fore
SplineSet
192 41 m 5
 237 86 l 5
 273 86 l 5
 315 42 l 5
 273 0 l 5
 234 0 l 5
 192 41 l 5
229 -65 m 5
 278 -7 l 5
 320 36 l 5
 320 36 318 0 305 -25 c 4
 293 -47 274 -60 229 -65 c 5
EndSplineSet
Validated: 1
EndChar

StartChar: hyphen
Encoding: 45 45 60
Width: 512
Flags: HW
LayerCount: 2
UndoRedoHistory
Layer: 1
Undoes
UndoOperation
Index: 0
Type: 1
WasModified: 0
WasOrder2: 0
Layer: 2
Width: 512
VWidth: 1024
LBearingChange: 0
UnicodeEnc: 0
InstructionsLength: 0
SplineSet
80 388 m 5
 110 418 l 5
 224 418 l 5
 253 389 l 5
 224 360 l 5
 107 360 l 5
 80 388 l 5
259 388 m 5
 289 418 l 5
 403 418 l 5
 432 389 l 5
 403 360 l 5
 286 360 l 5
 259 388 l 5
EndSplineSet
EndUndoOperation
UndoOperation
Index: 1
Type: 1
WasModified: 0
WasOrder2: 0
Layer: 2
Width: 512
VWidth: 1024
LBearingChange: 0
UnicodeEnc: 0
InstructionsLength: 0
EndUndoOperation
UndoOperation
Index: 2
Type: 3
WasModified: 0
WasOrder2: 0
Layer: 2
EndUndoOperation
EndUndoes
Redoes
EndRedoes
EndUndoRedoHistory
Fore
SplineSet
80 388 m 5
 110 418 l 5
 224 418 l 5
 253 389 l 5
 224 360 l 5
 107 360 l 5
 80 388 l 5
259 388 m 5
 289 418 l 5
 403 418 l 5
 432 389 l 5
 403 360 l 5
 286 360 l 5
 259 388 l 5
EndSplineSet
Validated: 1
EndChar

StartChar: period
Encoding: 46 46 61
Width: 512
Flags: HW
LayerCount: 2
UndoRedoHistory
Layer: 1
Undoes
UndoOperation
Index: 0
Type: 1
WasModified: 0
WasOrder2: 0
Layer: 2
Width: 512
VWidth: 1024
LBearingChange: 0
UnicodeEnc: 0
InstructionsLength: 0
SplineSet
193.69140625 42.552734375 m 5
 239.283203125 88.14453125 l 5
 275.756835938 88.14453125 l 5
 318.30859375 44.072265625 l 5
 275.756835938 0 l 5
 236.244140625 0 l 5
 193.69140625 42.552734375 l 5
EndSplineSet
EndUndoOperation
UndoOperation
Index: 1
Type: 1
WasModified: 0
WasOrder2: 0
Layer: 2
Width: 512
VWidth: 1024
LBearingChange: 0
UnicodeEnc: 0
InstructionsLength: 0
EndUndoOperation
UndoOperation
Index: 2
Type: 3
WasModified: 0
WasOrder2: 0
Layer: 2
EndUndoOperation
EndUndoes
Redoes
EndRedoes
EndUndoRedoHistory
Fore
SplineSet
194 43 m 5
 239 88 l 5
 276 88 l 5
 318 44 l 5
 276 0 l 5
 236 0 l 5
 194 43 l 5
EndSplineSet
Validated: 1
EndChar

StartChar: slash
Encoding: 47 47 62
Width: 512
Flags: HW
LayerCount: 2
UndoRedoHistory
Layer: 1
Undoes
UndoOperation
Index: 0
Type: 1
WasModified: 0
WasOrder2: 0
Layer: 2
Width: 512
VWidth: 1024
LBearingChange: 0
UnicodeEnc: 0
InstructionsLength: 0
SplineSet
292.5 432 m 5
 292.5 475 l 5
 366.5 716 l 5
 407.5 716 l 5
 407.5 675 l 5
 331.5 432 l 5
 292.5 432 l 5
104.5 67 m 5
 104.5 109 l 5
 181.5 351 l 5
 222.5 351 l 5
 222.5 310 l 5
 143.5 67 l 5
 104.5 67 l 5
EndSplineSet
EndUndoOperation
UndoOperation
Index: 1
Type: 1
WasModified: 0
WasOrder2: 0
Layer: 2
Width: 512
VWidth: 1024
LBearingChange: 0
UnicodeEnc: 0
InstructionsLength: 0
EndUndoOperation
UndoOperation
Index: 2
Type: 3
WasModified: 0
WasOrder2: 0
Layer: 2
EndUndoOperation
EndUndoes
Redoes
EndRedoes
EndUndoRedoHistory
Fore
SplineSet
292 432 m 5
 292 475 l 5
 366 716 l 5
 408 716 l 5
 408 675 l 5
 332 432 l 5
 292 432 l 5
104 67 m 5
 104 109 l 5
 182 351 l 5
 222 351 l 5
 222 310 l 5
 144 67 l 5
 104 67 l 5
EndSplineSet
Validated: 1
EndChar

StartChar: zero
Encoding: 48 48 63
Width: 512
Flags: HW
LayerCount: 2
UndoRedoHistory
Layer: 1
Undoes
UndoOperation
Index: 0
Type: 1
WasModified: 0
WasOrder2: 0
Layer: 2
Width: 512
VWidth: 1024
LBearingChange: 0
UnicodeEnc: 0
InstructionsLength: 0
SplineSet
68.5 752.180664062 m 5
 98.5 721.180664062 l 5
 98.5 430.180664062 l 5
 70.5 401.180664062 l 5
 41.5 430.180664062 l 5
 41.5 724.180664062 l 5
 68.5 752.180664062 l 5
68.5 381.180664062 m 5
 98.5 351.180664062 l 5
 98.5 60.1806640625 l 5
 70.5 31.1806640625 l 5
 41.5 60.1806640625 l 5
 41.5 353.180664062 l 5
 68.5 381.180664062 l 5
440.5 752.180664062 m 5
 470.5 721.180664062 l 5
 470.5 430.180664062 l 5
 441.5 401.180664062 l 5
 412.5 430.180664062 l 5
 412.5 724.180664062 l 5
 440.5 752.180664062 l 5
440.5 385.180664062 m 5
 470.5 355.180664062 l 5
 470.5 63.1806640625 l 5
 441.5 35.1806640625 l 5
 412.5 63.1806640625 l 5
 412.5 357.180664062 l 5
 440.5 385.180664062 l 5
292.5 436.180664062 m 5
 292.5 479.180664062 l 5
 366.5 720.180664062 l 5
 407.5 720.180664062 l 5
 407.5 679.180664062 l 5
 331.5 436.180664062 l 5
 292.5 436.180664062 l 5
104.5 71.1806640625 m 5
 104.5 113.180664062 l 5
 181.5 355.180664062 l 5
 222.5 355.180664062 l 5
 222.5 314.180664062 l 5
 143.5 71.1806640625 l 5
 104.5 71.1806640625 l 5
82.5 758.180664062 m 5
 112.5 788.180664062 l 5
 226.5 788.180664062 l 5
 255.5 759.180664062 l 5
 226.5 730.180664062 l 5
 109.5 730.180664062 l 5
 82.5 758.180664062 l 5
261.5 758.180664062 m 5
 291.5 788.180664062 l 5
 405.5 788.180664062 l 5
 434.5 759.180664062 l 5
 405.5 730.180664062 l 5
 288.5 730.180664062 l 5
 261.5 758.180664062 l 5
82.5 28 m 5
 112.5 58 l 5
 226.5 58 l 5
 255.5 29 l 5
 226.5 0 l 5
 109.5 0 l 5
 82.5 28 l 5
261.5 28 m 5
 291.5 58 l 5
 405.5 58 l 5
 434.5 29 l 5
 405.5 0 l 5
 288.5 0 l 5
 261.5 28 l 5
EndSplineSet
EndUndoOperation
UndoOperation
Index: 1
Type: 1
WasModified: 0
WasOrder2: 0
Layer: 2
Width: 512
VWidth: 1024
LBearingChange: 0
UnicodeEnc: 0
InstructionsLength: 0
EndUndoOperation
UndoOperation
Index: 2
Type: 3
WasModified: 0
WasOrder2: 0
Layer: 2
EndUndoOperation
EndUndoes
Redoes
EndRedoes
EndUndoRedoHistory
Fore
SplineSet
68 752 m 5
 98 721 l 5
 98 430 l 5
 70 401 l 5
 42 430 l 5
 42 724 l 5
 68 752 l 5
68 381 m 5
 98 351 l 5
 98 60 l 5
 70 31 l 5
 42 60 l 5
 42 353 l 5
 68 381 l 5
440 752 m 5
 470 721 l 5
 470 430 l 5
 442 401 l 5
 412 430 l 5
 412 724 l 5
 440 752 l 5
440 385 m 5
 470 355 l 5
 470 63 l 5
 442 35 l 5
 412 63 l 5
 412 357 l 5
 440 385 l 5
292 436 m 5
 292 479 l 5
 366 720 l 5
 408 720 l 5
 408 679 l 5
 332 436 l 5
 292 436 l 5
104 71 m 5
 104 113 l 5
 182 355 l 5
 222 355 l 5
 222 314 l 5
 144 71 l 5
 104 71 l 5
82 758 m 5
 112 788 l 5
 226 788 l 5
 256 759 l 5
 226 730 l 5
 110 730 l 5
 82 758 l 5
262 758 m 5
 292 788 l 5
 406 788 l 5
 434 759 l 5
 406 730 l 5
 288 730 l 5
 262 758 l 5
82 28 m 5
 112 58 l 5
 226 58 l 5
 256 29 l 5
 226 0 l 5
 110 0 l 5
 82 28 l 5
262 28 m 5
 292 58 l 5
 406 58 l 5
 434 29 l 5
 406 0 l 5
 288 0 l 5
 262 28 l 5
EndSplineSet
Validated: 1
EndChar

StartChar: one
Encoding: 49 49 64
Width: 512
Flags: HW
LayerCount: 2
UndoRedoHistory
Layer: 1
Undoes
UndoOperation
Index: 0
Type: 1
WasModified: 0
WasOrder2: 0
Layer: 2
Width: 512
VWidth: 1024
LBearingChange: 0
UnicodeEnc: 0
InstructionsLength: 0
SplineSet
255 711 m 5
 285 681 l 5
 285 429 l 5
 256 400 l 5
 227 429 l 5
 227 683 l 5
 255 711 l 5
255 374 m 5
 285 344 l 5
 285 92 l 5
 256 63 l 5
 227 92 l 5
 227 346 l 5
 255 374 l 5
EndSplineSet
EndUndoOperation
UndoOperation
Index: 1
Type: 1
WasModified: 0
WasOrder2: 0
Layer: 2
Width: 512
VWidth: 1024
LBearingChange: 0
UnicodeEnc: 0
InstructionsLength: 0
EndUndoOperation
UndoOperation
Index: 2
Type: 3
WasModified: 0
WasOrder2: 0
Layer: 2
EndUndoOperation
EndUndoes
Redoes
EndRedoes
EndUndoRedoHistory
Fore
SplineSet
255 711 m 5
 285 681 l 5
 285 429 l 5
 256 400 l 5
 227 429 l 5
 227 683 l 5
 255 711 l 5
255 374 m 5
 285 344 l 5
 285 92 l 5
 256 63 l 5
 227 92 l 5
 227 346 l 5
 255 374 l 5
EndSplineSet
Validated: 1
EndChar

StartChar: two
Encoding: 50 50 65
Width: 512
Flags: HW
LayerCount: 2
UndoRedoHistory
Layer: 1
Undoes
UndoOperation
Index: 0
Type: 1
WasModified: 0
WasOrder2: 0
Layer: 2
Width: 512
VWidth: 1024
LBearingChange: 0
UnicodeEnc: 0
InstructionsLength: 0
SplineSet
68.5 381.180664062 m 5
 98.5 351.180664062 l 5
 98.5 60.1806640625 l 5
 70.5 31.1806640625 l 5
 41.5 60.1806640625 l 5
 41.5 353.180664062 l 5
 68.5 381.180664062 l 5
82.5 392.180664062 m 5
 112.5 422.180664062 l 5
 226.5 422.180664062 l 5
 255.5 393.180664062 l 5
 226.5 364.180664062 l 5
 109.5 364.180664062 l 5
 82.5 392.180664062 l 5
440.5 752.180664062 m 5
 470.5 721.180664062 l 5
 470.5 430.180664062 l 5
 441.5 401.180664062 l 5
 412.5 430.180664062 l 5
 412.5 724.180664062 l 5
 440.5 752.180664062 l 5
261.5 392.180664062 m 5
 291.5 422.180664062 l 5
 405.5 422.180664062 l 5
 434.5 393.180664062 l 5
 405.5 364.180664062 l 5
 288.5 364.180664062 l 5
 261.5 392.180664062 l 5
82.5 758.180664062 m 5
 112.5 788.180664062 l 5
 226.5 788.180664062 l 5
 255.5 759.180664062 l 5
 226.5 730.180664062 l 5
 109.5 730.180664062 l 5
 82.5 758.180664062 l 5
261.5 758.180664062 m 5
 291.5 788.180664062 l 5
 405.5 788.180664062 l 5
 434.5 759.180664062 l 5
 405.5 730.180664062 l 5
 288.5 730.180664062 l 5
 261.5 758.180664062 l 5
82.5 28 m 5
 112.5 58 l 5
 226.5 58 l 5
 255.5 29 l 5
 226.5 0 l 5
 109.5 0 l 5
 82.5 28 l 5
261.5 28 m 5
 291.5 58 l 5
 405.5 58 l 5
 434.5 29 l 5
 405.5 0 l 5
 288.5 0 l 5
 261.5 28 l 5
EndSplineSet
EndUndoOperation
UndoOperation
Index: 1
Type: 1
WasModified: 0
WasOrder2: 0
Layer: 2
Width: 512
VWidth: 1024
LBearingChange: 0
UnicodeEnc: 0
InstructionsLength: 0
EndUndoOperation
UndoOperation
Index: 2
Type: 3
WasModified: 0
WasOrder2: 0
Layer: 2
EndUndoOperation
EndUndoes
Redoes
EndRedoes
EndUndoRedoHistory
Fore
SplineSet
68 381 m 5
 98 351 l 5
 98 60 l 5
 70 31 l 5
 42 60 l 5
 42 353 l 5
 68 381 l 5
82 392 m 5
 112 422 l 5
 226 422 l 5
 256 393 l 5
 226 364 l 5
 110 364 l 5
 82 392 l 5
440 752 m 5
 470 721 l 5
 470 430 l 5
 442 401 l 5
 412 430 l 5
 412 724 l 5
 440 752 l 5
262 392 m 5
 292 422 l 5
 406 422 l 5
 434 393 l 5
 406 364 l 5
 288 364 l 5
 262 392 l 5
82 758 m 5
 112 788 l 5
 226 788 l 5
 256 759 l 5
 226 730 l 5
 110 730 l 5
 82 758 l 5
262 758 m 5
 292 788 l 5
 406 788 l 5
 434 759 l 5
 406 730 l 5
 288 730 l 5
 262 758 l 5
82 28 m 5
 112 58 l 5
 226 58 l 5
 256 29 l 5
 226 0 l 5
 110 0 l 5
 82 28 l 5
262 28 m 5
 292 58 l 5
 406 58 l 5
 434 29 l 5
 406 0 l 5
 288 0 l 5
 262 28 l 5
EndSplineSet
Validated: 1
EndChar

StartChar: three
Encoding: 51 51 66
Width: 512
Flags: HW
LayerCount: 2
UndoRedoHistory
Layer: 1
Undoes
UndoOperation
Index: 0
Type: 1
WasModified: 0
WasOrder2: 0
Layer: 2
Width: 512
VWidth: 1024
LBearingChange: 0
UnicodeEnc: 0
InstructionsLength: 0
SplineSet
62 392.180664062 m 5
 92 422.180664062 l 5
 206 422.180664062 l 5
 235 393.180664062 l 5
 206 364.180664062 l 5
 89 364.180664062 l 5
 62 392.180664062 l 5
420 752.180664062 m 5
 450 721.180664062 l 5
 450 430.180664062 l 5
 421 401.180664062 l 5
 392 430.180664062 l 5
 392 724.180664062 l 5
 420 752.180664062 l 5
420 385.180664062 m 5
 450 355.180664062 l 5
 450 63.1806640625 l 5
 421 35.1806640625 l 5
 392 63.1806640625 l 5
 392 357.180664062 l 5
 420 385.180664062 l 5
241 392.180664062 m 5
 271 422.180664062 l 5
 385 422.180664062 l 5
 414 393.180664062 l 5
 385 364.180664062 l 5
 268 364.180664062 l 5
 241 392.180664062 l 5
62 758.180664062 m 5
 92 788.180664062 l 5
 206 788.180664062 l 5
 235 759.180664062 l 5
 206 730.180664062 l 5
 89 730.180664062 l 5
 62 758.180664062 l 5
241 758.180664062 m 5
 271 788.180664062 l 5
 385 788.180664062 l 5
 414 759.180664062 l 5
 385 730.180664062 l 5
 268 730.180664062 l 5
 241 758.180664062 l 5
62 28 m 5
 92 58 l 5
 206 58 l 5
 235 29 l 5
 206 0 l 5
 89 0 l 5
 62 28 l 5
241 28 m 5
 271 58 l 5
 385 58 l 5
 414 29 l 5
 385 0 l 5
 268 0 l 5
 241 28 l 5
EndSplineSet
EndUndoOperation
UndoOperation
Index: 1
Type: 1
WasModified: 0
WasOrder2: 0
Layer: 2
Width: 512
VWidth: 1024
LBearingChange: 0
UnicodeEnc: 0
InstructionsLength: 0
EndUndoOperation
UndoOperation
Index: 2
Type: 3
WasModified: 0
WasOrder2: 0
Layer: 2
EndUndoOperation
EndUndoes
Redoes
EndRedoes
EndUndoRedoHistory
Fore
SplineSet
62 392 m 5
 92 422 l 5
 206 422 l 5
 235 393 l 5
 206 364 l 5
 89 364 l 5
 62 392 l 5
420 752 m 5
 450 721 l 5
 450 430 l 5
 421 401 l 5
 392 430 l 5
 392 724 l 5
 420 752 l 5
420 385 m 5
 450 355 l 5
 450 63 l 5
 421 35 l 5
 392 63 l 5
 392 357 l 5
 420 385 l 5
241 392 m 5
 271 422 l 5
 385 422 l 5
 414 393 l 5
 385 364 l 5
 268 364 l 5
 241 392 l 5
62 758 m 5
 92 788 l 5
 206 788 l 5
 235 759 l 5
 206 730 l 5
 89 730 l 5
 62 758 l 5
241 758 m 5
 271 788 l 5
 385 788 l 5
 414 759 l 5
 385 730 l 5
 268 730 l 5
 241 758 l 5
62 28 m 5
 92 58 l 5
 206 58 l 5
 235 29 l 5
 206 0 l 5
 89 0 l 5
 62 28 l 5
241 28 m 5
 271 58 l 5
 385 58 l 5
 414 29 l 5
 385 0 l 5
 268 0 l 5
 241 28 l 5
EndSplineSet
Validated: 1
EndChar

StartChar: four
Encoding: 52 52 67
Width: 512
Flags: HW
LayerCount: 2
UndoRedoHistory
Layer: 1
Undoes
UndoOperation
Index: 0
Type: 1
WasModified: 0
WasOrder2: 0
Layer: 2
Width: 512
VWidth: 1024
LBearingChange: 0
UnicodeEnc: 0
InstructionsLength: 0
SplineSet
68.5 749 m 5
 98.5 718 l 5
 98.5 427 l 5
 70.5 398 l 5
 41.5 427 l 5
 41.5 721 l 5
 68.5 749 l 5
82.5 389 m 5
 112.5 419 l 5
 226.5 419 l 5
 255.5 390 l 5
 226.5 361 l 5
 109.5 361 l 5
 82.5 389 l 5
440.5 749 m 5
 470.5 718 l 5
 470.5 427 l 5
 441.5 398 l 5
 412.5 427 l 5
 412.5 721 l 5
 440.5 749 l 5
440.5 382 m 5
 470.5 352 l 5
 470.5 60 l 5
 441.5 32 l 5
 412.5 60 l 5
 412.5 354 l 5
 440.5 382 l 5
261.5 389 m 5
 291.5 419 l 5
 405.5 419 l 5
 434.5 390 l 5
 405.5 361 l 5
 288.5 361 l 5
 261.5 389 l 5
EndSplineSet
EndUndoOperation
UndoOperation
Index: 1
Type: 1
WasModified: 0
WasOrder2: 0
Layer: 2
Width: 512
VWidth: 1024
LBearingChange: 0
UnicodeEnc: 0
InstructionsLength: 0
EndUndoOperation
UndoOperation
Index: 2
Type: 3
WasModified: 0
WasOrder2: 0
Layer: 2
EndUndoOperation
EndUndoes
Redoes
EndRedoes
EndUndoRedoHistory
Fore
SplineSet
68 749 m 5
 98 718 l 5
 98 427 l 5
 70 398 l 5
 42 427 l 5
 42 721 l 5
 68 749 l 5
82 389 m 5
 112 419 l 5
 226 419 l 5
 256 390 l 5
 226 361 l 5
 110 361 l 5
 82 389 l 5
440 749 m 5
 470 718 l 5
 470 427 l 5
 442 398 l 5
 412 427 l 5
 412 721 l 5
 440 749 l 5
440 382 m 5
 470 352 l 5
 470 60 l 5
 442 32 l 5
 412 60 l 5
 412 354 l 5
 440 382 l 5
262 389 m 5
 292 419 l 5
 406 419 l 5
 434 390 l 5
 406 361 l 5
 288 361 l 5
 262 389 l 5
EndSplineSet
Validated: 1
EndChar

StartChar: five
Encoding: 53 53 68
Width: 512
Flags: HW
LayerCount: 2
UndoRedoHistory
Layer: 1
Undoes
UndoOperation
Index: 0
Type: 1
WasModified: 0
WasOrder2: 0
Layer: 2
Width: 512
VWidth: 1024
LBearingChange: 0
UnicodeEnc: 0
InstructionsLength: 0
SplineSet
68.5 754 m 5
 98.5 723 l 5
 98.5 432 l 5
 70.5 403 l 5
 41.5 432 l 5
 41.5 726 l 5
 68.5 754 l 5
82.5 394 m 5
 112.5 424 l 5
 226.5 424 l 5
 255.5 395 l 5
 226.5 366 l 5
 109.5 366 l 5
 82.5 394 l 5
440.5 387 m 5
 470.5 357 l 5
 470.5 65 l 5
 441.5 37 l 5
 412.5 65 l 5
 412.5 359 l 5
 440.5 387 l 5
261.5 394 m 5
 291.5 424 l 5
 405.5 424 l 5
 434.5 395 l 5
 405.5 366 l 5
 288.5 366 l 5
 261.5 394 l 5
82.5 760 m 5
 112.5 790 l 5
 226.5 790 l 5
 255.5 761 l 5
 226.5 732 l 5
 109.5 732 l 5
 82.5 760 l 5
261.5 760 m 5
 291.5 790 l 5
 405.5 790 l 5
 434.5 761 l 5
 405.5 732 l 5
 288.5 732 l 5
 261.5 760 l 5
82.5 29.8193359375 m 5
 112.5 59.8193359375 l 5
 226.5 59.8193359375 l 5
 255.5 30.8193359375 l 5
 226.5 1.8193359375 l 5
 109.5 1.8193359375 l 5
 82.5 29.8193359375 l 5
261.5 29.8193359375 m 5
 291.5 59.8193359375 l 5
 405.5 59.8193359375 l 5
 434.5 30.8193359375 l 5
 405.5 1.8193359375 l 5
 288.5 1.8193359375 l 5
 261.5 29.8193359375 l 5
EndSplineSet
EndUndoOperation
UndoOperation
Index: 1
Type: 1
WasModified: 0
WasOrder2: 0
Layer: 2
Width: 512
VWidth: 1024
LBearingChange: 0
UnicodeEnc: 0
InstructionsLength: 0
EndUndoOperation
UndoOperation
Index: 2
Type: 3
WasModified: 0
WasOrder2: 0
Layer: 2
EndUndoOperation
EndUndoes
Redoes
EndRedoes
EndUndoRedoHistory
Fore
SplineSet
68 754 m 5
 98 723 l 5
 98 432 l 5
 70 403 l 5
 42 432 l 5
 42 726 l 5
 68 754 l 5
82 394 m 5
 112 424 l 5
 226 424 l 5
 256 395 l 5
 226 366 l 5
 110 366 l 5
 82 394 l 5
440 387 m 5
 470 357 l 5
 470 65 l 5
 442 37 l 5
 412 65 l 5
 412 359 l 5
 440 387 l 5
262 394 m 5
 292 424 l 5
 406 424 l 5
 434 395 l 5
 406 366 l 5
 288 366 l 5
 262 394 l 5
82 760 m 5
 112 790 l 5
 226 790 l 5
 256 761 l 5
 226 732 l 5
 110 732 l 5
 82 760 l 5
262 760 m 5
 292 790 l 5
 406 790 l 5
 434 761 l 5
 406 732 l 5
 288 732 l 5
 262 760 l 5
82 30 m 5
 112 60 l 5
 226 60 l 5
 256 31 l 5
 226 2 l 5
 110 2 l 5
 82 30 l 5
262 30 m 5
 292 60 l 5
 406 60 l 5
 434 31 l 5
 406 2 l 5
 288 2 l 5
 262 30 l 5
EndSplineSet
Validated: 1
EndChar

StartChar: six
Encoding: 54 54 69
Width: 512
Flags: HW
LayerCount: 2
UndoRedoHistory
Layer: 1
Undoes
UndoOperation
Index: 0
Type: 1
WasModified: 0
WasOrder2: 0
Layer: 2
Width: 512
VWidth: 1024
LBearingChange: 0
UnicodeEnc: 0
InstructionsLength: 0
SplineSet
68.5 752.180664062 m 5
 98.5 721.180664062 l 5
 98.5 430.180664062 l 5
 70.5 401.180664062 l 5
 41.5 430.180664062 l 5
 41.5 724.180664062 l 5
 68.5 752.180664062 l 5
68.5 381.180664062 m 5
 98.5 351.180664062 l 5
 98.5 60.1806640625 l 5
 70.5 31.1806640625 l 5
 41.5 60.1806640625 l 5
 41.5 353.180664062 l 5
 68.5 381.180664062 l 5
82.5 392.180664062 m 5
 112.5 422.180664062 l 5
 226.5 422.180664062 l 5
 255.5 393.180664062 l 5
 226.5 364.180664062 l 5
 109.5 364.180664062 l 5
 82.5 392.180664062 l 5
440.5 385.180664062 m 5
 470.5 355.180664062 l 5
 470.5 63.1806640625 l 5
 441.5 35.1806640625 l 5
 412.5 63.1806640625 l 5
 412.5 357.180664062 l 5
 440.5 385.180664062 l 5
261.5 392.180664062 m 5
 291.5 422.180664062 l 5
 405.5 422.180664062 l 5
 434.5 393.180664062 l 5
 405.5 364.180664062 l 5
 288.5 364.180664062 l 5
 261.5 392.180664062 l 5
82.5 758.180664062 m 5
 112.5 788.180664062 l 5
 226.5 788.180664062 l 5
 255.5 759.180664062 l 5
 226.5 730.180664062 l 5
 109.5 730.180664062 l 5
 82.5 758.180664062 l 5
261.5 758.180664062 m 5
 291.5 788.180664062 l 5
 405.5 788.180664062 l 5
 434.5 759.180664062 l 5
 405.5 730.180664062 l 5
 288.5 730.180664062 l 5
 261.5 758.180664062 l 5
82.5 28 m 5
 112.5 58 l 5
 226.5 58 l 5
 255.5 29 l 5
 226.5 0 l 5
 109.5 0 l 5
 82.5 28 l 5
261.5 28 m 5
 291.5 58 l 5
 405.5 58 l 5
 434.5 29 l 5
 405.5 0 l 5
 288.5 0 l 5
 261.5 28 l 5
EndSplineSet
EndUndoOperation
UndoOperation
Index: 1
Type: 1
WasModified: 0
WasOrder2: 0
Layer: 2
Width: 512
VWidth: 1024
LBearingChange: 0
UnicodeEnc: 0
InstructionsLength: 0
EndUndoOperation
UndoOperation
Index: 2
Type: 3
WasModified: 0
WasOrder2: 0
Layer: 2
EndUndoOperation
EndUndoes
Redoes
EndRedoes
EndUndoRedoHistory
Fore
SplineSet
68 752 m 5
 98 721 l 5
 98 430 l 5
 70 401 l 5
 42 430 l 5
 42 724 l 5
 68 752 l 5
68 381 m 5
 98 351 l 5
 98 60 l 5
 70 31 l 5
 42 60 l 5
 42 353 l 5
 68 381 l 5
82 392 m 5
 112 422 l 5
 226 422 l 5
 256 393 l 5
 226 364 l 5
 110 364 l 5
 82 392 l 5
440 385 m 5
 470 355 l 5
 470 63 l 5
 442 35 l 5
 412 63 l 5
 412 357 l 5
 440 385 l 5
262 392 m 5
 292 422 l 5
 406 422 l 5
 434 393 l 5
 406 364 l 5
 288 364 l 5
 262 392 l 5
82 758 m 5
 112 788 l 5
 226 788 l 5
 256 759 l 5
 226 730 l 5
 110 730 l 5
 82 758 l 5
262 758 m 5
 292 788 l 5
 406 788 l 5
 434 759 l 5
 406 730 l 5
 288 730 l 5
 262 758 l 5
82 28 m 5
 112 58 l 5
 226 58 l 5
 256 29 l 5
 226 0 l 5
 110 0 l 5
 82 28 l 5
262 28 m 5
 292 58 l 5
 406 58 l 5
 434 29 l 5
 406 0 l 5
 288 0 l 5
 262 28 l 5
EndSplineSet
Validated: 1
EndChar

StartChar: seven
Encoding: 55 55 70
Width: 512
Flags: HW
LayerCount: 2
UndoRedoHistory
Layer: 1
Undoes
UndoOperation
Index: 0
Type: 1
WasModified: 0
WasOrder2: 0
Layer: 2
Width: 512
VWidth: 1024
LBearingChange: 0
UnicodeEnc: 0
InstructionsLength: 0
SplineSet
290 418 m 5
 290 461 l 5
 364 702 l 5
 405 702 l 5
 405 661 l 5
 329 418 l 5
 290 418 l 5
255 358 m 5
 285 328 l 5
 285 76 l 5
 256 47 l 5
 227 76 l 5
 227 330 l 5
 255 358 l 5
80 740 m 5
 110 770 l 5
 224 770 l 5
 253 741 l 5
 224 712 l 5
 107 712 l 5
 80 740 l 5
259 740 m 5
 289 770 l 5
 403 770 l 5
 432 741 l 5
 403 712 l 5
 286 712 l 5
 259 740 l 5
EndSplineSet
EndUndoOperation
UndoOperation
Index: 1
Type: 1
WasModified: 0
WasOrder2: 0
Layer: 2
Width: 512
VWidth: 1024
LBearingChange: 0
UnicodeEnc: 0
InstructionsLength: 0
EndUndoOperation
UndoOperation
Index: 2
Type: 3
WasModified: 0
WasOrder2: 0
Layer: 2
EndUndoOperation
EndUndoes
Redoes
EndRedoes
EndUndoRedoHistory
Fore
SplineSet
290 418 m 5
 290 461 l 5
 364 702 l 5
 405 702 l 5
 405 661 l 5
 329 418 l 5
 290 418 l 5
255 358 m 5
 285 328 l 5
 285 76 l 5
 256 47 l 5
 227 76 l 5
 227 330 l 5
 255 358 l 5
80 740 m 5
 110 770 l 5
 224 770 l 5
 253 741 l 5
 224 712 l 5
 107 712 l 5
 80 740 l 5
259 740 m 5
 289 770 l 5
 403 770 l 5
 432 741 l 5
 403 712 l 5
 286 712 l 5
 259 740 l 5
EndSplineSet
Validated: 1
EndChar

StartChar: eight
Encoding: 56 56 71
Width: 512
Flags: HW
LayerCount: 2
UndoRedoHistory
Layer: 1
Undoes
UndoOperation
Index: 0
Type: 1
WasModified: 0
WasOrder2: 0
Layer: 2
Width: 512
VWidth: 1024
LBearingChange: 0
UnicodeEnc: 0
InstructionsLength: 0
SplineSet
68.5 752.180664062 m 5
 98.5 721.180664062 l 5
 98.5 430.180664062 l 5
 70.5 401.180664062 l 5
 41.5 430.180664062 l 5
 41.5 724.180664062 l 5
 68.5 752.180664062 l 5
68.5 381.180664062 m 5
 98.5 351.180664062 l 5
 98.5 60.1806640625 l 5
 70.5 31.1806640625 l 5
 41.5 60.1806640625 l 5
 41.5 353.180664062 l 5
 68.5 381.180664062 l 5
82.5 392.180664062 m 5
 112.5 422.180664062 l 5
 226.5 422.180664062 l 5
 255.5 393.180664062 l 5
 226.5 364.180664062 l 5
 109.5 364.180664062 l 5
 82.5 392.180664062 l 5
440.5 752.180664062 m 5
 470.5 721.180664062 l 5
 470.5 430.180664062 l 5
 441.5 401.180664062 l 5
 412.5 430.180664062 l 5
 412.5 724.180664062 l 5
 440.5 752.180664062 l 5
440.5 385.180664062 m 5
 470.5 355.180664062 l 5
 470.5 63.1806640625 l 5
 441.5 35.1806640625 l 5
 412.5 63.1806640625 l 5
 412.5 357.180664062 l 5
 440.5 385.180664062 l 5
261.5 392.180664062 m 5
 291.5 422.180664062 l 5
 405.5 422.180664062 l 5
 434.5 393.180664062 l 5
 405.5 364.180664062 l 5
 288.5 364.180664062 l 5
 261.5 392.180664062 l 5
82.5 758.180664062 m 5
 112.5 788.180664062 l 5
 226.5 788.180664062 l 5
 255.5 759.180664062 l 5
 226.5 730.180664062 l 5
 109.5 730.180664062 l 5
 82.5 758.180664062 l 5
261.5 758.180664062 m 5
 291.5 788.180664062 l 5
 405.5 788.180664062 l 5
 434.5 759.180664062 l 5
 405.5 730.180664062 l 5
 288.5 730.180664062 l 5
 261.5 758.180664062 l 5
82.5 28 m 5
 112.5 58 l 5
 226.5 58 l 5
 255.5 29 l 5
 226.5 0 l 5
 109.5 0 l 5
 82.5 28 l 5
261.5 28 m 5
 291.5 58 l 5
 405.5 58 l 5
 434.5 29 l 5
 405.5 0 l 5
 288.5 0 l 5
 261.5 28 l 5
EndSplineSet
EndUndoOperation
UndoOperation
Index: 1
Type: 1
WasModified: 0
WasOrder2: 0
Layer: 2
Width: 512
VWidth: 1024
LBearingChange: 0
UnicodeEnc: 0
InstructionsLength: 0
EndUndoOperation
UndoOperation
Index: 2
Type: 3
WasModified: 0
WasOrder2: 0
Layer: 2
EndUndoOperation
EndUndoes
Redoes
EndRedoes
EndUndoRedoHistory
Fore
SplineSet
68 752 m 5
 98 721 l 5
 98 430 l 5
 70 401 l 5
 42 430 l 5
 42 724 l 5
 68 752 l 5
68 381 m 5
 98 351 l 5
 98 60 l 5
 70 31 l 5
 42 60 l 5
 42 353 l 5
 68 381 l 5
82 392 m 5
 112 422 l 5
 226 422 l 5
 256 393 l 5
 226 364 l 5
 110 364 l 5
 82 392 l 5
440 752 m 5
 470 721 l 5
 470 430 l 5
 442 401 l 5
 412 430 l 5
 412 724 l 5
 440 752 l 5
440 385 m 5
 470 355 l 5
 470 63 l 5
 442 35 l 5
 412 63 l 5
 412 357 l 5
 440 385 l 5
262 392 m 5
 292 422 l 5
 406 422 l 5
 434 393 l 5
 406 364 l 5
 288 364 l 5
 262 392 l 5
82 758 m 5
 112 788 l 5
 226 788 l 5
 256 759 l 5
 226 730 l 5
 110 730 l 5
 82 758 l 5
262 758 m 5
 292 788 l 5
 406 788 l 5
 434 759 l 5
 406 730 l 5
 288 730 l 5
 262 758 l 5
82 28 m 5
 112 58 l 5
 226 58 l 5
 256 29 l 5
 226 0 l 5
 110 0 l 5
 82 28 l 5
262 28 m 5
 292 58 l 5
 406 58 l 5
 434 29 l 5
 406 0 l 5
 288 0 l 5
 262 28 l 5
EndSplineSet
Validated: 1
EndChar

StartChar: nine
Encoding: 57 57 72
Width: 512
Flags: HW
LayerCount: 2
UndoRedoHistory
Layer: 1
Undoes
UndoOperation
Index: 0
Type: 1
WasModified: 0
WasOrder2: 0
Layer: 2
Width: 512
VWidth: 1024
LBearingChange: 0
UnicodeEnc: 0
InstructionsLength: 0
SplineSet
68.5 748 m 5
 98.5 717 l 5
 98.5 426 l 5
 70.5 397 l 5
 41.5 426 l 5
 41.5 720 l 5
 68.5 748 l 5
82.5 388 m 5
 112.5 418 l 5
 226.5 418 l 5
 255.5 389 l 5
 226.5 360 l 5
 109.5 360 l 5
 82.5 388 l 5
440.5 748 m 5
 470.5 717 l 5
 470.5 426 l 5
 441.5 397 l 5
 412.5 426 l 5
 412.5 720 l 5
 440.5 748 l 5
440.5 381 m 5
 470.5 351 l 5
 470.5 59 l 5
 441.5 31 l 5
 412.5 59 l 5
 412.5 353 l 5
 440.5 381 l 5
261.5 388 m 5
 291.5 418 l 5
 405.5 418 l 5
 434.5 389 l 5
 405.5 360 l 5
 288.5 360 l 5
 261.5 388 l 5
82.5 754 m 5
 112.5 784 l 5
 226.5 784 l 5
 255.5 755 l 5
 226.5 726 l 5
 109.5 726 l 5
 82.5 754 l 5
261.5 754 m 5
 291.5 784 l 5
 405.5 784 l 5
 434.5 755 l 5
 405.5 726 l 5
 288.5 726 l 5
 261.5 754 l 5
EndSplineSet
EndUndoOperation
UndoOperation
Index: 1
Type: 1
WasModified: 0
WasOrder2: 0
Layer: 2
Width: 512
VWidth: 1024
LBearingChange: 0
UnicodeEnc: 0
InstructionsLength: 0
EndUndoOperation
UndoOperation
Index: 2
Type: 3
WasModified: 0
WasOrder2: 0
Layer: 2
EndUndoOperation
EndUndoes
Redoes
EndRedoes
EndUndoRedoHistory
Fore
SplineSet
68 748 m 5
 98 717 l 5
 98 426 l 5
 70 397 l 5
 42 426 l 5
 42 720 l 5
 68 748 l 5
82 388 m 5
 112 418 l 5
 226 418 l 5
 256 389 l 5
 226 360 l 5
 110 360 l 5
 82 388 l 5
440 748 m 5
 470 717 l 5
 470 426 l 5
 442 397 l 5
 412 426 l 5
 412 720 l 5
 440 748 l 5
440 381 m 5
 470 351 l 5
 470 59 l 5
 442 31 l 5
 412 59 l 5
 412 353 l 5
 440 381 l 5
262 388 m 5
 292 418 l 5
 406 418 l 5
 434 389 l 5
 406 360 l 5
 288 360 l 5
 262 388 l 5
82 754 m 5
 112 784 l 5
 226 784 l 5
 256 755 l 5
 226 726 l 5
 110 726 l 5
 82 754 l 5
262 754 m 5
 292 784 l 5
 406 784 l 5
 434 755 l 5
 406 726 l 5
 288 726 l 5
 262 754 l 5
EndSplineSet
Validated: 1
EndChar

StartChar: colon
Encoding: 58 58 73
Width: 512
Flags: HW
LayerCount: 2
UndoRedoHistory
Layer: 1
Undoes
UndoOperation
Index: 0
Type: 1
WasModified: 0
WasOrder2: 0
Layer: 2
Width: 512
VWidth: 1024
LBearingChange: 0
UnicodeEnc: 0
InstructionsLength: 0
SplineSet
193.69140625 273.551757812 m 5
 239.283203125 319.143554688 l 5
 275.756835938 319.143554688 l 5
 318.30859375 275.071289062 l 5
 275.756835938 231 l 5
 236.244140625 231 l 5
 193.69140625 273.551757812 l 5
193.69140625 504.030273438 m 5
 239.283203125 549.622070312 l 5
 275.756835938 549.622070312 l 5
 318.30859375 505.549804688 l 5
 275.756835938 461.477539062 l 5
 236.244140625 461.477539062 l 5
 193.69140625 504.030273438 l 5
EndSplineSet
EndUndoOperation
UndoOperation
Index: 1
Type: 1
WasModified: 0
WasOrder2: 0
Layer: 2
Width: 512
VWidth: 1024
LBearingChange: 0
UnicodeEnc: 0
InstructionsLength: 0
EndUndoOperation
UndoOperation
Index: 2
Type: 3
WasModified: 0
WasOrder2: 0
Layer: 2
EndUndoOperation
EndUndoes
Redoes
EndRedoes
EndUndoRedoHistory
Fore
SplineSet
194 274 m 5
 239 319 l 5
 276 319 l 5
 318 275 l 5
 276 231 l 5
 236 231 l 5
 194 274 l 5
194 504 m 5
 239 550 l 5
 276 550 l 5
 318 506 l 5
 276 461 l 5
 236 461 l 5
 194 504 l 5
EndSplineSet
Validated: 1
EndChar

StartChar: semicolon
Encoding: 59 59 74
Width: 512
Flags: HW
LayerCount: 2
UndoRedoHistory
Layer: 1
Undoes
UndoOperation
Index: 0
Type: 1
WasModified: 0
WasOrder2: 0
Layer: 2
Width: 512
VWidth: 1024
LBearingChange: 0
UnicodeEnc: 0
InstructionsLength: 0
SplineSet
193.349609375 270.370117188 m 5
 238.6640625 315.68359375 l 5
 274.9140625 315.68359375 l 5
 317.20703125 271.880859375 l 5
 274.9140625 229.587890625 l 5
 235.642578125 229.587890625 l 5
 193.349609375 270.370117188 l 5
230.431640625 164.963867188 m 5
 279.8984375 222.911132812 l 5
 322.19140625 265.204101562 l 5
 322.19140625 265.204101562 320.189453125 230.029296875 306.8046875 205 c 4
 295.271484375 183.43359375 275.673828125 169.65625 230.431640625 164.963867188 c 5
189.80859375 495.787109375 m 5
 235.400390625 541.37890625 l 5
 271.875 541.37890625 l 5
 314.42578125 497.306640625 l 5
 271.875 453.234375 l 5
 232.361328125 453.234375 l 5
 189.80859375 495.787109375 l 5
EndSplineSet
EndUndoOperation
UndoOperation
Index: 1
Type: 1
WasModified: 0
WasOrder2: 0
Layer: 2
Width: 512
VWidth: 1024
LBearingChange: 0
UnicodeEnc: 0
InstructionsLength: 0
EndUndoOperation
UndoOperation
Index: 2
Type: 3
WasModified: 0
WasOrder2: 0
Layer: 2
EndUndoOperation
EndUndoes
Redoes
EndRedoes
EndUndoRedoHistory
Fore
SplineSet
193 270 m 5
 239 316 l 5
 275 316 l 5
 317 272 l 5
 275 230 l 5
 236 230 l 5
 193 270 l 5
230 165 m 5
 280 223 l 5
 322 265 l 5
 322 265 320 230 307 205 c 4
 295 183 275 170 230 165 c 5
190 496 m 5
 235 541 l 5
 272 541 l 5
 314 497 l 5
 272 453 l 5
 232 453 l 5
 190 496 l 5
EndSplineSet
Validated: 1
EndChar

StartChar: less
Encoding: 60 60 75
Width: 512
Flags: HW
LayerCount: 2
UndoRedoHistory
Layer: 1
Undoes
UndoOperation
Index: 0
Type: 1
WasModified: 0
WasOrder2: 0
Layer: 2
Width: 512
VWidth: 1024
LBearingChange: 0
UnicodeEnc: 0
InstructionsLength: 0
SplineSet
198.5 430 m 5
 198.5 473 l 5
 272.5 714 l 5
 313.5 714 l 5
 313.5 673 l 5
 237.5 430 l 5
 198.5 430 l 5
198.5 349 m 5
 237.5 349 l 5
 313.5 105 l 5
 313.5 65 l 5
 272.5 65 l 5
 198.5 306 l 5
 198.5 349 l 5
EndSplineSet
EndUndoOperation
UndoOperation
Index: 1
Type: 1
WasModified: 0
WasOrder2: 0
Layer: 2
Width: 512
VWidth: 1024
LBearingChange: 0
UnicodeEnc: 0
InstructionsLength: 0
EndUndoOperation
UndoOperation
Index: 2
Type: 3
WasModified: 0
WasOrder2: 0
Layer: 2
EndUndoOperation
EndUndoes
Redoes
EndRedoes
EndUndoRedoHistory
Fore
SplineSet
198 430 m 5
 198 473 l 5
 272 714 l 5
 314 714 l 5
 314 673 l 5
 238 430 l 5
 198 430 l 5
198 349 m 5
 238 349 l 5
 314 105 l 5
 314 65 l 5
 272 65 l 5
 198 306 l 5
 198 349 l 5
EndSplineSet
Validated: 1
EndChar

StartChar: equal
Encoding: 61 61 76
Width: 512
Flags: HW
LayerCount: 2
UndoRedoHistory
Layer: 1
Undoes
UndoOperation
Index: 0
Type: 1
WasModified: 0
WasOrder2: 0
Layer: 2
Width: 512
VWidth: 1024
LBearingChange: 0
UnicodeEnc: 0
InstructionsLength: 0
SplineSet
80 219 m 5
 110 249 l 5
 224 249 l 5
 253 220 l 5
 224 191 l 5
 107 191 l 5
 80 219 l 5
259 219 m 5
 289 249 l 5
 403 249 l 5
 432 220 l 5
 403 191 l 5
 286 191 l 5
 259 219 l 5
80 585 m 5
 110 615 l 5
 224 615 l 5
 253 586 l 5
 224 557 l 5
 107 557 l 5
 80 585 l 5
259 585 m 5
 289 615 l 5
 403 615 l 5
 432 586 l 5
 403 557 l 5
 286 557 l 5
 259 585 l 5
EndSplineSet
EndUndoOperation
UndoOperation
Index: 1
Type: 1
WasModified: 0
WasOrder2: 0
Layer: 2
Width: 512
VWidth: 1024
LBearingChange: 0
UnicodeEnc: 0
InstructionsLength: 0
EndUndoOperation
UndoOperation
Index: 2
Type: 3
WasModified: 0
WasOrder2: 0
Layer: 2
EndUndoOperation
EndUndoes
Redoes
EndRedoes
EndUndoRedoHistory
Fore
SplineSet
80 219 m 5
 110 249 l 5
 224 249 l 5
 253 220 l 5
 224 191 l 5
 107 191 l 5
 80 219 l 5
259 219 m 5
 289 249 l 5
 403 249 l 5
 432 220 l 5
 403 191 l 5
 286 191 l 5
 259 219 l 5
80 585 m 5
 110 615 l 5
 224 615 l 5
 253 586 l 5
 224 557 l 5
 107 557 l 5
 80 585 l 5
259 585 m 5
 289 615 l 5
 403 615 l 5
 432 586 l 5
 403 557 l 5
 286 557 l 5
 259 585 l 5
EndSplineSet
Validated: 1
EndChar

StartChar: greater
Encoding: 62 62 77
Width: 512
Flags: HW
LayerCount: 2
UndoRedoHistory
Layer: 1
Undoes
UndoOperation
Index: 0
Type: 1
WasModified: 0
WasOrder2: 0
Layer: 2
Width: 512
VWidth: 1024
LBearingChange: 0
UnicodeEnc: 0
InstructionsLength: 0
SplineSet
197 712 m 5
 236 712 l 5
 315 469 l 5
 315 428 l 5
 274 428 l 5
 197 670 l 5
 197 712 l 5
197 63 m 5
 197 105 l 5
 274 347 l 5
 315 347 l 5
 315 306 l 5
 236 63 l 5
 197 63 l 5
EndSplineSet
EndUndoOperation
UndoOperation
Index: 1
Type: 1
WasModified: 0
WasOrder2: 0
Layer: 2
Width: 512
VWidth: 1024
LBearingChange: 0
UnicodeEnc: 0
InstructionsLength: 0
EndUndoOperation
UndoOperation
Index: 2
Type: 3
WasModified: 0
WasOrder2: 0
Layer: 2
EndUndoOperation
EndUndoes
Redoes
EndRedoes
EndUndoRedoHistory
Fore
SplineSet
197 712 m 5
 236 712 l 5
 315 469 l 5
 315 428 l 5
 274 428 l 5
 197 670 l 5
 197 712 l 5
197 63 m 5
 197 105 l 5
 274 347 l 5
 315 347 l 5
 315 306 l 5
 236 63 l 5
 197 63 l 5
EndSplineSet
Validated: 1
EndChar

StartChar: question
Encoding: 63 63 78
Width: 512
Flags: HW
LayerCount: 2
UndoRedoHistory
Layer: 1
Undoes
UndoOperation
Index: 0
Type: 1
WasModified: 0
WasOrder2: 0
Layer: 2
Width: 512
VWidth: 1024
LBearingChange: 0
UnicodeEnc: 0
InstructionsLength: 0
SplineSet
420 690.97265625 m 1
 450 659.97265625 l 1
 450 368.97265625 l 1
 421 339.97265625 l 1
 392 368.97265625 l 1
 392 662.97265625 l 1
 420 690.97265625 l 1
241 330.97265625 m 1
 271 360.97265625 l 1
 385 360.97265625 l 1
 414 331.97265625 l 1
 385 302.97265625 l 1
 268 302.97265625 l 1
 241 330.97265625 l 1
237 314.97265625 m 1
 267 284.97265625 l 1
 267 141.71875 l 1
 238 112.71875 l 1
 209 141.71875 l 1
 209 286.97265625 l 1
 237 314.97265625 l 1
62 696.97265625 m 1
 92 726.97265625 l 1
 206 726.97265625 l 1
 235 697.97265625 l 1
 206 668.97265625 l 1
 89 668.97265625 l 1
 62 696.97265625 l 1
241 696.97265625 m 1
 271 726.97265625 l 1
 385 726.97265625 l 1
 414 697.97265625 l 1
 385 668.97265625 l 1
 268 668.97265625 l 1
 241 696.97265625 l 1
196.51953125 27 m 1
 226.51953125 57 l 1
 250.51953125 57 l 1
 278.51953125 28 l 1
 250.51953125 0 l 1
 224.51953125 0 l 1
 196.51953125 27 l 1
EndSplineSet
EndUndoOperation
UndoOperation
Index: 1
Type: 1
WasModified: 0
WasOrder2: 0
Layer: 2
Width: 512
VWidth: 1024
LBearingChange: 0
UnicodeEnc: 0
InstructionsLength: 0
EndUndoOperation
UndoOperation
Index: 2
Type: 3
WasModified: 0
WasOrder2: 0
Layer: 2
EndUndoOperation
EndUndoes
Redoes
EndRedoes
EndUndoRedoHistory
Fore
SplineSet
420 691 m 1
 450 660 l 1
 450 369 l 1
 421 340 l 1
 392 369 l 1
 392 663 l 1
 420 691 l 1
241 331 m 1
 271 361 l 1
 385 361 l 1
 414 332 l 1
 385 303 l 1
 268 303 l 1
 241 331 l 1
237 315 m 1
 267 285 l 1
 267 142 l 1
 238 113 l 1
 209 142 l 1
 209 287 l 1
 237 315 l 1
62 697 m 1
 92 727 l 1
 206 727 l 1
 235 698 l 1
 206 669 l 1
 89 669 l 1
 62 697 l 1
241 697 m 1
 271 727 l 1
 385 727 l 1
 414 698 l 1
 385 669 l 1
 268 669 l 1
 241 697 l 1
197 27 m 1
 227 57 l 1
 251 57 l 1
 279 28 l 1
 251 0 l 1
 225 0 l 1
 197 27 l 1
EndSplineSet
Validated: 1
EndChar

StartChar: at
Encoding: 64 64 79
Width: 512
Flags: HW
LayerCount: 2
UndoRedoHistory
Layer: 1
Undoes
UndoOperation
Index: 0
Type: 1
WasModified: 0
WasOrder2: 0
Layer: 2
Width: 512
VWidth: 1024
LBearingChange: 0
UnicodeEnc: 0
InstructionsLength: 0
SplineSet
82.5 757 m 1
 112.5 787 l 1
 403.5 787 l 1
 432.5 758 l 1
 403.5 729 l 1
 109.5 729 l 1
 82.5 757 l 1
68.5 751 m 1
 98.5 720 l 1
 98.5 429 l 1
 70.5 400 l 1
 41.5 429 l 1
 41.5 723 l 1
 68.5 751 l 1
68.5 380 m 1
 98.5 350 l 1
 98.5 59 l 1
 70.5 30 l 1
 41.5 59 l 1
 41.5 352 l 1
 68.5 380 l 1
82.5 28 m 1
 112.5 58 l 1
 403.5 58 l 1
 432.5 29 l 1
 403.5 0 l 1
 109.5 0 l 1
 82.5 28 l 1
440.5 751 m 1
 470.5 720 l 1
 470.5 429 l 1
 441.5 400 l 1
 412.5 429 l 1
 412.5 723 l 1
 440.5 751 l 1
440.5 211.237304688 m 1
 470.5 181.237304688 l 1
 470.5 62 l 1
 441.5 34 l 1
 412.5 62 l 1
 412.5 183.237304688 l 1
 440.5 211.237304688 l 1
261.5 391 m 1
 291.5 421 l 1
 405.5 421 l 1
 434.5 392 l 1
 405.5 363 l 1
 288.5 363 l 1
 261.5 391 l 1
253.780273438 553.090820312 m 1
 283.780273438 523.090820312 l 1
 283.780273438 426.396484375 l 1
 254.780273438 397.396484375 l 1
 225.780273438 426.396484375 l 1
 225.780273438 525.090820312 l 1
 253.780273438 553.090820312 l 1
EndSplineSet
EndUndoOperation
UndoOperation
Index: 1
Type: 1
WasModified: 0
WasOrder2: 0
Layer: 2
Width: 512
VWidth: 1024
LBearingChange: 0
UnicodeEnc: 0
InstructionsLength: 0
EndUndoOperation
UndoOperation
Index: 2
Type: 3
WasModified: 0
WasOrder2: 0
Layer: 2
EndUndoOperation
EndUndoes
Redoes
EndRedoes
EndUndoRedoHistory
Fore
SplineSet
82 757 m 1
 112 787 l 1
 404 787 l 1
 432 758 l 1
 404 729 l 1
 110 729 l 1
 82 757 l 1
68 751 m 1
 98 720 l 1
 98 429 l 1
 70 400 l 1
 42 429 l 1
 42 723 l 1
 68 751 l 1
68 380 m 1
 98 350 l 1
 98 59 l 1
 70 30 l 1
 42 59 l 1
 42 352 l 1
 68 380 l 1
82 28 m 1
 112 58 l 1
 404 58 l 1
 432 29 l 1
 404 0 l 1
 110 0 l 1
 82 28 l 1
440 751 m 1
 470 720 l 1
 470 429 l 1
 442 400 l 1
 412 429 l 1
 412 723 l 1
 440 751 l 1
440 211 m 1
 470 181 l 1
 470 62 l 1
 442 34 l 1
 412 62 l 1
 412 183 l 1
 440 211 l 1
262 391 m 1
 292 421 l 1
 406 421 l 1
 434 392 l 1
 406 363 l 1
 288 363 l 1
 262 391 l 1
254 553 m 1
 284 523 l 1
 284 426 l 1
 255 397 l 1
 226 426 l 1
 226 525 l 1
 254 553 l 1
EndSplineSet
Validated: 1
EndChar

StartChar: I
Encoding: 73 73 80
Width: 512
Flags: HW
LayerCount: 2
UndoRedoHistory
Layer: 1
Undoes
UndoOperation
Index: 0
Type: 1
WasModified: 0
WasOrder2: 0
Layer: 2
Width: 512
VWidth: 1024
LBearingChange: 0
UnicodeEnc: 0
InstructionsLength: 0
SplineSet
255 713.180664062 m 5
 285 683.180664062 l 5
 285 431.180664062 l 5
 256 402.180664062 l 5
 227 431.180664062 l 5
 227 685.180664062 l 5
 255 713.180664062 l 5
255 376.180664062 m 5
 285 346.180664062 l 5
 285 94.1806640625 l 5
 256 65.1806640625 l 5
 227 94.1806640625 l 5
 227 348.180664062 l 5
 255 376.180664062 l 5
80 758.180664062 m 5
 110 788.180664062 l 5
 224 788.180664062 l 5
 253 759.180664062 l 5
 224 730.180664062 l 5
 107 730.180664062 l 5
 80 758.180664062 l 5
259 758.180664062 m 5
 289 788.180664062 l 5
 403 788.180664062 l 5
 432 759.180664062 l 5
 403 730.180664062 l 5
 286 730.180664062 l 5
 259 758.180664062 l 5
80 28 m 5
 110 58 l 5
 224 58 l 5
 253 29 l 5
 224 0 l 5
 107 0 l 5
 80 28 l 5
259 28 m 5
 289 58 l 5
 403 58 l 5
 432 29 l 5
 403 0 l 5
 286 0 l 5
 259 28 l 5
EndSplineSet
EndUndoOperation
UndoOperation
Index: 1
Type: 1
WasModified: 0
WasOrder2: 0
Layer: 2
Width: 512
VWidth: 1024
LBearingChange: 0
UnicodeEnc: 0
InstructionsLength: 0
EndUndoOperation
UndoOperation
Index: 2
Type: 3
WasModified: 0
WasOrder2: 0
Layer: 2
EndUndoOperation
EndUndoes
Redoes
EndRedoes
EndUndoRedoHistory
Fore
SplineSet
255 713 m 5
 285 683 l 5
 285 431 l 5
 256 402 l 5
 227 431 l 5
 227 685 l 5
 255 713 l 5
255 376 m 5
 285 346 l 5
 285 94 l 5
 256 65 l 5
 227 94 l 5
 227 348 l 5
 255 376 l 5
80 758 m 5
 110 788 l 5
 224 788 l 5
 253 759 l 5
 224 730 l 5
 107 730 l 5
 80 758 l 5
259 758 m 5
 289 788 l 5
 403 788 l 5
 432 759 l 5
 403 730 l 5
 286 730 l 5
 259 758 l 5
80 28 m 5
 110 58 l 5
 224 58 l 5
 253 29 l 5
 224 0 l 5
 107 0 l 5
 80 28 l 5
259 28 m 5
 289 58 l 5
 403 58 l 5
 432 29 l 5
 403 0 l 5
 286 0 l 5
 259 28 l 5
EndSplineSet
Validated: 1
EndChar

StartChar: J
Encoding: 74 74 81
Width: 512
Flags: HW
LayerCount: 2
UndoRedoHistory
Layer: 1
Undoes
UndoOperation
Index: 0
Type: 1
WasModified: 0
WasOrder2: 0
Layer: 2
Width: 512
VWidth: 1024
LBearingChange: 0
UnicodeEnc: 0
InstructionsLength: 0
SplineSet
68.5 381.180664062 m 5
 98.5 351.180664062 l 5
 98.5 60.1806640625 l 5
 70.5 31.1806640625 l 5
 41.5 60.1806640625 l 5
 41.5 353.180664062 l 5
 68.5 381.180664062 l 5
440.5 752.180664062 m 5
 470.5 721.180664062 l 5
 470.5 430.180664062 l 5
 441.5 401.180664062 l 5
 412.5 430.180664062 l 5
 412.5 724.180664062 l 5
 440.5 752.180664062 l 5
440.5 385.180664062 m 5
 470.5 355.180664062 l 5
 470.5 63.1806640625 l 5
 441.5 35.1806640625 l 5
 412.5 63.1806640625 l 5
 412.5 357.180664062 l 5
 440.5 385.180664062 l 5
82.5 28 m 5
 112.5 58 l 5
 226.5 58 l 5
 255.5 29 l 5
 226.5 0 l 5
 109.5 0 l 5
 82.5 28 l 5
261.5 28 m 5
 291.5 58 l 5
 405.5 58 l 5
 434.5 29 l 5
 405.5 0 l 5
 288.5 0 l 5
 261.5 28 l 5
EndSplineSet
EndUndoOperation
UndoOperation
Index: 1
Type: 1
WasModified: 0
WasOrder2: 0
Layer: 2
Width: 512
VWidth: 1024
LBearingChange: 0
UnicodeEnc: 0
InstructionsLength: 0
EndUndoOperation
UndoOperation
Index: 2
Type: 3
WasModified: 0
WasOrder2: 0
Layer: 2
EndUndoOperation
EndUndoes
Redoes
EndRedoes
EndUndoRedoHistory
Fore
SplineSet
68 381 m 5
 98 351 l 5
 98 60 l 5
 70 31 l 5
 42 60 l 5
 42 353 l 5
 68 381 l 5
440 752 m 5
 470 721 l 5
 470 430 l 5
 442 401 l 5
 412 430 l 5
 412 724 l 5
 440 752 l 5
440 385 m 5
 470 355 l 5
 470 63 l 5
 442 35 l 5
 412 63 l 5
 412 357 l 5
 440 385 l 5
82 28 m 5
 112 58 l 5
 226 58 l 5
 256 29 l 5
 226 0 l 5
 110 0 l 5
 82 28 l 5
262 28 m 5
 292 58 l 5
 406 58 l 5
 434 29 l 5
 406 0 l 5
 288 0 l 5
 262 28 l 5
EndSplineSet
Validated: 1
EndChar

StartChar: K
Encoding: 75 75 82
Width: 512
Flags: HW
LayerCount: 2
UndoRedoHistory
Layer: 1
Undoes
UndoOperation
Index: 0
Type: 1
WasModified: 0
WasOrder2: 0
Layer: 2
Width: 512
VWidth: 1024
LBearingChange: 0
UnicodeEnc: 0
InstructionsLength: 0
SplineSet
100 746 m 5
 130 715 l 5
 130 424 l 5
 102 395 l 5
 73 424 l 5
 73 718 l 5
 100 746 l 5
100 375 m 5
 130 345 l 5
 130 54 l 5
 102 25 l 5
 73 54 l 5
 73 347 l 5
 100 375 l 5
114 386 m 5
 144 416 l 5
 258 416 l 5
 287 387 l 5
 258 358 l 5
 141 358 l 5
 114 386 l 5
324 430 m 5
 324 473 l 5
 398 714 l 5
 439 714 l 5
 439 673 l 5
 363 430 l 5
 324 430 l 5
324 349 m 5
 363 349 l 5
 439 105 l 5
 439 65 l 5
 398 65 l 5
 324 306 l 5
 324 349 l 5
EndSplineSet
EndUndoOperation
UndoOperation
Index: 1
Type: 1
WasModified: 0
WasOrder2: 0
Layer: 2
Width: 512
VWidth: 1024
LBearingChange: 0
UnicodeEnc: 0
InstructionsLength: 0
EndUndoOperation
UndoOperation
Index: 2
Type: 3
WasModified: 0
WasOrder2: 0
Layer: 2
EndUndoOperation
EndUndoes
Redoes
EndRedoes
EndUndoRedoHistory
Fore
SplineSet
100 746 m 5
 130 715 l 5
 130 424 l 5
 102 395 l 5
 73 424 l 5
 73 718 l 5
 100 746 l 5
100 375 m 5
 130 345 l 5
 130 54 l 5
 102 25 l 5
 73 54 l 5
 73 347 l 5
 100 375 l 5
114 386 m 5
 144 416 l 5
 258 416 l 5
 287 387 l 5
 258 358 l 5
 141 358 l 5
 114 386 l 5
324 430 m 5
 324 473 l 5
 398 714 l 5
 439 714 l 5
 439 673 l 5
 363 430 l 5
 324 430 l 5
324 349 m 5
 363 349 l 5
 439 105 l 5
 439 65 l 5
 398 65 l 5
 324 306 l 5
 324 349 l 5
EndSplineSet
Validated: 1
EndChar

StartChar: L
Encoding: 76 76 83
Width: 512
Flags: HW
LayerCount: 2
UndoRedoHistory
Layer: 1
Undoes
UndoOperation
Index: 0
Type: 1
WasModified: 0
WasOrder2: 0
Layer: 2
Width: 512
VWidth: 1024
LBearingChange: 0
UnicodeEnc: 0
InstructionsLength: 0
SplineSet
86.5 752.180664062 m 5
 116.5 721.180664062 l 5
 116.5 430.180664062 l 5
 88.5 401.180664062 l 5
 59.5 430.180664062 l 5
 59.5 724.180664062 l 5
 86.5 752.180664062 l 5
86.5 381.180664062 m 5
 116.5 351.180664062 l 5
 116.5 60.1806640625 l 5
 88.5 31.1806640625 l 5
 59.5 60.1806640625 l 5
 59.5 353.180664062 l 5
 86.5 381.180664062 l 5
100.5 28 m 5
 130.5 58 l 5
 244.5 58 l 5
 273.5 29 l 5
 244.5 0 l 5
 127.5 0 l 5
 100.5 28 l 5
279.5 28 m 5
 309.5 58 l 5
 423.5 58 l 5
 452.5 29 l 5
 423.5 0 l 5
 306.5 0 l 5
 279.5 28 l 5
EndSplineSet
EndUndoOperation
UndoOperation
Index: 1
Type: 1
WasModified: 0
WasOrder2: 0
Layer: 2
Width: 512
VWidth: 1024
LBearingChange: 0
UnicodeEnc: 0
InstructionsLength: 0
EndUndoOperation
UndoOperation
Index: 2
Type: 3
WasModified: 0
WasOrder2: 0
Layer: 2
EndUndoOperation
EndUndoes
Redoes
EndRedoes
EndUndoRedoHistory
Fore
SplineSet
86 752 m 5
 116 721 l 5
 116 430 l 5
 88 401 l 5
 60 430 l 5
 60 724 l 5
 86 752 l 5
86 381 m 5
 116 351 l 5
 116 60 l 5
 88 31 l 5
 60 60 l 5
 60 353 l 5
 86 381 l 5
100 28 m 5
 130 58 l 5
 244 58 l 5
 274 29 l 5
 244 0 l 5
 128 0 l 5
 100 28 l 5
280 28 m 5
 310 58 l 5
 424 58 l 5
 452 29 l 5
 424 0 l 5
 306 0 l 5
 280 28 l 5
EndSplineSet
Validated: 1
EndChar

StartChar: M
Encoding: 77 77 84
Width: 512
Flags: HW
LayerCount: 2
UndoRedoHistory
Layer: 1
Undoes
UndoOperation
Index: 0
Type: 1
WasModified: 0
WasOrder2: 0
Layer: 2
Width: 512
VWidth: 1024
LBearingChange: 0
UnicodeEnc: 0
InstructionsLength: 0
SplineSet
68.5 746 m 5
 98.5 715 l 5
 98.5 424 l 5
 70.5 395 l 5
 41.5 424 l 5
 41.5 718 l 5
 68.5 746 l 5
68.5 375 m 5
 98.5 345 l 5
 98.5 54 l 5
 70.5 25 l 5
 41.5 54 l 5
 41.5 347 l 5
 68.5 375 l 5
440.5 746 m 5
 470.5 715 l 5
 470.5 424 l 5
 441.5 395 l 5
 412.5 424 l 5
 412.5 718 l 5
 440.5 746 l 5
440.5 379 m 5
 470.5 349 l 5
 470.5 57 l 5
 441.5 29 l 5
 412.5 57 l 5
 412.5 351 l 5
 440.5 379 l 5
292.5 430 m 5
 292.5 473 l 5
 366.5 714 l 5
 407.5 714 l 5
 407.5 673 l 5
 331.5 430 l 5
 292.5 430 l 5
104.5 714 m 5
 143.5 714 l 5
 222.5 471 l 5
 222.5 430 l 5
 181.5 430 l 5
 104.5 672 l 5
 104.5 714 l 5
EndSplineSet
EndUndoOperation
UndoOperation
Index: 1
Type: 1
WasModified: 0
WasOrder2: 0
Layer: 2
Width: 512
VWidth: 1024
LBearingChange: 0
UnicodeEnc: 0
InstructionsLength: 0
EndUndoOperation
UndoOperation
Index: 2
Type: 3
WasModified: 0
WasOrder2: 0
Layer: 2
EndUndoOperation
EndUndoes
Redoes
EndRedoes
EndUndoRedoHistory
Fore
SplineSet
68 746 m 5
 98 715 l 5
 98 424 l 5
 70 395 l 5
 42 424 l 5
 42 718 l 5
 68 746 l 5
68 375 m 5
 98 345 l 5
 98 54 l 5
 70 25 l 5
 42 54 l 5
 42 347 l 5
 68 375 l 5
440 746 m 5
 470 715 l 5
 470 424 l 5
 442 395 l 5
 412 424 l 5
 412 718 l 5
 440 746 l 5
440 379 m 5
 470 349 l 5
 470 57 l 5
 442 29 l 5
 412 57 l 5
 412 351 l 5
 440 379 l 5
292 430 m 5
 292 473 l 5
 366 714 l 5
 408 714 l 5
 408 673 l 5
 332 430 l 5
 292 430 l 5
104 714 m 5
 144 714 l 5
 222 471 l 5
 222 430 l 5
 182 430 l 5
 104 672 l 5
 104 714 l 5
EndSplineSet
Validated: 1
EndChar

StartChar: N
Encoding: 78 78 85
Width: 512
Flags: HW
LayerCount: 2
UndoRedoHistory
Layer: 1
Undoes
UndoOperation
Index: 0
Type: 1
WasModified: 0
WasOrder2: 0
Layer: 2
Width: 512
VWidth: 1024
LBearingChange: 0
UnicodeEnc: 0
InstructionsLength: 0
SplineSet
68.5 745 m 5
 98.5 714 l 5
 98.5 423 l 5
 70.5 394 l 5
 41.5 423 l 5
 41.5 717 l 5
 68.5 745 l 5
68.5 374 m 5
 98.5 344 l 5
 98.5 53 l 5
 70.5 24 l 5
 41.5 53 l 5
 41.5 346 l 5
 68.5 374 l 5
440.5 745 m 5
 470.5 714 l 5
 470.5 423 l 5
 441.5 394 l 5
 412.5 423 l 5
 412.5 717 l 5
 440.5 745 l 5
440.5 378 m 5
 470.5 348 l 5
 470.5 56 l 5
 441.5 28 l 5
 412.5 56 l 5
 412.5 350 l 5
 440.5 378 l 5
104.5 713 m 5
 143.5 713 l 5
 222.5 470 l 5
 222.5 429 l 5
 181.5 429 l 5
 104.5 671 l 5
 104.5 713 l 5
292.5 348 m 5
 331.5 348 l 5
 407.5 104 l 5
 407.5 64 l 5
 366.5 64 l 5
 292.5 305 l 5
 292.5 348 l 5
EndSplineSet
EndUndoOperation
UndoOperation
Index: 1
Type: 1
WasModified: 0
WasOrder2: 0
Layer: 2
Width: 512
VWidth: 1024
LBearingChange: 0
UnicodeEnc: 0
InstructionsLength: 0
EndUndoOperation
UndoOperation
Index: 2
Type: 3
WasModified: 0
WasOrder2: 0
Layer: 2
EndUndoOperation
EndUndoes
Redoes
EndRedoes
EndUndoRedoHistory
Fore
SplineSet
68 745 m 5
 98 714 l 5
 98 423 l 5
 70 394 l 5
 42 423 l 5
 42 717 l 5
 68 745 l 5
68 374 m 5
 98 344 l 5
 98 53 l 5
 70 24 l 5
 42 53 l 5
 42 346 l 5
 68 374 l 5
440 745 m 5
 470 714 l 5
 470 423 l 5
 442 394 l 5
 412 423 l 5
 412 717 l 5
 440 745 l 5
440 378 m 5
 470 348 l 5
 470 56 l 5
 442 28 l 5
 412 56 l 5
 412 350 l 5
 440 378 l 5
104 713 m 5
 144 713 l 5
 222 470 l 5
 222 429 l 5
 182 429 l 5
 104 671 l 5
 104 713 l 5
292 348 m 5
 332 348 l 5
 408 104 l 5
 408 64 l 5
 366 64 l 5
 292 305 l 5
 292 348 l 5
EndSplineSet
Validated: 1
EndChar

StartChar: O
Encoding: 79 79 86
Width: 512
Flags: HW
LayerCount: 2
UndoRedoHistory
Layer: 1
Undoes
UndoOperation
Index: 0
Type: 1
WasModified: 0
WasOrder2: 0
Layer: 2
Width: 512
VWidth: 1024
LBearingChange: 0
UnicodeEnc: 0
InstructionsLength: 0
SplineSet
68.5 752.180664062 m 5
 98.5 721.180664062 l 5
 98.5 430.180664062 l 5
 70.5 401.180664062 l 5
 41.5 430.180664062 l 5
 41.5 724.180664062 l 5
 68.5 752.180664062 l 5
68.5 381.180664062 m 5
 98.5 351.180664062 l 5
 98.5 60.1806640625 l 5
 70.5 31.1806640625 l 5
 41.5 60.1806640625 l 5
 41.5 353.180664062 l 5
 68.5 381.180664062 l 5
440.5 752.180664062 m 5
 470.5 721.180664062 l 5
 470.5 430.180664062 l 5
 441.5 401.180664062 l 5
 412.5 430.180664062 l 5
 412.5 724.180664062 l 5
 440.5 752.180664062 l 5
440.5 385.180664062 m 5
 470.5 355.180664062 l 5
 470.5 63.1806640625 l 5
 441.5 35.1806640625 l 5
 412.5 63.1806640625 l 5
 412.5 357.180664062 l 5
 440.5 385.180664062 l 5
82.5 758.180664062 m 5
 112.5 788.180664062 l 5
 226.5 788.180664062 l 5
 255.5 759.180664062 l 5
 226.5 730.180664062 l 5
 109.5 730.180664062 l 5
 82.5 758.180664062 l 5
261.5 758.180664062 m 5
 291.5 788.180664062 l 5
 405.5 788.180664062 l 5
 434.5 759.180664062 l 5
 405.5 730.180664062 l 5
 288.5 730.180664062 l 5
 261.5 758.180664062 l 5
82.5 28 m 5
 112.5 58 l 5
 226.5 58 l 5
 255.5 29 l 5
 226.5 0 l 5
 109.5 0 l 5
 82.5 28 l 5
261.5 28 m 5
 291.5 58 l 5
 405.5 58 l 5
 434.5 29 l 5
 405.5 0 l 5
 288.5 0 l 5
 261.5 28 l 5
EndSplineSet
EndUndoOperation
UndoOperation
Index: 1
Type: 1
WasModified: 0
WasOrder2: 0
Layer: 2
Width: 512
VWidth: 1024
LBearingChange: 0
UnicodeEnc: 0
InstructionsLength: 0
EndUndoOperation
UndoOperation
Index: 2
Type: 3
WasModified: 0
WasOrder2: 0
Layer: 2
EndUndoOperation
EndUndoes
Redoes
EndRedoes
EndUndoRedoHistory
Fore
SplineSet
68 752 m 5
 98 721 l 5
 98 430 l 5
 70 401 l 5
 42 430 l 5
 42 724 l 5
 68 752 l 5
68 381 m 5
 98 351 l 5
 98 60 l 5
 70 31 l 5
 42 60 l 5
 42 353 l 5
 68 381 l 5
440 752 m 5
 470 721 l 5
 470 430 l 5
 442 401 l 5
 412 430 l 5
 412 724 l 5
 440 752 l 5
440 385 m 5
 470 355 l 5
 470 63 l 5
 442 35 l 5
 412 63 l 5
 412 357 l 5
 440 385 l 5
82 758 m 5
 112 788 l 5
 226 788 l 5
 256 759 l 5
 226 730 l 5
 110 730 l 5
 82 758 l 5
262 758 m 5
 292 788 l 5
 406 788 l 5
 434 759 l 5
 406 730 l 5
 288 730 l 5
 262 758 l 5
82 28 m 5
 112 58 l 5
 226 58 l 5
 256 29 l 5
 226 0 l 5
 110 0 l 5
 82 28 l 5
262 28 m 5
 292 58 l 5
 406 58 l 5
 434 29 l 5
 406 0 l 5
 288 0 l 5
 262 28 l 5
EndSplineSet
Validated: 1
EndChar

StartChar: P
Encoding: 80 80 87
Width: 512
Flags: HW
LayerCount: 2
UndoRedoHistory
Layer: 1
Undoes
UndoOperation
Index: 0
Type: 1
WasModified: 0
WasOrder2: 0
Layer: 2
Width: 512
VWidth: 1024
LBearingChange: 0
UnicodeEnc: 0
InstructionsLength: 0
SplineSet
68.5 748 m 5
 98.5 717 l 5
 98.5 426 l 5
 70.5 397 l 5
 41.5 426 l 5
 41.5 720 l 5
 68.5 748 l 5
68.5 377 m 5
 98.5 347 l 5
 98.5 56 l 5
 70.5 27 l 5
 41.5 56 l 5
 41.5 349 l 5
 68.5 377 l 5
82.5 388 m 5
 112.5 418 l 5
 226.5 418 l 5
 255.5 389 l 5
 226.5 360 l 5
 109.5 360 l 5
 82.5 388 l 5
440.5 748 m 5
 470.5 717 l 5
 470.5 426 l 5
 441.5 397 l 5
 412.5 426 l 5
 412.5 720 l 5
 440.5 748 l 5
261.5 388 m 5
 291.5 418 l 5
 405.5 418 l 5
 434.5 389 l 5
 405.5 360 l 5
 288.5 360 l 5
 261.5 388 l 5
82.5 754 m 5
 112.5 784 l 5
 226.5 784 l 5
 255.5 755 l 5
 226.5 726 l 5
 109.5 726 l 5
 82.5 754 l 5
261.5 754 m 5
 291.5 784 l 5
 405.5 784 l 5
 434.5 755 l 5
 405.5 726 l 5
 288.5 726 l 5
 261.5 754 l 5
EndSplineSet
EndUndoOperation
UndoOperation
Index: 1
Type: 1
WasModified: 0
WasOrder2: 0
Layer: 2
Width: 512
VWidth: 1024
LBearingChange: 0
UnicodeEnc: 0
InstructionsLength: 0
EndUndoOperation
UndoOperation
Index: 2
Type: 3
WasModified: 0
WasOrder2: 0
Layer: 2
EndUndoOperation
EndUndoes
Redoes
EndRedoes
EndUndoRedoHistory
Fore
SplineSet
68 748 m 5
 98 717 l 5
 98 426 l 5
 70 397 l 5
 42 426 l 5
 42 720 l 5
 68 748 l 5
68 377 m 5
 98 347 l 5
 98 56 l 5
 70 27 l 5
 42 56 l 5
 42 349 l 5
 68 377 l 5
82 388 m 5
 112 418 l 5
 226 418 l 5
 256 389 l 5
 226 360 l 5
 110 360 l 5
 82 388 l 5
440 748 m 5
 470 717 l 5
 470 426 l 5
 442 397 l 5
 412 426 l 5
 412 720 l 5
 440 748 l 5
262 388 m 5
 292 418 l 5
 406 418 l 5
 434 389 l 5
 406 360 l 5
 288 360 l 5
 262 388 l 5
82 754 m 5
 112 784 l 5
 226 784 l 5
 256 755 l 5
 226 726 l 5
 110 726 l 5
 82 754 l 5
262 754 m 5
 292 784 l 5
 406 784 l 5
 434 755 l 5
 406 726 l 5
 288 726 l 5
 262 754 l 5
EndSplineSet
Validated: 1
EndChar

StartChar: Q
Encoding: 81 81 88
Width: 512
Flags: HW
LayerCount: 2
UndoRedoHistory
Layer: 1
Undoes
UndoOperation
Index: 0
Type: 1
WasModified: 0
WasOrder2: 0
Layer: 2
Width: 512
VWidth: 1024
LBearingChange: 0
UnicodeEnc: 0
InstructionsLength: 0
SplineSet
68.5 752.180664062 m 5
 98.5 721.180664062 l 5
 98.5 430.180664062 l 5
 70.5 401.180664062 l 5
 41.5 430.180664062 l 5
 41.5 724.180664062 l 5
 68.5 752.180664062 l 5
68.5 381.180664062 m 5
 98.5 351.180664062 l 5
 98.5 60.1806640625 l 5
 70.5 31.1806640625 l 5
 41.5 60.1806640625 l 5
 41.5 353.180664062 l 5
 68.5 381.180664062 l 5
440.5 752.180664062 m 5
 470.5 721.180664062 l 5
 470.5 430.180664062 l 5
 441.5 401.180664062 l 5
 412.5 430.180664062 l 5
 412.5 724.180664062 l 5
 440.5 752.180664062 l 5
440.5 385.180664062 m 5
 470.5 355.180664062 l 5
 470.5 63.1806640625 l 5
 441.5 35.1806640625 l 5
 412.5 63.1806640625 l 5
 412.5 357.180664062 l 5
 440.5 385.180664062 l 5
292.5 355.180664062 m 5
 331.5 355.180664062 l 5
 407.5 111.180664062 l 5
 407.5 71.1806640625 l 5
 366.5 71.1806640625 l 5
 292.5 312.180664062 l 5
 292.5 355.180664062 l 5
82.5 758.180664062 m 5
 112.5 788.180664062 l 5
 226.5 788.180664062 l 5
 255.5 759.180664062 l 5
 226.5 730.180664062 l 5
 109.5 730.180664062 l 5
 82.5 758.180664062 l 5
261.5 758.180664062 m 5
 291.5 788.180664062 l 5
 405.5 788.180664062 l 5
 434.5 759.180664062 l 5
 405.5 730.180664062 l 5
 288.5 730.180664062 l 5
 261.5 758.180664062 l 5
82.5 28 m 5
 112.5 58 l 5
 226.5 58 l 5
 255.5 29 l 5
 226.5 0 l 5
 109.5 0 l 5
 82.5 28 l 5
261.5 28 m 5
 291.5 58 l 5
 405.5 58 l 5
 434.5 29 l 5
 405.5 0 l 5
 288.5 0 l 5
 261.5 28 l 5
EndSplineSet
EndUndoOperation
UndoOperation
Index: 1
Type: 1
WasModified: 0
WasOrder2: 0
Layer: 2
Width: 512
VWidth: 1024
LBearingChange: 0
UnicodeEnc: 0
InstructionsLength: 0
EndUndoOperation
UndoOperation
Index: 2
Type: 3
WasModified: 0
WasOrder2: 0
Layer: 2
EndUndoOperation
EndUndoes
Redoes
EndRedoes
EndUndoRedoHistory
Fore
SplineSet
68 752 m 5
 98 721 l 5
 98 430 l 5
 70 401 l 5
 42 430 l 5
 42 724 l 5
 68 752 l 5
68 381 m 5
 98 351 l 5
 98 60 l 5
 70 31 l 5
 42 60 l 5
 42 353 l 5
 68 381 l 5
440 752 m 5
 470 721 l 5
 470 430 l 5
 442 401 l 5
 412 430 l 5
 412 724 l 5
 440 752 l 5
440 385 m 5
 470 355 l 5
 470 63 l 5
 442 35 l 5
 412 63 l 5
 412 357 l 5
 440 385 l 5
292 355 m 5
 332 355 l 5
 408 111 l 5
 408 71 l 5
 366 71 l 5
 292 312 l 5
 292 355 l 5
82 758 m 5
 112 788 l 5
 226 788 l 5
 256 759 l 5
 226 730 l 5
 110 730 l 5
 82 758 l 5
262 758 m 5
 292 788 l 5
 406 788 l 5
 434 759 l 5
 406 730 l 5
 288 730 l 5
 262 758 l 5
82 28 m 5
 112 58 l 5
 226 58 l 5
 256 29 l 5
 226 0 l 5
 110 0 l 5
 82 28 l 5
262 28 m 5
 292 58 l 5
 406 58 l 5
 434 29 l 5
 406 0 l 5
 288 0 l 5
 262 28 l 5
EndSplineSet
Validated: 1
EndChar

StartChar: R
Encoding: 82 82 89
Width: 512
Flags: HW
LayerCount: 2
UndoRedoHistory
Layer: 1
Undoes
UndoOperation
Index: 0
Type: 1
WasModified: 0
WasOrder2: 0
Layer: 2
Width: 512
VWidth: 1024
LBearingChange: 0
UnicodeEnc: 0
InstructionsLength: 0
SplineSet
68.5 749 m 5
 98.5 718 l 5
 98.5 427 l 5
 70.5 398 l 5
 41.5 427 l 5
 41.5 721 l 5
 68.5 749 l 5
68.5 378 m 5
 98.5 348 l 5
 98.5 57 l 5
 70.5 28 l 5
 41.5 57 l 5
 41.5 350 l 5
 68.5 378 l 5
82.5 389 m 5
 112.5 419 l 5
 226.5 419 l 5
 255.5 390 l 5
 226.5 361 l 5
 109.5 361 l 5
 82.5 389 l 5
440.5 749 m 5
 470.5 718 l 5
 470.5 427 l 5
 441.5 398 l 5
 412.5 427 l 5
 412.5 721 l 5
 440.5 749 l 5
292.5 352 m 5
 331.5 352 l 5
 407.5 108 l 5
 407.5 68 l 5
 366.5 68 l 5
 292.5 309 l 5
 292.5 352 l 5
261.5 389 m 5
 291.5 419 l 5
 405.5 419 l 5
 434.5 390 l 5
 405.5 361 l 5
 288.5 361 l 5
 261.5 389 l 5
82.5 755 m 5
 112.5 785 l 5
 226.5 785 l 5
 255.5 756 l 5
 226.5 727 l 5
 109.5 727 l 5
 82.5 755 l 5
261.5 755 m 5
 291.5 785 l 5
 405.5 785 l 5
 434.5 756 l 5
 405.5 727 l 5
 288.5 727 l 5
 261.5 755 l 5
EndSplineSet
EndUndoOperation
UndoOperation
Index: 1
Type: 1
WasModified: 0
WasOrder2: 0
Layer: 2
Width: 512
VWidth: 1024
LBearingChange: 0
UnicodeEnc: 0
InstructionsLength: 0
EndUndoOperation
UndoOperation
Index: 2
Type: 3
WasModified: 0
WasOrder2: 0
Layer: 2
EndUndoOperation
EndUndoes
Redoes
EndRedoes
EndUndoRedoHistory
Fore
SplineSet
68 749 m 5
 98 718 l 5
 98 427 l 5
 70 398 l 5
 42 427 l 5
 42 721 l 5
 68 749 l 5
68 378 m 5
 98 348 l 5
 98 57 l 5
 70 28 l 5
 42 57 l 5
 42 350 l 5
 68 378 l 5
82 389 m 5
 112 419 l 5
 226 419 l 5
 256 390 l 5
 226 361 l 5
 110 361 l 5
 82 389 l 5
440 749 m 5
 470 718 l 5
 470 427 l 5
 442 398 l 5
 412 427 l 5
 412 721 l 5
 440 749 l 5
292 352 m 5
 332 352 l 5
 408 108 l 5
 408 68 l 5
 366 68 l 5
 292 309 l 5
 292 352 l 5
262 389 m 5
 292 419 l 5
 406 419 l 5
 434 390 l 5
 406 361 l 5
 288 361 l 5
 262 389 l 5
82 755 m 5
 112 785 l 5
 226 785 l 5
 256 756 l 5
 226 727 l 5
 110 727 l 5
 82 755 l 5
262 755 m 5
 292 785 l 5
 406 785 l 5
 434 756 l 5
 406 727 l 5
 288 727 l 5
 262 755 l 5
EndSplineSet
Validated: 1
EndChar

StartChar: S
Encoding: 83 83 90
Width: 512
Flags: HW
LayerCount: 2
UndoRedoHistory
Layer: 1
Undoes
UndoOperation
Index: 0
Type: 1
WasModified: 0
WasOrder2: 0
Layer: 2
Width: 512
VWidth: 1024
LBearingChange: 0
UnicodeEnc: 0
InstructionsLength: 0
SplineSet
68.5 752.180664062 m 5
 98.5 721.180664062 l 5
 98.5 430.180664062 l 5
 70.5 401.180664062 l 5
 41.5 430.180664062 l 5
 41.5 724.180664062 l 5
 68.5 752.180664062 l 5
82.5 392.180664062 m 5
 112.5 422.180664062 l 5
 226.5 422.180664062 l 5
 255.5 393.180664062 l 5
 226.5 364.180664062 l 5
 109.5 364.180664062 l 5
 82.5 392.180664062 l 5
440.5 385.180664062 m 5
 470.5 355.180664062 l 5
 470.5 63.1806640625 l 5
 441.5 35.1806640625 l 5
 412.5 63.1806640625 l 5
 412.5 357.180664062 l 5
 440.5 385.180664062 l 5
261.5 392.180664062 m 5
 291.5 422.180664062 l 5
 405.5 422.180664062 l 5
 434.5 393.180664062 l 5
 405.5 364.180664062 l 5
 288.5 364.180664062 l 5
 261.5 392.180664062 l 5
82.5 758.180664062 m 5
 112.5 788.180664062 l 5
 226.5 788.180664062 l 5
 255.5 759.180664062 l 5
 226.5 730.180664062 l 5
 109.5 730.180664062 l 5
 82.5 758.180664062 l 5
261.5 758.180664062 m 5
 291.5 788.180664062 l 5
 405.5 788.180664062 l 5
 434.5 759.180664062 l 5
 405.5 730.180664062 l 5
 288.5 730.180664062 l 5
 261.5 758.180664062 l 5
82.5 28 m 5
 112.5 58 l 5
 226.5 58 l 5
 255.5 29 l 5
 226.5 0 l 5
 109.5 0 l 5
 82.5 28 l 5
261.5 28 m 5
 291.5 58 l 5
 405.5 58 l 5
 434.5 29 l 5
 405.5 0 l 5
 288.5 0 l 5
 261.5 28 l 5
EndSplineSet
EndUndoOperation
UndoOperation
Index: 1
Type: 1
WasModified: 0
WasOrder2: 0
Layer: 2
Width: 512
VWidth: 1024
LBearingChange: 0
UnicodeEnc: 0
InstructionsLength: 0
EndUndoOperation
UndoOperation
Index: 2
Type: 3
WasModified: 0
WasOrder2: 0
Layer: 2
EndUndoOperation
EndUndoes
Redoes
EndRedoes
EndUndoRedoHistory
Fore
SplineSet
68 752 m 5
 98 721 l 5
 98 430 l 5
 70 401 l 5
 42 430 l 5
 42 724 l 5
 68 752 l 5
82 392 m 5
 112 422 l 5
 226 422 l 5
 256 393 l 5
 226 364 l 5
 110 364 l 5
 82 392 l 5
440 385 m 5
 470 355 l 5
 470 63 l 5
 442 35 l 5
 412 63 l 5
 412 357 l 5
 440 385 l 5
262 392 m 5
 292 422 l 5
 406 422 l 5
 434 393 l 5
 406 364 l 5
 288 364 l 5
 262 392 l 5
82 758 m 5
 112 788 l 5
 226 788 l 5
 256 759 l 5
 226 730 l 5
 110 730 l 5
 82 758 l 5
262 758 m 5
 292 788 l 5
 406 788 l 5
 434 759 l 5
 406 730 l 5
 288 730 l 5
 262 758 l 5
82 28 m 5
 112 58 l 5
 226 58 l 5
 256 29 l 5
 226 0 l 5
 110 0 l 5
 82 28 l 5
262 28 m 5
 292 58 l 5
 406 58 l 5
 434 29 l 5
 406 0 l 5
 288 0 l 5
 262 28 l 5
EndSplineSet
Validated: 1
EndChar

StartChar: T
Encoding: 84 84 91
Width: 512
Flags: HW
LayerCount: 2
UndoRedoHistory
Layer: 1
Undoes
UndoOperation
Index: 0
Type: 1
WasModified: 0
WasOrder2: 0
Layer: 2
Width: 512
VWidth: 1024
LBearingChange: 0
UnicodeEnc: 0
InstructionsLength: 0
SplineSet
255 711 m 5
 285 681 l 5
 285 429 l 5
 256 400 l 5
 227 429 l 5
 227 683 l 5
 255 711 l 5
255 374 m 5
 285 344 l 5
 285 92 l 5
 256 63 l 5
 227 92 l 5
 227 346 l 5
 255 374 l 5
80 756 m 5
 110 786 l 5
 224 786 l 5
 253 757 l 5
 224 728 l 5
 107 728 l 5
 80 756 l 5
259 756 m 5
 289 786 l 5
 403 786 l 5
 432 757 l 5
 403 728 l 5
 286 728 l 5
 259 756 l 5
EndSplineSet
EndUndoOperation
UndoOperation
Index: 1
Type: 1
WasModified: 0
WasOrder2: 0
Layer: 2
Width: 512
VWidth: 1024
LBearingChange: 0
UnicodeEnc: 0
InstructionsLength: 0
EndUndoOperation
UndoOperation
Index: 2
Type: 3
WasModified: 0
WasOrder2: 0
Layer: 2
EndUndoOperation
EndUndoes
Redoes
EndRedoes
EndUndoRedoHistory
Fore
SplineSet
255 711 m 5
 285 681 l 5
 285 429 l 5
 256 400 l 5
 227 429 l 5
 227 683 l 5
 255 711 l 5
255 374 m 5
 285 344 l 5
 285 92 l 5
 256 63 l 5
 227 92 l 5
 227 346 l 5
 255 374 l 5
80 756 m 5
 110 786 l 5
 224 786 l 5
 253 757 l 5
 224 728 l 5
 107 728 l 5
 80 756 l 5
259 756 m 5
 289 786 l 5
 403 786 l 5
 432 757 l 5
 403 728 l 5
 286 728 l 5
 259 756 l 5
EndSplineSet
Validated: 1
EndChar

StartChar: U
Encoding: 85 85 92
Width: 512
Flags: HW
LayerCount: 2
UndoRedoHistory
Layer: 1
Undoes
UndoOperation
Index: 0
Type: 1
WasModified: 0
WasOrder2: 0
Layer: 2
Width: 512
VWidth: 1024
LBearingChange: 0
UnicodeEnc: 0
InstructionsLength: 0
SplineSet
68.5 752.180664062 m 5
 98.5 721.180664062 l 5
 98.5 430.180664062 l 5
 70.5 401.180664062 l 5
 41.5 430.180664062 l 5
 41.5 724.180664062 l 5
 68.5 752.180664062 l 5
68.5 381.180664062 m 5
 98.5 351.180664062 l 5
 98.5 60.1806640625 l 5
 70.5 31.1806640625 l 5
 41.5 60.1806640625 l 5
 41.5 353.180664062 l 5
 68.5 381.180664062 l 5
440.5 752.180664062 m 5
 470.5 721.180664062 l 5
 470.5 430.180664062 l 5
 441.5 401.180664062 l 5
 412.5 430.180664062 l 5
 412.5 724.180664062 l 5
 440.5 752.180664062 l 5
440.5 385.180664062 m 5
 470.5 355.180664062 l 5
 470.5 63.1806640625 l 5
 441.5 35.1806640625 l 5
 412.5 63.1806640625 l 5
 412.5 357.180664062 l 5
 440.5 385.180664062 l 5
82.5 28 m 5
 112.5 58 l 5
 226.5 58 l 5
 255.5 29 l 5
 226.5 0 l 5
 109.5 0 l 5
 82.5 28 l 5
261.5 28 m 5
 291.5 58 l 5
 405.5 58 l 5
 434.5 29 l 5
 405.5 0 l 5
 288.5 0 l 5
 261.5 28 l 5
EndSplineSet
EndUndoOperation
UndoOperation
Index: 1
Type: 1
WasModified: 0
WasOrder2: 0
Layer: 2
Width: 512
VWidth: 1024
LBearingChange: 0
UnicodeEnc: 0
InstructionsLength: 0
EndUndoOperation
UndoOperation
Index: 2
Type: 3
WasModified: 0
WasOrder2: 0
Layer: 2
EndUndoOperation
EndUndoes
Redoes
EndRedoes
EndUndoRedoHistory
Fore
SplineSet
68 752 m 5
 98 721 l 5
 98 430 l 5
 70 401 l 5
 42 430 l 5
 42 724 l 5
 68 752 l 5
68 381 m 5
 98 351 l 5
 98 60 l 5
 70 31 l 5
 42 60 l 5
 42 353 l 5
 68 381 l 5
440 752 m 5
 470 721 l 5
 470 430 l 5
 442 401 l 5
 412 430 l 5
 412 724 l 5
 440 752 l 5
440 385 m 5
 470 355 l 5
 470 63 l 5
 442 35 l 5
 412 63 l 5
 412 357 l 5
 440 385 l 5
82 28 m 5
 112 58 l 5
 226 58 l 5
 256 29 l 5
 226 0 l 5
 110 0 l 5
 82 28 l 5
262 28 m 5
 292 58 l 5
 406 58 l 5
 434 29 l 5
 406 0 l 5
 288 0 l 5
 262 28 l 5
EndSplineSet
Validated: 1
EndChar

StartChar: V
Encoding: 86 86 93
Width: 512
Flags: HW
LayerCount: 2
UndoRedoHistory
Layer: 1
Undoes
UndoOperation
Index: 0
Type: 1
WasModified: 0
WasOrder2: 0
Layer: 2
Width: 512
VWidth: 1024
LBearingChange: 0
UnicodeEnc: 0
InstructionsLength: 0
SplineSet
100 747 m 5
 130 716 l 5
 130 425 l 5
 102 396 l 5
 73 425 l 5
 73 719 l 5
 100 747 l 5
100 376 m 5
 130 346 l 5
 130 55 l 5
 102 26 l 5
 73 55 l 5
 73 348 l 5
 100 376 l 5
324 431 m 5
 324 474 l 5
 398 715 l 5
 439 715 l 5
 439 674 l 5
 363 431 l 5
 324 431 l 5
136 66 m 5
 136 108 l 5
 213 350 l 5
 254 350 l 5
 254 309 l 5
 175 66 l 5
 136 66 l 5
EndSplineSet
EndUndoOperation
UndoOperation
Index: 1
Type: 1
WasModified: 1
WasOrder2: 0
Layer: 2
Width: 512
VWidth: 1024
LBearingChange: 0
UnicodeEnc: 0
InstructionsLength: 0
EndUndoOperation
UndoOperation
Index: 2
Type: 1
WasModified: 1
WasOrder2: 0
Layer: 2
Width: 512
VWidth: 1024
LBearingChange: 0
UnicodeEnc: 0
InstructionsLength: 0
SplineSet
100 746 m 5
 130 715 l 5
 130 424 l 5
 102 395 l 5
 73 424 l 5
 73 718 l 5
 100 746 l 5
100 375 m 5
 130 345 l 5
 130 54 l 5
 102 25 l 5
 73 54 l 5
 73 347 l 5
 100 375 l 5
324 430 m 5
 324 473 l 5
 398 714 l 5
 439 714 l 5
 439 673 l 5
 363 430 l 5
 324 430 l 5
136 65 m 5
 136 107 l 5
 213 349 l 5
 254 349 l 5
 254 308 l 5
 175 65 l 5
 136 65 l 5
EndSplineSet
EndUndoOperation
EndUndoes
Redoes
EndRedoes
EndUndoRedoHistory
Fore
SplineSet
100 747 m 5
 130 716 l 5
 130 425 l 5
 102 396 l 5
 73 425 l 5
 73 719 l 5
 100 747 l 5
100 376 m 5
 130 346 l 5
 130 55 l 5
 102 26 l 5
 73 55 l 5
 73 348 l 5
 100 376 l 5
324 431 m 5
 324 474 l 5
 398 715 l 5
 439 715 l 5
 439 674 l 5
 363 431 l 5
 324 431 l 5
136 66 m 5
 136 108 l 5
 213 350 l 5
 254 350 l 5
 254 309 l 5
 175 66 l 5
 136 66 l 5
EndSplineSet
Validated: 1
EndChar

StartChar: W
Encoding: 87 87 94
Width: 512
Flags: HW
LayerCount: 2
UndoRedoHistory
Layer: 1
Undoes
UndoOperation
Index: 0
Type: 1
WasModified: 0
WasOrder2: 0
Layer: 2
Width: 512
VWidth: 1024
LBearingChange: 0
UnicodeEnc: 0
InstructionsLength: 0
SplineSet
68.5 747 m 5
 98.5 716 l 5
 98.5 425 l 5
 70.5 396 l 5
 41.5 425 l 5
 41.5 719 l 5
 68.5 747 l 5
68.5 376 m 5
 98.5 346 l 5
 98.5 55 l 5
 70.5 26 l 5
 41.5 55 l 5
 41.5 348 l 5
 68.5 376 l 5
440.5 747 m 5
 470.5 716 l 5
 470.5 425 l 5
 441.5 396 l 5
 412.5 425 l 5
 412.5 719 l 5
 440.5 747 l 5
440.5 380 m 5
 470.5 350 l 5
 470.5 58 l 5
 441.5 30 l 5
 412.5 58 l 5
 412.5 352 l 5
 440.5 380 l 5
292.5 350 m 5
 331.5 350 l 5
 407.5 106 l 5
 407.5 66 l 5
 366.5 66 l 5
 292.5 307 l 5
 292.5 350 l 5
104.5 66 m 5
 104.5 108 l 5
 181.5 350 l 5
 222.5 350 l 5
 222.5 309 l 5
 143.5 66 l 5
 104.5 66 l 5
EndSplineSet
EndUndoOperation
UndoOperation
Index: 1
Type: 1
WasModified: 0
WasOrder2: 0
Layer: 2
Width: 512
VWidth: 1024
LBearingChange: 0
UnicodeEnc: 0
InstructionsLength: 0
EndUndoOperation
UndoOperation
Index: 2
Type: 3
WasModified: 0
WasOrder2: 0
Layer: 2
EndUndoOperation
EndUndoes
Redoes
EndRedoes
EndUndoRedoHistory
Fore
SplineSet
68 747 m 5
 98 716 l 5
 98 425 l 5
 70 396 l 5
 42 425 l 5
 42 719 l 5
 68 747 l 5
68 376 m 5
 98 346 l 5
 98 55 l 5
 70 26 l 5
 42 55 l 5
 42 348 l 5
 68 376 l 5
440 747 m 5
 470 716 l 5
 470 425 l 5
 442 396 l 5
 412 425 l 5
 412 719 l 5
 440 747 l 5
440 380 m 5
 470 350 l 5
 470 58 l 5
 442 30 l 5
 412 58 l 5
 412 352 l 5
 440 380 l 5
292 350 m 5
 332 350 l 5
 408 106 l 5
 408 66 l 5
 366 66 l 5
 292 307 l 5
 292 350 l 5
104 66 m 5
 104 108 l 5
 182 350 l 5
 222 350 l 5
 222 309 l 5
 144 66 l 5
 104 66 l 5
EndSplineSet
Validated: 1
EndChar

StartChar: X
Encoding: 88 88 95
Width: 512
Flags: HW
LayerCount: 2
UndoRedoHistory
Layer: 1
Undoes
UndoOperation
Index: 0
Type: 1
WasModified: 0
WasOrder2: 0
Layer: 2
Width: 512
VWidth: 1024
LBearingChange: 0
UnicodeEnc: 0
InstructionsLength: 0
SplineSet
292.5 425 m 5
 292.5 468 l 5
 366.5 709 l 5
 407.5 709 l 5
 407.5 668 l 5
 331.5 425 l 5
 292.5 425 l 5
104.5 709 m 5
 143.5 709 l 5
 222.5 466 l 5
 222.5 425 l 5
 181.5 425 l 5
 104.5 667 l 5
 104.5 709 l 5
292.5 344 m 5
 331.5 344 l 5
 407.5 100 l 5
 407.5 60 l 5
 366.5 60 l 5
 292.5 301 l 5
 292.5 344 l 5
104.5 60 m 5
 104.5 102 l 5
 181.5 344 l 5
 222.5 344 l 5
 222.5 303 l 5
 143.5 60 l 5
 104.5 60 l 5
EndSplineSet
EndUndoOperation
UndoOperation
Index: 1
Type: 1
WasModified: 0
WasOrder2: 0
Layer: 2
Width: 512
VWidth: 1024
LBearingChange: 0
UnicodeEnc: 0
InstructionsLength: 0
EndUndoOperation
UndoOperation
Index: 2
Type: 3
WasModified: 0
WasOrder2: 0
Layer: 2
EndUndoOperation
EndUndoes
Redoes
EndRedoes
EndUndoRedoHistory
Fore
SplineSet
292 425 m 5
 292 468 l 5
 366 709 l 5
 408 709 l 5
 408 668 l 5
 332 425 l 5
 292 425 l 5
104 709 m 5
 144 709 l 5
 222 466 l 5
 222 425 l 5
 182 425 l 5
 104 667 l 5
 104 709 l 5
292 344 m 5
 332 344 l 5
 408 100 l 5
 408 60 l 5
 366 60 l 5
 292 301 l 5
 292 344 l 5
104 60 m 5
 104 102 l 5
 182 344 l 5
 222 344 l 5
 222 303 l 5
 144 60 l 5
 104 60 l 5
EndSplineSet
Validated: 1
EndChar

StartChar: Y
Encoding: 89 89 96
Width: 512
Flags: HW
LayerCount: 2
UndoRedoHistory
Layer: 1
Undoes
UndoOperation
Index: 0
Type: 1
WasModified: 0
WasOrder2: 0
Layer: 2
Width: 512
VWidth: 1024
LBearingChange: 0
UnicodeEnc: 0
InstructionsLength: 0
SplineSet
292.5 421 m 5
 292.5 464 l 5
 366.5 705 l 5
 407.5 705 l 5
 407.5 664 l 5
 331.5 421 l 5
 292.5 421 l 5
104.5 705 m 5
 143.5 705 l 5
 222.5 462 l 5
 222.5 421 l 5
 181.5 421 l 5
 104.5 663 l 5
 104.5 705 l 5
257.5 361 m 5
 287.5 331 l 5
 287.5 79 l 5
 258.5 50 l 5
 229.5 79 l 5
 229.5 333 l 5
 257.5 361 l 5
EndSplineSet
EndUndoOperation
UndoOperation
Index: 1
Type: 1
WasModified: 0
WasOrder2: 0
Layer: 2
Width: 512
VWidth: 1024
LBearingChange: 0
UnicodeEnc: 0
InstructionsLength: 0
EndUndoOperation
UndoOperation
Index: 2
Type: 3
WasModified: 0
WasOrder2: 0
Layer: 2
EndUndoOperation
EndUndoes
Redoes
EndRedoes
EndUndoRedoHistory
Fore
SplineSet
292 421 m 5
 292 464 l 5
 366 705 l 5
 408 705 l 5
 408 664 l 5
 332 421 l 5
 292 421 l 5
104 705 m 5
 144 705 l 5
 222 462 l 5
 222 421 l 5
 182 421 l 5
 104 663 l 5
 104 705 l 5
258 361 m 5
 288 331 l 5
 288 79 l 5
 258 50 l 5
 230 79 l 5
 230 333 l 5
 258 361 l 5
EndSplineSet
Validated: 1
EndChar

StartChar: Z
Encoding: 90 90 97
Width: 512
Flags: HW
LayerCount: 2
UndoRedoHistory
Layer: 1
Undoes
UndoOperation
Index: 0
Type: 1
WasModified: 0
WasOrder2: 0
Layer: 2
Width: 512
VWidth: 1024
LBearingChange: 0
UnicodeEnc: 0
InstructionsLength: 0
SplineSet
290 436.180664062 m 5
 290 479.180664062 l 5
 364 720.180664062 l 5
 405 720.180664062 l 5
 405 679.180664062 l 5
 329 436.180664062 l 5
 290 436.180664062 l 5
102 71.1806640625 m 5
 102 113.180664062 l 5
 179 355.180664062 l 5
 220 355.180664062 l 5
 220 314.180664062 l 5
 141 71.1806640625 l 5
 102 71.1806640625 l 5
80 758.180664062 m 5
 110 788.180664062 l 5
 224 788.180664062 l 5
 253 759.180664062 l 5
 224 730.180664062 l 5
 107 730.180664062 l 5
 80 758.180664062 l 5
259 758.180664062 m 5
 289 788.180664062 l 5
 403 788.180664062 l 5
 432 759.180664062 l 5
 403 730.180664062 l 5
 286 730.180664062 l 5
 259 758.180664062 l 5
80 28 m 5
 110 58 l 5
 224 58 l 5
 253 29 l 5
 224 0 l 5
 107 0 l 5
 80 28 l 5
259 28 m 5
 289 58 l 5
 403 58 l 5
 432 29 l 5
 403 0 l 5
 286 0 l 5
 259 28 l 5
EndSplineSet
EndUndoOperation
UndoOperation
Index: 1
Type: 1
WasModified: 0
WasOrder2: 0
Layer: 2
Width: 512
VWidth: 1024
LBearingChange: 0
UnicodeEnc: 0
InstructionsLength: 0
EndUndoOperation
UndoOperation
Index: 2
Type: 3
WasModified: 0
WasOrder2: 0
Layer: 2
EndUndoOperation
EndUndoes
Redoes
EndRedoes
EndUndoRedoHistory
Fore
SplineSet
290 436 m 5
 290 479 l 5
 364 720 l 5
 405 720 l 5
 405 679 l 5
 329 436 l 5
 290 436 l 5
102 71 m 5
 102 113 l 5
 179 355 l 5
 220 355 l 5
 220 314 l 5
 141 71 l 5
 102 71 l 5
80 758 m 5
 110 788 l 5
 224 788 l 5
 253 759 l 5
 224 730 l 5
 107 730 l 5
 80 758 l 5
259 758 m 5
 289 788 l 5
 403 788 l 5
 432 759 l 5
 403 730 l 5
 286 730 l 5
 259 758 l 5
80 28 m 5
 110 58 l 5
 224 58 l 5
 253 29 l 5
 224 0 l 5
 107 0 l 5
 80 28 l 5
259 28 m 5
 289 58 l 5
 403 58 l 5
 432 29 l 5
 403 0 l 5
 286 0 l 5
 259 28 l 5
EndSplineSet
Validated: 1
EndChar

StartChar: bracketleft
Encoding: 91 91 98
Width: 512
Flags: HW
LayerCount: 2
UndoRedoHistory
Layer: 1
Undoes
UndoOperation
Index: 0
Type: 1
WasModified: 0
WasOrder2: 0
Layer: 2
Width: 512
VWidth: 1024
LBearingChange: 0
UnicodeEnc: 0
InstructionsLength: 0
SplineSet
176 752.180664062 m 5
 206 721.180664062 l 5
 206 430.180664062 l 5
 178 401.180664062 l 5
 149 430.180664062 l 5
 149 724.180664062 l 5
 176 752.180664062 l 5
176 381.180664062 m 5
 206 351.180664062 l 5
 206 60.1806640625 l 5
 178 31.1806640625 l 5
 149 60.1806640625 l 5
 149 353.180664062 l 5
 176 381.180664062 l 5
190 758.180664062 m 5
 220 788.180664062 l 5
 334 788.180664062 l 5
 363 759.180664062 l 5
 334 730.180664062 l 5
 217 730.180664062 l 5
 190 758.180664062 l 5
190 28 m 5
 220 58 l 5
 334 58 l 5
 363 29 l 5
 334 0 l 5
 217 0 l 5
 190 28 l 5
EndSplineSet
EndUndoOperation
UndoOperation
Index: 1
Type: 1
WasModified: 0
WasOrder2: 0
Layer: 2
Width: 512
VWidth: 1024
LBearingChange: 0
UnicodeEnc: 0
InstructionsLength: 0
EndUndoOperation
UndoOperation
Index: 2
Type: 3
WasModified: 0
WasOrder2: 0
Layer: 2
EndUndoOperation
EndUndoes
Redoes
EndRedoes
EndUndoRedoHistory
Fore
SplineSet
176 752 m 5
 206 721 l 5
 206 430 l 5
 178 401 l 5
 149 430 l 5
 149 724 l 5
 176 752 l 5
176 381 m 5
 206 351 l 5
 206 60 l 5
 178 31 l 5
 149 60 l 5
 149 353 l 5
 176 381 l 5
190 758 m 5
 220 788 l 5
 334 788 l 5
 363 759 l 5
 334 730 l 5
 217 730 l 5
 190 758 l 5
190 28 m 5
 220 58 l 5
 334 58 l 5
 363 29 l 5
 334 0 l 5
 217 0 l 5
 190 28 l 5
EndSplineSet
Validated: 1
EndChar

StartChar: backslash
Encoding: 92 92 99
Width: 512
Flags: HW
LayerCount: 2
UndoRedoHistory
Layer: 1
Undoes
UndoOperation
Index: 0
Type: 1
WasModified: 0
WasOrder2: 0
Layer: 2
Width: 512
VWidth: 1024
LBearingChange: 0
UnicodeEnc: 0
InstructionsLength: 0
SplineSet
104.5 709 m 5
 143.5 709 l 5
 222.5 466 l 5
 222.5 425 l 5
 181.5 425 l 5
 104.5 667 l 5
 104.5 709 l 5
292.5 344 m 5
 331.5 344 l 5
 407.5 100 l 5
 407.5 60 l 5
 366.5 60 l 5
 292.5 301 l 5
 292.5 344 l 5
EndSplineSet
EndUndoOperation
UndoOperation
Index: 1
Type: 1
WasModified: 0
WasOrder2: 0
Layer: 2
Width: 512
VWidth: 1024
LBearingChange: 0
UnicodeEnc: 0
InstructionsLength: 0
EndUndoOperation
UndoOperation
Index: 2
Type: 3
WasModified: 0
WasOrder2: 0
Layer: 2
EndUndoOperation
EndUndoes
Redoes
EndRedoes
EndUndoRedoHistory
Fore
SplineSet
104 709 m 5
 144 709 l 5
 222 466 l 5
 222 425 l 5
 182 425 l 5
 104 667 l 5
 104 709 l 5
292 344 m 5
 332 344 l 5
 408 100 l 5
 408 60 l 5
 366 60 l 5
 292 301 l 5
 292 344 l 5
EndSplineSet
Validated: 1
EndChar

StartChar: bracketright
Encoding: 93 93 100
Width: 512
Flags: HW
LayerCount: 2
UndoRedoHistory
Layer: 1
Undoes
UndoOperation
Index: 0
Type: 1
WasModified: 0
WasOrder2: 0
Layer: 2
Width: 512
VWidth: 1024
LBearingChange: 0
UnicodeEnc: 0
InstructionsLength: 0
SplineSet
330.5 752.180664062 m 5
 360.5 721.180664062 l 5
 360.5 430.180664062 l 5
 331.5 401.180664062 l 5
 302.5 430.180664062 l 5
 302.5 724.180664062 l 5
 330.5 752.180664062 l 5
330.5 385.180664062 m 5
 360.5 355.180664062 l 5
 360.5 63.1806640625 l 5
 331.5 35.1806640625 l 5
 302.5 63.1806640625 l 5
 302.5 357.180664062 l 5
 330.5 385.180664062 l 5
151.5 758.180664062 m 5
 181.5 788.180664062 l 5
 295.5 788.180664062 l 5
 324.5 759.180664062 l 5
 295.5 730.180664062 l 5
 178.5 730.180664062 l 5
 151.5 758.180664062 l 5
151.5 28 m 5
 181.5 58 l 5
 295.5 58 l 5
 324.5 29 l 5
 295.5 0 l 5
 178.5 0 l 5
 151.5 28 l 5
EndSplineSet
EndUndoOperation
UndoOperation
Index: 1
Type: 1
WasModified: 0
WasOrder2: 0
Layer: 2
Width: 512
VWidth: 1024
LBearingChange: 0
UnicodeEnc: 0
InstructionsLength: 0
EndUndoOperation
UndoOperation
Index: 2
Type: 3
WasModified: 0
WasOrder2: 0
Layer: 2
EndUndoOperation
EndUndoes
Redoes
EndRedoes
EndUndoRedoHistory
Fore
SplineSet
330 752 m 5
 360 721 l 5
 360 430 l 5
 332 401 l 5
 302 430 l 5
 302 724 l 5
 330 752 l 5
330 385 m 5
 360 355 l 5
 360 63 l 5
 332 35 l 5
 302 63 l 5
 302 357 l 5
 330 385 l 5
152 758 m 5
 182 788 l 5
 296 788 l 5
 324 759 l 5
 296 730 l 5
 178 730 l 5
 152 758 l 5
152 28 m 5
 182 58 l 5
 296 58 l 5
 324 29 l 5
 296 0 l 5
 178 0 l 5
 152 28 l 5
EndSplineSet
Validated: 1
EndChar

StartChar: asciicircum
Encoding: 94 94 101
Width: 512
Flags: HW
LayerCount: 2
UndoRedoHistory
Layer: 1
Undoes
UndoOperation
Index: 0
Type: 1
WasModified: 0
WasOrder2: 0
Layer: 2
Width: 512
VWidth: 1024
LBearingChange: 0
UnicodeEnc: 0
InstructionsLength: 0
SplineSet
292.5 817 m 5
 331.5 817 l 5
 407.5 573 l 5
 407.5 533 l 5
 366.5 533 l 5
 292.5 774 l 5
 292.5 817 l 5
104.5 533 m 5
 104.5 575 l 5
 181.5 817 l 5
 222.5 817 l 5
 222.5 776 l 5
 143.5 533 l 5
 104.5 533 l 5
EndSplineSet
EndUndoOperation
UndoOperation
Index: 1
Type: 1
WasModified: 0
WasOrder2: 0
Layer: 2
Width: 512
VWidth: 1024
LBearingChange: 0
UnicodeEnc: 0
InstructionsLength: 0
EndUndoOperation
UndoOperation
Index: 2
Type: 3
WasModified: 0
WasOrder2: 0
Layer: 2
EndUndoOperation
EndUndoes
Redoes
EndRedoes
EndUndoRedoHistory
Fore
SplineSet
292 817 m 5
 332 817 l 5
 408 573 l 5
 408 533 l 5
 366 533 l 5
 292 774 l 5
 292 817 l 5
104 533 m 5
 104 575 l 5
 182 817 l 5
 222 817 l 5
 222 776 l 5
 144 533 l 5
 104 533 l 5
EndSplineSet
Validated: 1
EndChar

StartChar: underscore
Encoding: 95 95 102
Width: 512
Flags: HW
LayerCount: 2
UndoRedoHistory
Layer: 1
Undoes
UndoOperation
Index: 0
Type: 1
WasModified: 0
WasOrder2: 0
Layer: 2
Width: 512
VWidth: 1024
LBearingChange: 0
UnicodeEnc: 0
InstructionsLength: 0
SplineSet
80 28 m 5
 110 58 l 5
 224 58 l 5
 253 29 l 5
 224 0 l 5
 107 0 l 5
 80 28 l 5
259 28 m 5
 289 58 l 5
 403 58 l 5
 432 29 l 5
 403 0 l 5
 286 0 l 5
 259 28 l 5
EndSplineSet
EndUndoOperation
UndoOperation
Index: 1
Type: 1
WasModified: 1
WasOrder2: 0
Layer: 2
Width: 512
VWidth: 1024
LBearingChange: 0
UnicodeEnc: 0
InstructionsLength: 0
EndUndoOperation
UndoOperation
Index: 2
Type: 1
WasModified: 1
WasOrder2: 0
Layer: 2
Width: 512
VWidth: 1024
LBearingChange: 0
UnicodeEnc: 0
InstructionsLength: 0
SplineSet
-0 789 m 5
 30 819 l 5
 144 819 l 5
 173 790 l 5
 144 761 l 5
 27 761 l 5
 -0 789 l 5
179 789 m 5
 209 819 l 5
 323 819 l 5
 352 790 l 5
 323 761 l 5
 206 761 l 5
 179 789 l 5
EndSplineSet
EndUndoOperation
EndUndoes
Redoes
EndRedoes
EndUndoRedoHistory
Fore
SplineSet
80 28 m 5
 110 58 l 5
 224 58 l 5
 253 29 l 5
 224 0 l 5
 107 0 l 5
 80 28 l 5
259 28 m 5
 289 58 l 5
 403 58 l 5
 432 29 l 5
 403 0 l 5
 286 0 l 5
 259 28 l 5
EndSplineSet
Validated: 1
EndChar

StartChar: grave
Encoding: 96 96 103
Width: 512
Flags: HW
LayerCount: 2
UndoRedoHistory
Layer: 1
Undoes
UndoOperation
Index: 0
Type: 1
WasModified: 0
WasOrder2: 0
Layer: 2
Width: 512
VWidth: 1024
LBearingChange: 0
UnicodeEnc: 0
InstructionsLength: 0
SplineSet
197 815 m 1
 236 815 l 1
 315 572 l 1
 315 531 l 1
 274 531 l 1
 197 773 l 1
 197 815 l 1
EndSplineSet
EndUndoOperation
UndoOperation
Index: 1
Type: 1
WasModified: 0
WasOrder2: 0
Layer: 2
Width: 512
VWidth: 1024
LBearingChange: 0
UnicodeEnc: 0
InstructionsLength: 0
EndUndoOperation
UndoOperation
Index: 2
Type: 3
WasModified: 0
WasOrder2: 0
Layer: 2
EndUndoOperation
EndUndoes
Redoes
EndRedoes
EndUndoRedoHistory
Fore
SplineSet
197 815 m 1
 236 815 l 1
 315 572 l 1
 315 531 l 1
 274 531 l 1
 197 773 l 1
 197 815 l 1
EndSplineSet
Validated: 1
EndChar

StartChar: h
Encoding: 104 104 104
Width: 512
Flags: HW
LayerCount: 2
UndoRedoHistory
Layer: 1
Undoes
UndoOperation
Index: 0
Type: 1
WasModified: 0
WasOrder2: 0
Layer: 2
Width: 512
VWidth: 1024
LBearingChange: 0
UnicodeEnc: 0
InstructionsLength: 0
SplineSet
68.5 750 m 5
 98.5 719 l 5
 98.5 428 l 5
 70.5 399 l 5
 41.5 428 l 5
 41.5 722 l 5
 68.5 750 l 5
68.5 379 m 5
 98.5 349 l 5
 98.5 58 l 5
 70.5 29 l 5
 41.5 58 l 5
 41.5 351 l 5
 68.5 379 l 5
82.5 390 m 5
 112.5 420 l 5
 226.5 420 l 5
 255.5 391 l 5
 226.5 362 l 5
 109.5 362 l 5
 82.5 390 l 5
440.5 750 m 5
 470.5 719 l 5
 470.5 428 l 5
 441.5 399 l 5
 412.5 428 l 5
 412.5 722 l 5
 440.5 750 l 5
440.5 383 m 5
 470.5 353 l 5
 470.5 61 l 5
 441.5 33 l 5
 412.5 61 l 5
 412.5 355 l 5
 440.5 383 l 5
261.5 390 m 5
 291.5 420 l 5
 405.5 420 l 5
 434.5 391 l 5
 405.5 362 l 5
 288.5 362 l 5
 261.5 390 l 5
EndSplineSet
EndUndoOperation
UndoOperation
Index: 1
Type: 1
WasModified: 1
WasOrder2: 0
Layer: 2
Width: 512
VWidth: 1024
LBearingChange: 0
UnicodeEnc: 0
InstructionsLength: 0
EndUndoOperation
UndoOperation
Index: 2
Type: 3
WasModified: 0
WasOrder2: 0
Layer: 2
EndUndoOperation
EndUndoes
Redoes
EndRedoes
EndUndoRedoHistory
Fore
SplineSet
68 750 m 5
 98 719 l 5
 98 428 l 5
 70 399 l 5
 42 428 l 5
 42 722 l 5
 68 750 l 5
68 379 m 5
 98 349 l 5
 98 58 l 5
 70 29 l 5
 42 58 l 5
 42 351 l 5
 68 379 l 5
82 390 m 5
 112 420 l 5
 226 420 l 5
 256 391 l 5
 226 362 l 5
 110 362 l 5
 82 390 l 5
440 750 m 5
 470 719 l 5
 470 428 l 5
 442 399 l 5
 412 428 l 5
 412 722 l 5
 440 750 l 5
440 383 m 5
 470 353 l 5
 470 61 l 5
 442 33 l 5
 412 61 l 5
 412 355 l 5
 440 383 l 5
262 390 m 5
 292 420 l 5
 406 420 l 5
 434 391 l 5
 406 362 l 5
 288 362 l 5
 262 390 l 5
EndSplineSet
Validated: 1
EndChar

StartChar: i
Encoding: 105 105 105
Width: 512
Flags: HW
LayerCount: 2
UndoRedoHistory
Layer: 1
Undoes
UndoOperation
Index: 0
Type: 1
WasModified: 0
WasOrder2: 0
Layer: 2
Width: 512
VWidth: 1024
LBearingChange: 0
UnicodeEnc: 0
InstructionsLength: 0
SplineSet
255 713.180664062 m 5
 285 683.180664062 l 5
 285 431.180664062 l 5
 256 402.180664062 l 5
 227 431.180664062 l 5
 227 685.180664062 l 5
 255 713.180664062 l 5
255 376.180664062 m 5
 285 346.180664062 l 5
 285 94.1806640625 l 5
 256 65.1806640625 l 5
 227 94.1806640625 l 5
 227 348.180664062 l 5
 255 376.180664062 l 5
80 758.180664062 m 5
 110 788.180664062 l 5
 224 788.180664062 l 5
 253 759.180664062 l 5
 224 730.180664062 l 5
 107 730.180664062 l 5
 80 758.180664062 l 5
259 758.180664062 m 5
 289 788.180664062 l 5
 403 788.180664062 l 5
 432 759.180664062 l 5
 403 730.180664062 l 5
 286 730.180664062 l 5
 259 758.180664062 l 5
80 28 m 5
 110 58 l 5
 224 58 l 5
 253 29 l 5
 224 0 l 5
 107 0 l 5
 80 28 l 5
259 28 m 5
 289 58 l 5
 403 58 l 5
 432 29 l 5
 403 0 l 5
 286 0 l 5
 259 28 l 5
EndSplineSet
EndUndoOperation
UndoOperation
Index: 1
Type: 1
WasModified: 0
WasOrder2: 0
Layer: 2
Width: 512
VWidth: 1024
LBearingChange: 0
UnicodeEnc: 0
InstructionsLength: 0
EndUndoOperation
UndoOperation
Index: 2
Type: 3
WasModified: 0
WasOrder2: 0
Layer: 2
EndUndoOperation
EndUndoes
Redoes
EndRedoes
EndUndoRedoHistory
Fore
SplineSet
255 713 m 5
 285 683 l 5
 285 431 l 5
 256 402 l 5
 227 431 l 5
 227 685 l 5
 255 713 l 5
255 376 m 5
 285 346 l 5
 285 94 l 5
 256 65 l 5
 227 94 l 5
 227 348 l 5
 255 376 l 5
80 758 m 5
 110 788 l 5
 224 788 l 5
 253 759 l 5
 224 730 l 5
 107 730 l 5
 80 758 l 5
259 758 m 5
 289 788 l 5
 403 788 l 5
 432 759 l 5
 403 730 l 5
 286 730 l 5
 259 758 l 5
80 28 m 5
 110 58 l 5
 224 58 l 5
 253 29 l 5
 224 0 l 5
 107 0 l 5
 80 28 l 5
259 28 m 5
 289 58 l 5
 403 58 l 5
 432 29 l 5
 403 0 l 5
 286 0 l 5
 259 28 l 5
EndSplineSet
Validated: 1
EndChar

StartChar: j
Encoding: 106 106 106
Width: 512
Flags: HW
LayerCount: 2
UndoRedoHistory
Layer: 1
Undoes
UndoOperation
Index: 0
Type: 1
WasModified: 0
WasOrder2: 0
Layer: 2
Width: 512
VWidth: 1024
LBearingChange: 0
UnicodeEnc: 0
InstructionsLength: 0
SplineSet
68.5 381.180664062 m 5
 98.5 351.180664062 l 5
 98.5 60.1806640625 l 5
 70.5 31.1806640625 l 5
 41.5 60.1806640625 l 5
 41.5 353.180664062 l 5
 68.5 381.180664062 l 5
440.5 752.180664062 m 5
 470.5 721.180664062 l 5
 470.5 430.180664062 l 5
 441.5 401.180664062 l 5
 412.5 430.180664062 l 5
 412.5 724.180664062 l 5
 440.5 752.180664062 l 5
440.5 385.180664062 m 5
 470.5 355.180664062 l 5
 470.5 63.1806640625 l 5
 441.5 35.1806640625 l 5
 412.5 63.1806640625 l 5
 412.5 357.180664062 l 5
 440.5 385.180664062 l 5
82.5 28 m 5
 112.5 58 l 5
 226.5 58 l 5
 255.5 29 l 5
 226.5 0 l 5
 109.5 0 l 5
 82.5 28 l 5
261.5 28 m 5
 291.5 58 l 5
 405.5 58 l 5
 434.5 29 l 5
 405.5 0 l 5
 288.5 0 l 5
 261.5 28 l 5
EndSplineSet
EndUndoOperation
UndoOperation
Index: 1
Type: 1
WasModified: 0
WasOrder2: 0
Layer: 2
Width: 512
VWidth: 1024
LBearingChange: 0
UnicodeEnc: 0
InstructionsLength: 0
EndUndoOperation
UndoOperation
Index: 2
Type: 3
WasModified: 0
WasOrder2: 0
Layer: 2
EndUndoOperation
EndUndoes
Redoes
EndRedoes
EndUndoRedoHistory
Fore
SplineSet
68 381 m 5
 98 351 l 5
 98 60 l 5
 70 31 l 5
 42 60 l 5
 42 353 l 5
 68 381 l 5
440 752 m 5
 470 721 l 5
 470 430 l 5
 442 401 l 5
 412 430 l 5
 412 724 l 5
 440 752 l 5
440 385 m 5
 470 355 l 5
 470 63 l 5
 442 35 l 5
 412 63 l 5
 412 357 l 5
 440 385 l 5
82 28 m 5
 112 58 l 5
 226 58 l 5
 256 29 l 5
 226 0 l 5
 110 0 l 5
 82 28 l 5
262 28 m 5
 292 58 l 5
 406 58 l 5
 434 29 l 5
 406 0 l 5
 288 0 l 5
 262 28 l 5
EndSplineSet
Validated: 1
EndChar

StartChar: k
Encoding: 107 107 107
Width: 512
Flags: HW
LayerCount: 2
UndoRedoHistory
Layer: 1
Undoes
UndoOperation
Index: 0
Type: 1
WasModified: 0
WasOrder2: 0
Layer: 2
Width: 512
VWidth: 1024
LBearingChange: 0
UnicodeEnc: 0
InstructionsLength: 0
SplineSet
100 746 m 5
 130 715 l 5
 130 424 l 5
 102 395 l 5
 73 424 l 5
 73 718 l 5
 100 746 l 5
100 375 m 5
 130 345 l 5
 130 54 l 5
 102 25 l 5
 73 54 l 5
 73 347 l 5
 100 375 l 5
114 386 m 5
 144 416 l 5
 258 416 l 5
 287 387 l 5
 258 358 l 5
 141 358 l 5
 114 386 l 5
324 430 m 5
 324 473 l 5
 398 714 l 5
 439 714 l 5
 439 673 l 5
 363 430 l 5
 324 430 l 5
324 349 m 5
 363 349 l 5
 439 105 l 5
 439 65 l 5
 398 65 l 5
 324 306 l 5
 324 349 l 5
EndSplineSet
EndUndoOperation
UndoOperation
Index: 1
Type: 1
WasModified: 0
WasOrder2: 0
Layer: 2
Width: 512
VWidth: 1024
LBearingChange: 0
UnicodeEnc: 0
InstructionsLength: 0
EndUndoOperation
UndoOperation
Index: 2
Type: 3
WasModified: 0
WasOrder2: 0
Layer: 2
EndUndoOperation
EndUndoes
Redoes
EndRedoes
EndUndoRedoHistory
Fore
SplineSet
100 746 m 5
 130 715 l 5
 130 424 l 5
 102 395 l 5
 73 424 l 5
 73 718 l 5
 100 746 l 5
100 375 m 5
 130 345 l 5
 130 54 l 5
 102 25 l 5
 73 54 l 5
 73 347 l 5
 100 375 l 5
114 386 m 5
 144 416 l 5
 258 416 l 5
 287 387 l 5
 258 358 l 5
 141 358 l 5
 114 386 l 5
324 430 m 5
 324 473 l 5
 398 714 l 5
 439 714 l 5
 439 673 l 5
 363 430 l 5
 324 430 l 5
324 349 m 5
 363 349 l 5
 439 105 l 5
 439 65 l 5
 398 65 l 5
 324 306 l 5
 324 349 l 5
EndSplineSet
Validated: 1
EndChar

StartChar: l
Encoding: 108 108 108
Width: 512
Flags: HW
LayerCount: 2
UndoRedoHistory
Layer: 1
Undoes
UndoOperation
Index: 0
Type: 1
WasModified: 0
WasOrder2: 0
Layer: 2
Width: 512
VWidth: 1024
LBearingChange: 0
UnicodeEnc: 0
InstructionsLength: 0
SplineSet
86.5 752.180664062 m 5
 116.5 721.180664062 l 5
 116.5 430.180664062 l 5
 88.5 401.180664062 l 5
 59.5 430.180664062 l 5
 59.5 724.180664062 l 5
 86.5 752.180664062 l 5
86.5 381.180664062 m 5
 116.5 351.180664062 l 5
 116.5 60.1806640625 l 5
 88.5 31.1806640625 l 5
 59.5 60.1806640625 l 5
 59.5 353.180664062 l 5
 86.5 381.180664062 l 5
100.5 28 m 5
 130.5 58 l 5
 244.5 58 l 5
 273.5 29 l 5
 244.5 0 l 5
 127.5 0 l 5
 100.5 28 l 5
279.5 28 m 5
 309.5 58 l 5
 423.5 58 l 5
 452.5 29 l 5
 423.5 0 l 5
 306.5 0 l 5
 279.5 28 l 5
EndSplineSet
EndUndoOperation
UndoOperation
Index: 1
Type: 1
WasModified: 0
WasOrder2: 0
Layer: 2
Width: 512
VWidth: 1024
LBearingChange: 0
UnicodeEnc: 0
InstructionsLength: 0
EndUndoOperation
UndoOperation
Index: 2
Type: 3
WasModified: 0
WasOrder2: 0
Layer: 2
EndUndoOperation
EndUndoes
Redoes
EndRedoes
EndUndoRedoHistory
Fore
SplineSet
86 752 m 5
 116 721 l 5
 116 430 l 5
 88 401 l 5
 60 430 l 5
 60 724 l 5
 86 752 l 5
86 381 m 5
 116 351 l 5
 116 60 l 5
 88 31 l 5
 60 60 l 5
 60 353 l 5
 86 381 l 5
100 28 m 5
 130 58 l 5
 244 58 l 5
 274 29 l 5
 244 0 l 5
 128 0 l 5
 100 28 l 5
280 28 m 5
 310 58 l 5
 424 58 l 5
 452 29 l 5
 424 0 l 5
 306 0 l 5
 280 28 l 5
EndSplineSet
Validated: 1
EndChar

StartChar: m
Encoding: 109 109 109
Width: 512
Flags: HW
LayerCount: 2
UndoRedoHistory
Layer: 1
Undoes
UndoOperation
Index: 0
Type: 1
WasModified: 0
WasOrder2: 0
Layer: 2
Width: 512
VWidth: 1024
LBearingChange: 0
UnicodeEnc: 0
InstructionsLength: 0
SplineSet
68.5 746 m 5
 98.5 715 l 5
 98.5 424 l 5
 70.5 395 l 5
 41.5 424 l 5
 41.5 718 l 5
 68.5 746 l 5
68.5 375 m 5
 98.5 345 l 5
 98.5 54 l 5
 70.5 25 l 5
 41.5 54 l 5
 41.5 347 l 5
 68.5 375 l 5
440.5 746 m 5
 470.5 715 l 5
 470.5 424 l 5
 441.5 395 l 5
 412.5 424 l 5
 412.5 718 l 5
 440.5 746 l 5
440.5 379 m 5
 470.5 349 l 5
 470.5 57 l 5
 441.5 29 l 5
 412.5 57 l 5
 412.5 351 l 5
 440.5 379 l 5
292.5 430 m 5
 292.5 473 l 5
 366.5 714 l 5
 407.5 714 l 5
 407.5 673 l 5
 331.5 430 l 5
 292.5 430 l 5
104.5 714 m 5
 143.5 714 l 5
 222.5 471 l 5
 222.5 430 l 5
 181.5 430 l 5
 104.5 672 l 5
 104.5 714 l 5
EndSplineSet
EndUndoOperation
UndoOperation
Index: 1
Type: 1
WasModified: 0
WasOrder2: 0
Layer: 2
Width: 512
VWidth: 1024
LBearingChange: 0
UnicodeEnc: 0
InstructionsLength: 0
EndUndoOperation
UndoOperation
Index: 2
Type: 3
WasModified: 0
WasOrder2: 0
Layer: 2
EndUndoOperation
EndUndoes
Redoes
EndRedoes
EndUndoRedoHistory
Fore
SplineSet
68 746 m 5
 98 715 l 5
 98 424 l 5
 70 395 l 5
 42 424 l 5
 42 718 l 5
 68 746 l 5
68 375 m 5
 98 345 l 5
 98 54 l 5
 70 25 l 5
 42 54 l 5
 42 347 l 5
 68 375 l 5
440 746 m 5
 470 715 l 5
 470 424 l 5
 442 395 l 5
 412 424 l 5
 412 718 l 5
 440 746 l 5
440 379 m 5
 470 349 l 5
 470 57 l 5
 442 29 l 5
 412 57 l 5
 412 351 l 5
 440 379 l 5
292 430 m 5
 292 473 l 5
 366 714 l 5
 408 714 l 5
 408 673 l 5
 332 430 l 5
 292 430 l 5
104 714 m 5
 144 714 l 5
 222 471 l 5
 222 430 l 5
 182 430 l 5
 104 672 l 5
 104 714 l 5
EndSplineSet
Validated: 1
EndChar

StartChar: n
Encoding: 110 110 110
Width: 512
Flags: HW
LayerCount: 2
UndoRedoHistory
Layer: 1
Undoes
UndoOperation
Index: 0
Type: 1
WasModified: 0
WasOrder2: 0
Layer: 2
Width: 512
VWidth: 1024
LBearingChange: 0
UnicodeEnc: 0
InstructionsLength: 0
SplineSet
68.5 745 m 5
 98.5 714 l 5
 98.5 423 l 5
 70.5 394 l 5
 41.5 423 l 5
 41.5 717 l 5
 68.5 745 l 5
68.5 374 m 5
 98.5 344 l 5
 98.5 53 l 5
 70.5 24 l 5
 41.5 53 l 5
 41.5 346 l 5
 68.5 374 l 5
440.5 745 m 5
 470.5 714 l 5
 470.5 423 l 5
 441.5 394 l 5
 412.5 423 l 5
 412.5 717 l 5
 440.5 745 l 5
440.5 378 m 5
 470.5 348 l 5
 470.5 56 l 5
 441.5 28 l 5
 412.5 56 l 5
 412.5 350 l 5
 440.5 378 l 5
104.5 713 m 5
 143.5 713 l 5
 222.5 470 l 5
 222.5 429 l 5
 181.5 429 l 5
 104.5 671 l 5
 104.5 713 l 5
292.5 348 m 5
 331.5 348 l 5
 407.5 104 l 5
 407.5 64 l 5
 366.5 64 l 5
 292.5 305 l 5
 292.5 348 l 5
EndSplineSet
EndUndoOperation
UndoOperation
Index: 1
Type: 1
WasModified: 0
WasOrder2: 0
Layer: 2
Width: 512
VWidth: 1024
LBearingChange: 0
UnicodeEnc: 0
InstructionsLength: 0
EndUndoOperation
UndoOperation
Index: 2
Type: 3
WasModified: 0
WasOrder2: 0
Layer: 2
EndUndoOperation
EndUndoes
Redoes
EndRedoes
EndUndoRedoHistory
Fore
SplineSet
68 745 m 5
 98 714 l 5
 98 423 l 5
 70 394 l 5
 42 423 l 5
 42 717 l 5
 68 745 l 5
68 374 m 5
 98 344 l 5
 98 53 l 5
 70 24 l 5
 42 53 l 5
 42 346 l 5
 68 374 l 5
440 745 m 5
 470 714 l 5
 470 423 l 5
 442 394 l 5
 412 423 l 5
 412 717 l 5
 440 745 l 5
440 378 m 5
 470 348 l 5
 470 56 l 5
 442 28 l 5
 412 56 l 5
 412 350 l 5
 440 378 l 5
104 713 m 5
 144 713 l 5
 222 470 l 5
 222 429 l 5
 182 429 l 5
 104 671 l 5
 104 713 l 5
292 348 m 5
 332 348 l 5
 408 104 l 5
 408 64 l 5
 366 64 l 5
 292 305 l 5
 292 348 l 5
EndSplineSet
Validated: 1
EndChar

StartChar: o
Encoding: 111 111 111
Width: 512
Flags: HW
LayerCount: 2
UndoRedoHistory
Layer: 1
Undoes
UndoOperation
Index: 0
Type: 1
WasModified: 0
WasOrder2: 0
Layer: 2
Width: 512
VWidth: 1024
LBearingChange: 0
UnicodeEnc: 0
InstructionsLength: 0
SplineSet
68.5 752.180664062 m 5
 98.5 721.180664062 l 5
 98.5 430.180664062 l 5
 70.5 401.180664062 l 5
 41.5 430.180664062 l 5
 41.5 724.180664062 l 5
 68.5 752.180664062 l 5
68.5 381.180664062 m 5
 98.5 351.180664062 l 5
 98.5 60.1806640625 l 5
 70.5 31.1806640625 l 5
 41.5 60.1806640625 l 5
 41.5 353.180664062 l 5
 68.5 381.180664062 l 5
440.5 752.180664062 m 5
 470.5 721.180664062 l 5
 470.5 430.180664062 l 5
 441.5 401.180664062 l 5
 412.5 430.180664062 l 5
 412.5 724.180664062 l 5
 440.5 752.180664062 l 5
440.5 385.180664062 m 5
 470.5 355.180664062 l 5
 470.5 63.1806640625 l 5
 441.5 35.1806640625 l 5
 412.5 63.1806640625 l 5
 412.5 357.180664062 l 5
 440.5 385.180664062 l 5
82.5 758.180664062 m 5
 112.5 788.180664062 l 5
 226.5 788.180664062 l 5
 255.5 759.180664062 l 5
 226.5 730.180664062 l 5
 109.5 730.180664062 l 5
 82.5 758.180664062 l 5
261.5 758.180664062 m 5
 291.5 788.180664062 l 5
 405.5 788.180664062 l 5
 434.5 759.180664062 l 5
 405.5 730.180664062 l 5
 288.5 730.180664062 l 5
 261.5 758.180664062 l 5
82.5 28 m 5
 112.5 58 l 5
 226.5 58 l 5
 255.5 29 l 5
 226.5 0 l 5
 109.5 0 l 5
 82.5 28 l 5
261.5 28 m 5
 291.5 58 l 5
 405.5 58 l 5
 434.5 29 l 5
 405.5 0 l 5
 288.5 0 l 5
 261.5 28 l 5
EndSplineSet
EndUndoOperation
UndoOperation
Index: 1
Type: 1
WasModified: 0
WasOrder2: 0
Layer: 2
Width: 512
VWidth: 1024
LBearingChange: 0
UnicodeEnc: 0
InstructionsLength: 0
EndUndoOperation
UndoOperation
Index: 2
Type: 3
WasModified: 0
WasOrder2: 0
Layer: 2
EndUndoOperation
EndUndoes
Redoes
EndRedoes
EndUndoRedoHistory
Fore
SplineSet
68 752 m 5
 98 721 l 5
 98 430 l 5
 70 401 l 5
 42 430 l 5
 42 724 l 5
 68 752 l 5
68 381 m 5
 98 351 l 5
 98 60 l 5
 70 31 l 5
 42 60 l 5
 42 353 l 5
 68 381 l 5
440 752 m 5
 470 721 l 5
 470 430 l 5
 442 401 l 5
 412 430 l 5
 412 724 l 5
 440 752 l 5
440 385 m 5
 470 355 l 5
 470 63 l 5
 442 35 l 5
 412 63 l 5
 412 357 l 5
 440 385 l 5
82 758 m 5
 112 788 l 5
 226 788 l 5
 256 759 l 5
 226 730 l 5
 110 730 l 5
 82 758 l 5
262 758 m 5
 292 788 l 5
 406 788 l 5
 434 759 l 5
 406 730 l 5
 288 730 l 5
 262 758 l 5
82 28 m 5
 112 58 l 5
 226 58 l 5
 256 29 l 5
 226 0 l 5
 110 0 l 5
 82 28 l 5
262 28 m 5
 292 58 l 5
 406 58 l 5
 434 29 l 5
 406 0 l 5
 288 0 l 5
 262 28 l 5
EndSplineSet
Validated: 1
EndChar

StartChar: p
Encoding: 112 112 112
Width: 512
Flags: HW
LayerCount: 2
UndoRedoHistory
Layer: 1
Undoes
UndoOperation
Index: 0
Type: 1
WasModified: 0
WasOrder2: 0
Layer: 2
Width: 512
VWidth: 1024
LBearingChange: 0
UnicodeEnc: 0
InstructionsLength: 0
SplineSet
68.5 748 m 5
 98.5 717 l 5
 98.5 426 l 5
 70.5 397 l 5
 41.5 426 l 5
 41.5 720 l 5
 68.5 748 l 5
68.5 377 m 5
 98.5 347 l 5
 98.5 56 l 5
 70.5 27 l 5
 41.5 56 l 5
 41.5 349 l 5
 68.5 377 l 5
82.5 388 m 5
 112.5 418 l 5
 226.5 418 l 5
 255.5 389 l 5
 226.5 360 l 5
 109.5 360 l 5
 82.5 388 l 5
440.5 748 m 5
 470.5 717 l 5
 470.5 426 l 5
 441.5 397 l 5
 412.5 426 l 5
 412.5 720 l 5
 440.5 748 l 5
261.5 388 m 5
 291.5 418 l 5
 405.5 418 l 5
 434.5 389 l 5
 405.5 360 l 5
 288.5 360 l 5
 261.5 388 l 5
82.5 754 m 5
 112.5 784 l 5
 226.5 784 l 5
 255.5 755 l 5
 226.5 726 l 5
 109.5 726 l 5
 82.5 754 l 5
261.5 754 m 5
 291.5 784 l 5
 405.5 784 l 5
 434.5 755 l 5
 405.5 726 l 5
 288.5 726 l 5
 261.5 754 l 5
EndSplineSet
EndUndoOperation
UndoOperation
Index: 1
Type: 1
WasModified: 0
WasOrder2: 0
Layer: 2
Width: 512
VWidth: 1024
LBearingChange: 0
UnicodeEnc: 0
InstructionsLength: 0
EndUndoOperation
UndoOperation
Index: 2
Type: 3
WasModified: 0
WasOrder2: 0
Layer: 2
EndUndoOperation
EndUndoes
Redoes
EndRedoes
EndUndoRedoHistory
Fore
SplineSet
68 748 m 5
 98 717 l 5
 98 426 l 5
 70 397 l 5
 42 426 l 5
 42 720 l 5
 68 748 l 5
68 377 m 5
 98 347 l 5
 98 56 l 5
 70 27 l 5
 42 56 l 5
 42 349 l 5
 68 377 l 5
82 388 m 5
 112 418 l 5
 226 418 l 5
 256 389 l 5
 226 360 l 5
 110 360 l 5
 82 388 l 5
440 748 m 5
 470 717 l 5
 470 426 l 5
 442 397 l 5
 412 426 l 5
 412 720 l 5
 440 748 l 5
262 388 m 5
 292 418 l 5
 406 418 l 5
 434 389 l 5
 406 360 l 5
 288 360 l 5
 262 388 l 5
82 754 m 5
 112 784 l 5
 226 784 l 5
 256 755 l 5
 226 726 l 5
 110 726 l 5
 82 754 l 5
262 754 m 5
 292 784 l 5
 406 784 l 5
 434 755 l 5
 406 726 l 5
 288 726 l 5
 262 754 l 5
EndSplineSet
Validated: 1
EndChar

StartChar: q
Encoding: 113 113 113
Width: 512
Flags: HW
LayerCount: 2
UndoRedoHistory
Layer: 1
Undoes
UndoOperation
Index: 0
Type: 1
WasModified: 0
WasOrder2: 0
Layer: 2
Width: 512
VWidth: 1024
LBearingChange: 0
UnicodeEnc: 0
InstructionsLength: 0
SplineSet
68.5 752.180664062 m 5
 98.5 721.180664062 l 5
 98.5 430.180664062 l 5
 70.5 401.180664062 l 5
 41.5 430.180664062 l 5
 41.5 724.180664062 l 5
 68.5 752.180664062 l 5
68.5 381.180664062 m 5
 98.5 351.180664062 l 5
 98.5 60.1806640625 l 5
 70.5 31.1806640625 l 5
 41.5 60.1806640625 l 5
 41.5 353.180664062 l 5
 68.5 381.180664062 l 5
440.5 752.180664062 m 5
 470.5 721.180664062 l 5
 470.5 430.180664062 l 5
 441.5 401.180664062 l 5
 412.5 430.180664062 l 5
 412.5 724.180664062 l 5
 440.5 752.180664062 l 5
440.5 385.180664062 m 5
 470.5 355.180664062 l 5
 470.5 63.1806640625 l 5
 441.5 35.1806640625 l 5
 412.5 63.1806640625 l 5
 412.5 357.180664062 l 5
 440.5 385.180664062 l 5
292.5 355.180664062 m 5
 331.5 355.180664062 l 5
 407.5 111.180664062 l 5
 407.5 71.1806640625 l 5
 366.5 71.1806640625 l 5
 292.5 312.180664062 l 5
 292.5 355.180664062 l 5
82.5 758.180664062 m 5
 112.5 788.180664062 l 5
 226.5 788.180664062 l 5
 255.5 759.180664062 l 5
 226.5 730.180664062 l 5
 109.5 730.180664062 l 5
 82.5 758.180664062 l 5
261.5 758.180664062 m 5
 291.5 788.180664062 l 5
 405.5 788.180664062 l 5
 434.5 759.180664062 l 5
 405.5 730.180664062 l 5
 288.5 730.180664062 l 5
 261.5 758.180664062 l 5
82.5 28 m 5
 112.5 58 l 5
 226.5 58 l 5
 255.5 29 l 5
 226.5 0 l 5
 109.5 0 l 5
 82.5 28 l 5
261.5 28 m 5
 291.5 58 l 5
 405.5 58 l 5
 434.5 29 l 5
 405.5 0 l 5
 288.5 0 l 5
 261.5 28 l 5
EndSplineSet
EndUndoOperation
UndoOperation
Index: 1
Type: 1
WasModified: 0
WasOrder2: 0
Layer: 2
Width: 512
VWidth: 1024
LBearingChange: 0
UnicodeEnc: 0
InstructionsLength: 0
EndUndoOperation
UndoOperation
Index: 2
Type: 3
WasModified: 0
WasOrder2: 0
Layer: 2
EndUndoOperation
EndUndoes
Redoes
EndRedoes
EndUndoRedoHistory
Fore
SplineSet
68 752 m 5
 98 721 l 5
 98 430 l 5
 70 401 l 5
 42 430 l 5
 42 724 l 5
 68 752 l 5
68 381 m 5
 98 351 l 5
 98 60 l 5
 70 31 l 5
 42 60 l 5
 42 353 l 5
 68 381 l 5
440 752 m 5
 470 721 l 5
 470 430 l 5
 442 401 l 5
 412 430 l 5
 412 724 l 5
 440 752 l 5
440 385 m 5
 470 355 l 5
 470 63 l 5
 442 35 l 5
 412 63 l 5
 412 357 l 5
 440 385 l 5
292 355 m 5
 332 355 l 5
 408 111 l 5
 408 71 l 5
 366 71 l 5
 292 312 l 5
 292 355 l 5
82 758 m 5
 112 788 l 5
 226 788 l 5
 256 759 l 5
 226 730 l 5
 110 730 l 5
 82 758 l 5
262 758 m 5
 292 788 l 5
 406 788 l 5
 434 759 l 5
 406 730 l 5
 288 730 l 5
 262 758 l 5
82 28 m 5
 112 58 l 5
 226 58 l 5
 256 29 l 5
 226 0 l 5
 110 0 l 5
 82 28 l 5
262 28 m 5
 292 58 l 5
 406 58 l 5
 434 29 l 5
 406 0 l 5
 288 0 l 5
 262 28 l 5
EndSplineSet
Validated: 1
EndChar

StartChar: r
Encoding: 114 114 114
Width: 512
Flags: HW
LayerCount: 2
UndoRedoHistory
Layer: 1
Undoes
UndoOperation
Index: 0
Type: 1
WasModified: 0
WasOrder2: 0
Layer: 2
Width: 512
VWidth: 1024
LBearingChange: 0
UnicodeEnc: 0
InstructionsLength: 0
SplineSet
68.5 749 m 5
 98.5 718 l 5
 98.5 427 l 5
 70.5 398 l 5
 41.5 427 l 5
 41.5 721 l 5
 68.5 749 l 5
68.5 378 m 5
 98.5 348 l 5
 98.5 57 l 5
 70.5 28 l 5
 41.5 57 l 5
 41.5 350 l 5
 68.5 378 l 5
82.5 389 m 5
 112.5 419 l 5
 226.5 419 l 5
 255.5 390 l 5
 226.5 361 l 5
 109.5 361 l 5
 82.5 389 l 5
440.5 749 m 5
 470.5 718 l 5
 470.5 427 l 5
 441.5 398 l 5
 412.5 427 l 5
 412.5 721 l 5
 440.5 749 l 5
292.5 352 m 5
 331.5 352 l 5
 407.5 108 l 5
 407.5 68 l 5
 366.5 68 l 5
 292.5 309 l 5
 292.5 352 l 5
261.5 389 m 5
 291.5 419 l 5
 405.5 419 l 5
 434.5 390 l 5
 405.5 361 l 5
 288.5 361 l 5
 261.5 389 l 5
82.5 755 m 5
 112.5 785 l 5
 226.5 785 l 5
 255.5 756 l 5
 226.5 727 l 5
 109.5 727 l 5
 82.5 755 l 5
261.5 755 m 5
 291.5 785 l 5
 405.5 785 l 5
 434.5 756 l 5
 405.5 727 l 5
 288.5 727 l 5
 261.5 755 l 5
EndSplineSet
EndUndoOperation
UndoOperation
Index: 1
Type: 1
WasModified: 0
WasOrder2: 0
Layer: 2
Width: 512
VWidth: 1024
LBearingChange: 0
UnicodeEnc: 0
InstructionsLength: 0
EndUndoOperation
UndoOperation
Index: 2
Type: 3
WasModified: 0
WasOrder2: 0
Layer: 2
EndUndoOperation
EndUndoes
Redoes
EndRedoes
EndUndoRedoHistory
Fore
SplineSet
68 749 m 5
 98 718 l 5
 98 427 l 5
 70 398 l 5
 42 427 l 5
 42 721 l 5
 68 749 l 5
68 378 m 5
 98 348 l 5
 98 57 l 5
 70 28 l 5
 42 57 l 5
 42 350 l 5
 68 378 l 5
82 389 m 5
 112 419 l 5
 226 419 l 5
 256 390 l 5
 226 361 l 5
 110 361 l 5
 82 389 l 5
440 749 m 5
 470 718 l 5
 470 427 l 5
 442 398 l 5
 412 427 l 5
 412 721 l 5
 440 749 l 5
292 352 m 5
 332 352 l 5
 408 108 l 5
 408 68 l 5
 366 68 l 5
 292 309 l 5
 292 352 l 5
262 389 m 5
 292 419 l 5
 406 419 l 5
 434 390 l 5
 406 361 l 5
 288 361 l 5
 262 389 l 5
82 755 m 5
 112 785 l 5
 226 785 l 5
 256 756 l 5
 226 727 l 5
 110 727 l 5
 82 755 l 5
262 755 m 5
 292 785 l 5
 406 785 l 5
 434 756 l 5
 406 727 l 5
 288 727 l 5
 262 755 l 5
EndSplineSet
Validated: 1
EndChar

StartChar: s
Encoding: 115 115 115
Width: 512
Flags: HW
LayerCount: 2
UndoRedoHistory
Layer: 1
Undoes
UndoOperation
Index: 0
Type: 1
WasModified: 0
WasOrder2: 0
Layer: 2
Width: 512
VWidth: 1024
LBearingChange: 0
UnicodeEnc: 0
InstructionsLength: 0
SplineSet
68.5 752.180664062 m 5
 98.5 721.180664062 l 5
 98.5 430.180664062 l 5
 70.5 401.180664062 l 5
 41.5 430.180664062 l 5
 41.5 724.180664062 l 5
 68.5 752.180664062 l 5
82.5 392.180664062 m 5
 112.5 422.180664062 l 5
 226.5 422.180664062 l 5
 255.5 393.180664062 l 5
 226.5 364.180664062 l 5
 109.5 364.180664062 l 5
 82.5 392.180664062 l 5
440.5 385.180664062 m 5
 470.5 355.180664062 l 5
 470.5 63.1806640625 l 5
 441.5 35.1806640625 l 5
 412.5 63.1806640625 l 5
 412.5 357.180664062 l 5
 440.5 385.180664062 l 5
261.5 392.180664062 m 5
 291.5 422.180664062 l 5
 405.5 422.180664062 l 5
 434.5 393.180664062 l 5
 405.5 364.180664062 l 5
 288.5 364.180664062 l 5
 261.5 392.180664062 l 5
82.5 758.180664062 m 5
 112.5 788.180664062 l 5
 226.5 788.180664062 l 5
 255.5 759.180664062 l 5
 226.5 730.180664062 l 5
 109.5 730.180664062 l 5
 82.5 758.180664062 l 5
261.5 758.180664062 m 5
 291.5 788.180664062 l 5
 405.5 788.180664062 l 5
 434.5 759.180664062 l 5
 405.5 730.180664062 l 5
 288.5 730.180664062 l 5
 261.5 758.180664062 l 5
82.5 28 m 5
 112.5 58 l 5
 226.5 58 l 5
 255.5 29 l 5
 226.5 0 l 5
 109.5 0 l 5
 82.5 28 l 5
261.5 28 m 5
 291.5 58 l 5
 405.5 58 l 5
 434.5 29 l 5
 405.5 0 l 5
 288.5 0 l 5
 261.5 28 l 5
EndSplineSet
EndUndoOperation
UndoOperation
Index: 1
Type: 1
WasModified: 0
WasOrder2: 0
Layer: 2
Width: 512
VWidth: 1024
LBearingChange: 0
UnicodeEnc: 0
InstructionsLength: 0
EndUndoOperation
UndoOperation
Index: 2
Type: 3
WasModified: 0
WasOrder2: 0
Layer: 2
EndUndoOperation
EndUndoes
Redoes
EndRedoes
EndUndoRedoHistory
Fore
SplineSet
68 752 m 5
 98 721 l 5
 98 430 l 5
 70 401 l 5
 42 430 l 5
 42 724 l 5
 68 752 l 5
82 392 m 5
 112 422 l 5
 226 422 l 5
 256 393 l 5
 226 364 l 5
 110 364 l 5
 82 392 l 5
440 385 m 5
 470 355 l 5
 470 63 l 5
 442 35 l 5
 412 63 l 5
 412 357 l 5
 440 385 l 5
262 392 m 5
 292 422 l 5
 406 422 l 5
 434 393 l 5
 406 364 l 5
 288 364 l 5
 262 392 l 5
82 758 m 5
 112 788 l 5
 226 788 l 5
 256 759 l 5
 226 730 l 5
 110 730 l 5
 82 758 l 5
262 758 m 5
 292 788 l 5
 406 788 l 5
 434 759 l 5
 406 730 l 5
 288 730 l 5
 262 758 l 5
82 28 m 5
 112 58 l 5
 226 58 l 5
 256 29 l 5
 226 0 l 5
 110 0 l 5
 82 28 l 5
262 28 m 5
 292 58 l 5
 406 58 l 5
 434 29 l 5
 406 0 l 5
 288 0 l 5
 262 28 l 5
EndSplineSet
Validated: 1
EndChar

StartChar: t
Encoding: 116 116 116
Width: 512
Flags: HW
LayerCount: 2
UndoRedoHistory
Layer: 1
Undoes
UndoOperation
Index: 0
Type: 1
WasModified: 0
WasOrder2: 0
Layer: 2
Width: 512
VWidth: 1024
LBearingChange: 0
UnicodeEnc: 0
InstructionsLength: 0
SplineSet
255 711 m 5
 285 681 l 5
 285 429 l 5
 256 400 l 5
 227 429 l 5
 227 683 l 5
 255 711 l 5
255 374 m 5
 285 344 l 5
 285 92 l 5
 256 63 l 5
 227 92 l 5
 227 346 l 5
 255 374 l 5
80 756 m 5
 110 786 l 5
 224 786 l 5
 253 757 l 5
 224 728 l 5
 107 728 l 5
 80 756 l 5
259 756 m 5
 289 786 l 5
 403 786 l 5
 432 757 l 5
 403 728 l 5
 286 728 l 5
 259 756 l 5
EndSplineSet
EndUndoOperation
UndoOperation
Index: 1
Type: 1
WasModified: 0
WasOrder2: 0
Layer: 2
Width: 512
VWidth: 1024
LBearingChange: 0
UnicodeEnc: 0
InstructionsLength: 0
EndUndoOperation
UndoOperation
Index: 2
Type: 3
WasModified: 0
WasOrder2: 0
Layer: 2
EndUndoOperation
EndUndoes
Redoes
EndRedoes
EndUndoRedoHistory
Fore
SplineSet
255 711 m 5
 285 681 l 5
 285 429 l 5
 256 400 l 5
 227 429 l 5
 227 683 l 5
 255 711 l 5
255 374 m 5
 285 344 l 5
 285 92 l 5
 256 63 l 5
 227 92 l 5
 227 346 l 5
 255 374 l 5
80 756 m 5
 110 786 l 5
 224 786 l 5
 253 757 l 5
 224 728 l 5
 107 728 l 5
 80 756 l 5
259 756 m 5
 289 786 l 5
 403 786 l 5
 432 757 l 5
 403 728 l 5
 286 728 l 5
 259 756 l 5
EndSplineSet
Validated: 1
EndChar

StartChar: u
Encoding: 117 117 117
Width: 512
Flags: HW
LayerCount: 2
UndoRedoHistory
Layer: 1
Undoes
UndoOperation
Index: 0
Type: 1
WasModified: 0
WasOrder2: 0
Layer: 2
Width: 512
VWidth: 1024
LBearingChange: 0
UnicodeEnc: 0
InstructionsLength: 0
SplineSet
68.5 752.180664062 m 5
 98.5 721.180664062 l 5
 98.5 430.180664062 l 5
 70.5 401.180664062 l 5
 41.5 430.180664062 l 5
 41.5 724.180664062 l 5
 68.5 752.180664062 l 5
68.5 381.180664062 m 5
 98.5 351.180664062 l 5
 98.5 60.1806640625 l 5
 70.5 31.1806640625 l 5
 41.5 60.1806640625 l 5
 41.5 353.180664062 l 5
 68.5 381.180664062 l 5
440.5 752.180664062 m 5
 470.5 721.180664062 l 5
 470.5 430.180664062 l 5
 441.5 401.180664062 l 5
 412.5 430.180664062 l 5
 412.5 724.180664062 l 5
 440.5 752.180664062 l 5
440.5 385.180664062 m 5
 470.5 355.180664062 l 5
 470.5 63.1806640625 l 5
 441.5 35.1806640625 l 5
 412.5 63.1806640625 l 5
 412.5 357.180664062 l 5
 440.5 385.180664062 l 5
82.5 28 m 5
 112.5 58 l 5
 226.5 58 l 5
 255.5 29 l 5
 226.5 0 l 5
 109.5 0 l 5
 82.5 28 l 5
261.5 28 m 5
 291.5 58 l 5
 405.5 58 l 5
 434.5 29 l 5
 405.5 0 l 5
 288.5 0 l 5
 261.5 28 l 5
EndSplineSet
EndUndoOperation
UndoOperation
Index: 1
Type: 1
WasModified: 0
WasOrder2: 0
Layer: 2
Width: 512
VWidth: 1024
LBearingChange: 0
UnicodeEnc: 0
InstructionsLength: 0
EndUndoOperation
UndoOperation
Index: 2
Type: 3
WasModified: 0
WasOrder2: 0
Layer: 2
EndUndoOperation
EndUndoes
Redoes
EndRedoes
EndUndoRedoHistory
Fore
SplineSet
68 752 m 5
 98 721 l 5
 98 430 l 5
 70 401 l 5
 42 430 l 5
 42 724 l 5
 68 752 l 5
68 381 m 5
 98 351 l 5
 98 60 l 5
 70 31 l 5
 42 60 l 5
 42 353 l 5
 68 381 l 5
440 752 m 5
 470 721 l 5
 470 430 l 5
 442 401 l 5
 412 430 l 5
 412 724 l 5
 440 752 l 5
440 385 m 5
 470 355 l 5
 470 63 l 5
 442 35 l 5
 412 63 l 5
 412 357 l 5
 440 385 l 5
82 28 m 5
 112 58 l 5
 226 58 l 5
 256 29 l 5
 226 0 l 5
 110 0 l 5
 82 28 l 5
262 28 m 5
 292 58 l 5
 406 58 l 5
 434 29 l 5
 406 0 l 5
 288 0 l 5
 262 28 l 5
EndSplineSet
Validated: 1
EndChar

StartChar: v
Encoding: 118 118 118
Width: 512
Flags: HW
LayerCount: 2
UndoRedoHistory
Layer: 1
Undoes
UndoOperation
Index: 0
Type: 1
WasModified: 0
WasOrder2: 0
Layer: 2
Width: 512
VWidth: 1024
LBearingChange: 0
UnicodeEnc: 0
InstructionsLength: 0
SplineSet
100 747 m 5
 130 716 l 5
 130 425 l 5
 102 396 l 5
 73 425 l 5
 73 719 l 5
 100 747 l 5
100 376 m 5
 130 346 l 5
 130 55 l 5
 102 26 l 5
 73 55 l 5
 73 348 l 5
 100 376 l 5
324 431 m 5
 324 474 l 5
 398 715 l 5
 439 715 l 5
 439 674 l 5
 363 431 l 5
 324 431 l 5
136 66 m 5
 136 108 l 5
 213 350 l 5
 254 350 l 5
 254 309 l 5
 175 66 l 5
 136 66 l 5
EndSplineSet
EndUndoOperation
UndoOperation
Index: 1
Type: 1
WasModified: 1
WasOrder2: 0
Layer: 2
Width: 512
VWidth: 1024
LBearingChange: 0
UnicodeEnc: 0
InstructionsLength: 0
EndUndoOperation
UndoOperation
Index: 2
Type: 3
WasModified: 0
WasOrder2: 0
Layer: 2
EndUndoOperation
EndUndoes
Redoes
EndRedoes
EndUndoRedoHistory
Fore
SplineSet
100 747 m 5
 130 716 l 5
 130 425 l 5
 102 396 l 5
 73 425 l 5
 73 719 l 5
 100 747 l 5
100 376 m 5
 130 346 l 5
 130 55 l 5
 102 26 l 5
 73 55 l 5
 73 348 l 5
 100 376 l 5
324 431 m 5
 324 474 l 5
 398 715 l 5
 439 715 l 5
 439 674 l 5
 363 431 l 5
 324 431 l 5
136 66 m 5
 136 108 l 5
 213 350 l 5
 254 350 l 5
 254 309 l 5
 175 66 l 5
 136 66 l 5
EndSplineSet
Validated: 1
EndChar

StartChar: w
Encoding: 119 119 119
Width: 512
Flags: HW
LayerCount: 2
UndoRedoHistory
Layer: 1
Undoes
UndoOperation
Index: 0
Type: 1
WasModified: 0
WasOrder2: 0
Layer: 2
Width: 512
VWidth: 1024
LBearingChange: 0
UnicodeEnc: 0
InstructionsLength: 0
SplineSet
68.5 747 m 5
 98.5 716 l 5
 98.5 425 l 5
 70.5 396 l 5
 41.5 425 l 5
 41.5 719 l 5
 68.5 747 l 5
68.5 376 m 5
 98.5 346 l 5
 98.5 55 l 5
 70.5 26 l 5
 41.5 55 l 5
 41.5 348 l 5
 68.5 376 l 5
440.5 747 m 5
 470.5 716 l 5
 470.5 425 l 5
 441.5 396 l 5
 412.5 425 l 5
 412.5 719 l 5
 440.5 747 l 5
440.5 380 m 5
 470.5 350 l 5
 470.5 58 l 5
 441.5 30 l 5
 412.5 58 l 5
 412.5 352 l 5
 440.5 380 l 5
292.5 350 m 5
 331.5 350 l 5
 407.5 106 l 5
 407.5 66 l 5
 366.5 66 l 5
 292.5 307 l 5
 292.5 350 l 5
104.5 66 m 5
 104.5 108 l 5
 181.5 350 l 5
 222.5 350 l 5
 222.5 309 l 5
 143.5 66 l 5
 104.5 66 l 5
EndSplineSet
EndUndoOperation
UndoOperation
Index: 1
Type: 1
WasModified: 0
WasOrder2: 0
Layer: 2
Width: 512
VWidth: 1024
LBearingChange: 0
UnicodeEnc: 0
InstructionsLength: 0
EndUndoOperation
UndoOperation
Index: 2
Type: 3
WasModified: 0
WasOrder2: 0
Layer: 2
EndUndoOperation
EndUndoes
Redoes
EndRedoes
EndUndoRedoHistory
Fore
SplineSet
68 747 m 5
 98 716 l 5
 98 425 l 5
 70 396 l 5
 42 425 l 5
 42 719 l 5
 68 747 l 5
68 376 m 5
 98 346 l 5
 98 55 l 5
 70 26 l 5
 42 55 l 5
 42 348 l 5
 68 376 l 5
440 747 m 5
 470 716 l 5
 470 425 l 5
 442 396 l 5
 412 425 l 5
 412 719 l 5
 440 747 l 5
440 380 m 5
 470 350 l 5
 470 58 l 5
 442 30 l 5
 412 58 l 5
 412 352 l 5
 440 380 l 5
292 350 m 5
 332 350 l 5
 408 106 l 5
 408 66 l 5
 366 66 l 5
 292 307 l 5
 292 350 l 5
104 66 m 5
 104 108 l 5
 182 350 l 5
 222 350 l 5
 222 309 l 5
 144 66 l 5
 104 66 l 5
EndSplineSet
Validated: 1
EndChar

StartChar: x
Encoding: 120 120 120
Width: 512
Flags: HW
LayerCount: 2
UndoRedoHistory
Layer: 1
Undoes
UndoOperation
Index: 0
Type: 1
WasModified: 0
WasOrder2: 0
Layer: 2
Width: 512
VWidth: 1024
LBearingChange: 0
UnicodeEnc: 0
InstructionsLength: 0
SplineSet
292.5 425 m 5
 292.5 468 l 5
 366.5 709 l 5
 407.5 709 l 5
 407.5 668 l 5
 331.5 425 l 5
 292.5 425 l 5
104.5 709 m 5
 143.5 709 l 5
 222.5 466 l 5
 222.5 425 l 5
 181.5 425 l 5
 104.5 667 l 5
 104.5 709 l 5
292.5 344 m 5
 331.5 344 l 5
 407.5 100 l 5
 407.5 60 l 5
 366.5 60 l 5
 292.5 301 l 5
 292.5 344 l 5
104.5 60 m 5
 104.5 102 l 5
 181.5 344 l 5
 222.5 344 l 5
 222.5 303 l 5
 143.5 60 l 5
 104.5 60 l 5
EndSplineSet
EndUndoOperation
UndoOperation
Index: 1
Type: 1
WasModified: 0
WasOrder2: 0
Layer: 2
Width: 512
VWidth: 1024
LBearingChange: 0
UnicodeEnc: 0
InstructionsLength: 0
EndUndoOperation
UndoOperation
Index: 2
Type: 3
WasModified: 0
WasOrder2: 0
Layer: 2
EndUndoOperation
EndUndoes
Redoes
EndRedoes
EndUndoRedoHistory
Fore
SplineSet
292 425 m 5
 292 468 l 5
 366 709 l 5
 408 709 l 5
 408 668 l 5
 332 425 l 5
 292 425 l 5
104 709 m 5
 144 709 l 5
 222 466 l 5
 222 425 l 5
 182 425 l 5
 104 667 l 5
 104 709 l 5
292 344 m 5
 332 344 l 5
 408 100 l 5
 408 60 l 5
 366 60 l 5
 292 301 l 5
 292 344 l 5
104 60 m 5
 104 102 l 5
 182 344 l 5
 222 344 l 5
 222 303 l 5
 144 60 l 5
 104 60 l 5
EndSplineSet
Validated: 1
EndChar

StartChar: y
Encoding: 121 121 121
Width: 512
Flags: HW
LayerCount: 2
UndoRedoHistory
Layer: 1
Undoes
UndoOperation
Index: 0
Type: 1
WasModified: 0
WasOrder2: 0
Layer: 2
Width: 512
VWidth: 1024
LBearingChange: 0
UnicodeEnc: 0
InstructionsLength: 0
SplineSet
292.5 421 m 5
 292.5 464 l 5
 366.5 705 l 5
 407.5 705 l 5
 407.5 664 l 5
 331.5 421 l 5
 292.5 421 l 5
104.5 705 m 5
 143.5 705 l 5
 222.5 462 l 5
 222.5 421 l 5
 181.5 421 l 5
 104.5 663 l 5
 104.5 705 l 5
257.5 361 m 5
 287.5 331 l 5
 287.5 79 l 5
 258.5 50 l 5
 229.5 79 l 5
 229.5 333 l 5
 257.5 361 l 5
EndSplineSet
EndUndoOperation
UndoOperation
Index: 1
Type: 1
WasModified: 0
WasOrder2: 0
Layer: 2
Width: 512
VWidth: 1024
LBearingChange: 0
UnicodeEnc: 0
InstructionsLength: 0
EndUndoOperation
UndoOperation
Index: 2
Type: 3
WasModified: 0
WasOrder2: 0
Layer: 2
EndUndoOperation
EndUndoes
Redoes
EndRedoes
EndUndoRedoHistory
Fore
SplineSet
292 421 m 5
 292 464 l 5
 366 705 l 5
 408 705 l 5
 408 664 l 5
 332 421 l 5
 292 421 l 5
104 705 m 5
 144 705 l 5
 222 462 l 5
 222 421 l 5
 182 421 l 5
 104 663 l 5
 104 705 l 5
258 361 m 5
 288 331 l 5
 288 79 l 5
 258 50 l 5
 230 79 l 5
 230 333 l 5
 258 361 l 5
EndSplineSet
Validated: 1
EndChar

StartChar: z
Encoding: 122 122 122
Width: 512
Flags: HW
LayerCount: 2
UndoRedoHistory
Layer: 1
Undoes
UndoOperation
Index: 0
Type: 1
WasModified: 0
WasOrder2: 0
Layer: 2
Width: 512
VWidth: 1024
LBearingChange: 0
UnicodeEnc: 0
InstructionsLength: 0
SplineSet
290 436.180664062 m 5
 290 479.180664062 l 5
 364 720.180664062 l 5
 405 720.180664062 l 5
 405 679.180664062 l 5
 329 436.180664062 l 5
 290 436.180664062 l 5
102 71.1806640625 m 5
 102 113.180664062 l 5
 179 355.180664062 l 5
 220 355.180664062 l 5
 220 314.180664062 l 5
 141 71.1806640625 l 5
 102 71.1806640625 l 5
80 758.180664062 m 5
 110 788.180664062 l 5
 224 788.180664062 l 5
 253 759.180664062 l 5
 224 730.180664062 l 5
 107 730.180664062 l 5
 80 758.180664062 l 5
259 758.180664062 m 5
 289 788.180664062 l 5
 403 788.180664062 l 5
 432 759.180664062 l 5
 403 730.180664062 l 5
 286 730.180664062 l 5
 259 758.180664062 l 5
80 28 m 5
 110 58 l 5
 224 58 l 5
 253 29 l 5
 224 0 l 5
 107 0 l 5
 80 28 l 5
259 28 m 5
 289 58 l 5
 403 58 l 5
 432 29 l 5
 403 0 l 5
 286 0 l 5
 259 28 l 5
EndSplineSet
EndUndoOperation
UndoOperation
Index: 1
Type: 1
WasModified: 0
WasOrder2: 0
Layer: 2
Width: 512
VWidth: 1024
LBearingChange: 0
UnicodeEnc: 0
InstructionsLength: 0
EndUndoOperation
UndoOperation
Index: 2
Type: 3
WasModified: 0
WasOrder2: 0
Layer: 2
EndUndoOperation
EndUndoes
Redoes
EndRedoes
EndUndoRedoHistory
Fore
SplineSet
290 436 m 5
 290 479 l 5
 364 720 l 5
 405 720 l 5
 405 679 l 5
 329 436 l 5
 290 436 l 5
102 71 m 5
 102 113 l 5
 179 355 l 5
 220 355 l 5
 220 314 l 5
 141 71 l 5
 102 71 l 5
80 758 m 5
 110 788 l 5
 224 788 l 5
 253 759 l 5
 224 730 l 5
 107 730 l 5
 80 758 l 5
259 758 m 5
 289 788 l 5
 403 788 l 5
 432 759 l 5
 403 730 l 5
 286 730 l 5
 259 758 l 5
80 28 m 5
 110 58 l 5
 224 58 l 5
 253 29 l 5
 224 0 l 5
 107 0 l 5
 80 28 l 5
259 28 m 5
 289 58 l 5
 403 58 l 5
 432 29 l 5
 403 0 l 5
 286 0 l 5
 259 28 l 5
EndSplineSet
Validated: 1
EndChar

